Lexend-LooseMedium.ufo
<glyph name="exclam" format="2">
  <advance width="478"/>
  <unicode hex="0021"/>
  <outline>
    <contour>
      <point x="212" y="241" type="curve"/>
      <point x="272" y="241" type="line"/>
      <point x="287" y="357"/>
      <point x="296" y="506"/>
      <point x="296" y="630" type="curve" smooth="yes"/>
      <point x="296" y="700" type="line"/>
      <point x="188" y="700" type="line"/>
      <point x="188" y="630" type="line" smooth="yes"/>
      <point x="188" y="513"/>
      <point x="197" y="366"/>
    </contour>
    <contour>
      <point x="239" y="-11" type="curve" smooth="yes"/>
      <point x="280" y="-11"/>
      <point x="308" y="20"/>
      <point x="308" y="64" type="curve" smooth="yes"/>
      <point x="308" y="112"/>
      <point x="283" y="139"/>
      <point x="239" y="139" type="curve" smooth="yes"/>
      <point x="198" y="139"/>
      <point x="170" y="108"/>
      <point x="170" y="64" type="curve" smooth="yes"/>
      <point x="170" y="16"/>
      <point x="195" y="-11"/>
    </contour>
  </outline>
</glyph>
<glyph name="numbersign" format="2">
  <advance width="786"/>
  <unicode hex="0023"/>
  <outline>
    <contour>
      <point x="426" y="0" type="line"/>
      <point x="516" y="0" type="line"/>
      <point x="636" y="700" type="line"/>
      <point x="546" y="700" type="line"/>
    </contour>
    <contour>
      <point x="90" y="173" type="line"/>
      <point x="669" y="173" type="line"/>
      <point x="669" y="256" type="line"/>
      <point x="90" y="256" type="line"/>
    </contour>
    <contour>
      <point x="160" y="0" type="line"/>
      <point x="250" y="0" type="line"/>
      <point x="370" y="700" type="line"/>
      <point x="280" y="700" type="line"/>
    </contour>
    <contour>
      <point x="128" y="453" type="line"/>
      <point x="706" y="453" type="line"/>
      <point x="706" y="536" type="line"/>
      <point x="128" y="536" type="line"/>
    </contour>
  </outline>
</glyph>
<glyph name="dollar" format="2">
  <advance width="775"/>
  <unicode hex="0024"/>
  <outline>
    <contour>
      <point x="392" y="-10" type="curve" smooth="yes"/>
      <point x="549" y="-10"/>
      <point x="647" y="75"/>
      <point x="647" y="208" type="curve" smooth="yes"/>
      <point x="647" y="304"/>
      <point x="562" y="374"/>
      <point x="415" y="405" type="curve" smooth="yes"/>
      <point x="310" y="426"/>
      <point x="271" y="460"/>
      <point x="271" y="517" type="curve" smooth="yes"/>
      <point x="271" y="574"/>
      <point x="324" y="613"/>
      <point x="401" y="613" type="curve" smooth="yes"/>
      <point x="469" y="613"/>
      <point x="525" y="577"/>
      <point x="565" y="512" type="curve"/>
      <point x="641" y="587" type="line"/>
      <point x="594" y="667"/>
      <point x="512" y="710"/>
      <point x="404" y="710" type="curve" smooth="yes"/>
      <point x="268" y="710"/>
      <point x="163" y="627"/>
      <point x="163" y="514" type="curve" smooth="yes"/>
      <point x="163" y="399"/>
      <point x="233" y="329"/>
      <point x="377" y="301" type="curve" smooth="yes"/>
      <point x="489" y="280"/>
      <point x="539" y="241"/>
      <point x="539" y="180" type="curve" smooth="yes"/>
      <point x="539" y="125"/>
      <point x="479" y="87"/>
      <point x="403" y="87" type="curve" smooth="yes"/>
      <point x="320" y="87"/>
      <point x="267" y="118"/>
      <point x="202" y="211" type="curve"/>
      <point x="128" y="126" type="line"/>
      <point x="191" y="35"/>
      <point x="277" y="-10"/>
    </contour>
    <contour>
      <point x="332" y="-91" type="line"/>
      <point x="429" y="-91" type="line"/>
      <point x="429" y="330" type="line"/>
      <point x="332" y="363" type="line"/>
    </contour>
    <contour>
      <point x="469" y="330" type="line"/>
      <point x="469" y="782" type="line"/>
      <point x="372" y="782" type="line"/>
      <point x="372" y="363" type="line"/>
    </contour>
  </outline>
</glyph>
<glyph name="percent" format="2">
  <advance width="939"/>
  <unicode hex="0025"/>
  <outline>
    <contour>
      <point x="179" y="0" type="line"/>
      <point x="277" y="0" type="line"/>
      <point x="745" y="700" type="line"/>
      <point x="642" y="700" type="line"/>
    </contour>
    <contour>
      <point x="243" y="329" type="curve" smooth="yes"/>
      <point x="331" y="329"/>
      <point x="397" y="411"/>
      <point x="397" y="518" type="curve" smooth="yes"/>
      <point x="397" y="629"/>
      <point x="335" y="709"/>
      <point x="244" y="709" type="curve" smooth="yes"/>
      <point x="153" y="709"/>
      <point x="90" y="629"/>
      <point x="90" y="518" type="curve" smooth="yes"/>
      <point x="90" y="409"/>
      <point x="152" y="329"/>
    </contour>
    <contour>
      <point x="244" y="404" type="curve" smooth="yes"/>
      <point x="200" y="404"/>
      <point x="173" y="449"/>
      <point x="173" y="518" type="curve" smooth="yes"/>
      <point x="173" y="587"/>
      <point x="200" y="633"/>
      <point x="243" y="633" type="curve" smooth="yes"/>
      <point x="287" y="633"/>
      <point x="313" y="589"/>
      <point x="313" y="518" type="curve" smooth="yes"/>
      <point x="313" y="447"/>
      <point x="287" y="404"/>
    </contour>
    <contour>
      <point x="686" y="-9" type="curve" smooth="yes"/>
      <point x="774" y="-9"/>
      <point x="839" y="73"/>
      <point x="839" y="180" type="curve" smooth="yes"/>
      <point x="839" y="291"/>
      <point x="777" y="371"/>
      <point x="686" y="371" type="curve" smooth="yes"/>
      <point x="595" y="371"/>
      <point x="532" y="291"/>
      <point x="532" y="180" type="curve" smooth="yes"/>
      <point x="532" y="72"/>
      <point x="597" y="-9"/>
    </contour>
    <contour>
      <point x="686" y="65" type="curve" smooth="yes"/>
      <point x="642" y="65"/>
      <point x="615" y="111"/>
      <point x="615" y="180" type="curve" smooth="yes"/>
      <point x="615" y="251"/>
      <point x="642" y="295"/>
      <point x="686" y="295" type="curve" smooth="yes"/>
      <point x="729" y="295"/>
      <point x="756" y="249"/>
      <point x="756" y="180" type="curve" smooth="yes"/>
      <point x="756" y="111"/>
      <point x="729" y="65"/>
    </contour>
  </outline>
</glyph>
<glyph name="ampersand" format="2">
  <advance width="919"/>
  <unicode hex="0026"/>
  <outline>
    <contour>
      <point x="660" y="0" type="line"/>
      <point x="794" y="0" type="line"/>
      <point x="651" y="156" type="line"/>
      <point x="622" y="188" type="line"/>
      <point x="483" y="343" type="line" smooth="yes"/>
      <point x="444" y="387"/>
      <point x="365" y="475"/>
      <point x="365" y="535" type="curve" smooth="yes"/>
      <point x="365" y="588"/>
      <point x="399" y="617"/>
      <point x="460" y="617" type="curve" smooth="yes"/>
      <point x="515" y="617"/>
      <point x="550" y="590"/>
      <point x="575" y="529" type="curve"/>
      <point x="653" y="579" type="line"/>
      <point x="628" y="656"/>
      <point x="549" y="710"/>
      <point x="460" y="710" type="curve" smooth="yes"/>
      <point x="339" y="710"/>
      <point x="253" y="635"/>
      <point x="253" y="532" type="curve" smooth="yes"/>
      <point x="253" y="468"/>
      <point x="313" y="383"/>
      <point x="380" y="308" type="curve" smooth="yes"/>
      <point x="553" y="115" type="line"/>
      <point x="569" y="97" type="line"/>
    </contour>
    <contour>
      <point x="391" y="-10" type="curve" smooth="yes"/>
      <point x="574" y="-10"/>
      <point x="703" y="126"/>
      <point x="731" y="329" type="curve"/>
      <point x="639" y="329" type="line"/>
      <point x="616" y="182"/>
      <point x="530" y="85"/>
      <point x="411" y="85" type="curve" smooth="yes"/>
      <point x="307" y="85"/>
      <point x="244" y="143"/>
      <point x="244" y="227" type="curve" smooth="yes"/>
      <point x="244" y="300"/>
      <point x="285" y="342"/>
      <point x="370" y="361" type="curve"/>
      <point x="306" y="438" type="line"/>
      <point x="194" y="397"/>
      <point x="135" y="317"/>
      <point x="135" y="212" type="curve" smooth="yes"/>
      <point x="135" y="92"/>
      <point x="248" y="-10"/>
    </contour>
  </outline>
</glyph>
<glyph name="quotesingle" format="2">
  <advance width="371"/>
  <unicode hex="0027"/>
  <outline>
    <contour>
      <point x="110" y="442" type="line"/>
      <point x="170" y="442" type="line"/>
      <point x="251" y="700" type="line"/>
      <point x="133" y="700" type="line"/>
    </contour>
  </outline>
</glyph>
<glyph name="parenleft" format="2">
  <advance width="541"/>
  <unicode hex="0028"/>
  <outline>
    <contour>
      <point x="370" y="-186" type="curve"/>
      <point x="426" y="-124" type="line"/>
      <point x="290" y="-29"/>
      <point x="217" y="106"/>
      <point x="217" y="258" type="curve" smooth="yes"/>
      <point x="217" y="410"/>
      <point x="290" y="545"/>
      <point x="426" y="640" type="curve"/>
      <point x="371" y="702" type="line"/>
      <point x="208" y="601"/>
      <point x="120" y="443"/>
      <point x="120" y="258" type="curve" smooth="yes"/>
      <point x="120" y="71"/>
      <point x="207" y="-85"/>
    </contour>
  </outline>
</glyph>
<glyph name="plus" format="2">
  <advance width="761"/>
  <unicode hex="002B"/>
  <outline>
    <contour>
      <point x="130" y="235" type="line"/>
      <point x="631" y="235" type="line"/>
      <point x="631" y="325" type="line"/>
      <point x="130" y="325" type="line"/>
    </contour>
    <contour>
      <point x="327" y="42" type="line"/>
      <point x="432" y="42" type="line"/>
      <point x="432" y="525" type="line"/>
      <point x="327" y="525" type="line"/>
    </contour>
  </outline>
</glyph>
<glyph name="comma" format="2">
  <advance width="446"/>
  <unicode hex="002C"/>
  <outline>
    <contour>
      <point x="163" y="-179" type="line"/>
      <point x="239" y="-150"/>
      <point x="296" y="-75"/>
      <point x="296" y="4" type="curve" smooth="yes"/>
      <point x="296" y="71"/>
      <point x="258" y="117"/>
      <point x="207" y="117" type="curve" smooth="yes"/>
      <point x="171" y="117"/>
      <point x="146" y="96"/>
      <point x="146" y="64" type="curve" smooth="yes"/>
      <point x="146" y="44"/>
      <point x="151" y="29"/>
      <point x="178" y="4" type="curve" smooth="yes"/>
      <point x="199" y="-19"/>
      <point x="204" y="-29"/>
      <point x="204" y="-42" type="curve" smooth="yes"/>
      <point x="204" y="-67"/>
      <point x="172" y="-106"/>
      <point x="125" y="-133" type="curve"/>
    </contour>
  </outline>
</glyph>
<glyph name="hyphen" format="2">
  <advance width="538"/>
  <unicode hex="002D"/>
  <outline>
    <contour>
      <point x="125" y="235" type="line"/>
      <point x="413" y="235" type="line"/>
      <point x="413" y="337" type="line"/>
      <point x="125" y="337" type="line"/>
    </contour>
  </outline>
</glyph>
<glyph name="period" format="2">
  <advance width="478"/>
  <unicode hex="002E"/>
  <outline>
    <contour>
      <point x="239" y="-11" type="curve" smooth="yes"/>
      <point x="280" y="-11"/>
      <point x="308" y="20"/>
      <point x="308" y="64" type="curve" smooth="yes"/>
      <point x="308" y="112"/>
      <point x="283" y="139"/>
      <point x="239" y="139" type="curve" smooth="yes"/>
      <point x="198" y="139"/>
      <point x="170" y="108"/>
      <point x="170" y="64" type="curve" smooth="yes"/>
      <point x="170" y="16"/>
      <point x="195" y="-11"/>
    </contour>
  </outline>
</glyph>
<glyph name="zero" format="2">
  <advance width="715"/>
  <unicode hex="0030"/>
  <outline>
    <contour>
      <point x="357" y="-10" type="curve" smooth="yes"/>
      <point x="517" y="-10"/>
      <point x="615" y="129"/>
      <point x="615" y="350" type="curve" smooth="yes"/>
      <point x="615" y="571"/>
      <point x="517" y="710"/>
      <point x="357" y="710" type="curve" smooth="yes"/>
      <point x="197" y="710"/>
      <point x="100" y="571"/>
      <point x="100" y="350" type="curve" smooth="yes"/>
      <point x="100" y="129"/>
      <point x="197" y="-10"/>
    </contour>
    <contour>
      <point x="357" y="88" type="curve" smooth="yes"/>
      <point x="260" y="88"/>
      <point x="204" y="183"/>
      <point x="204" y="350" type="curve" smooth="yes"/>
      <point x="204" y="517"/>
      <point x="260" y="612"/>
      <point x="357" y="612" type="curve" smooth="yes"/>
      <point x="454" y="612"/>
      <point x="510" y="517"/>
      <point x="510" y="350" type="curve" smooth="yes"/>
      <point x="510" y="183"/>
      <point x="454" y="88"/>
    </contour>
  </outline>
</glyph>
<glyph name="two" format="2">
  <advance width="685"/>
  <unicode hex="0032"/>
  <outline>
    <contour>
      <point x="152" y="0" type="line"/>
      <point x="575" y="0" type="line"/>
      <point x="575" y="104" type="line"/>
      <point x="231" y="104" type="line"/>
      <point x="251" y="74" type="line"/>
      <point x="410" y="247" type="line" smooth="yes"/>
      <point x="511" y="357"/>
      <point x="553" y="440"/>
      <point x="553" y="517" type="curve" smooth="yes"/>
      <point x="553" y="632"/>
      <point x="469" y="710"/>
      <point x="350" y="710" type="curve" smooth="yes"/>
      <point x="235" y="710"/>
      <point x="143" y="641"/>
      <point x="110" y="525" type="curve"/>
      <point x="193" y="473" type="line"/>
      <point x="218" y="556"/>
      <point x="280" y="610"/>
      <point x="337" y="610" type="curve" smooth="yes"/>
      <point x="402" y="610"/>
      <point x="442" y="573"/>
      <point x="442" y="509" type="curve" smooth="yes"/>
      <point x="442" y="451"/>
      <point x="377" y="372"/>
      <point x="333" y="323" type="curve" smooth="yes"/>
      <point x="119" y="82" type="line"/>
    </contour>
  </outline>
</glyph>
<glyph name="three" format="2">
  <advance width="664"/>
  <unicode hex="0033"/>
  <outline>
    <contour>
      <point x="321" y="-10" type="curve" smooth="yes"/>
      <point x="457" y="-10"/>
      <point x="564" y="91"/>
      <point x="564" y="227" type="curve" smooth="yes"/>
      <point x="564" y="348"/>
      <point x="470" y="443"/>
      <point x="353" y="443" type="curve" smooth="yes"/>
      <point x="337" y="443"/>
      <point x="307" y="437"/>
      <point x="296" y="432" type="curve"/>
      <point x="321" y="406" type="line"/>
      <point x="550" y="660" type="line"/>
      <point x="530" y="700" type="line"/>
      <point x="129" y="700" type="line"/>
      <point x="129" y="600" type="line"/>
      <point x="427" y="600" type="line"/>
      <point x="406" y="631" type="line"/>
      <point x="190" y="393" type="line"/>
      <point x="220" y="314" type="line"/>
      <point x="269" y="334"/>
      <point x="308" y="344"/>
      <point x="341" y="344" type="curve" smooth="yes"/>
      <point x="416" y="344"/>
      <point x="460" y="300"/>
      <point x="460" y="221" type="curve" smooth="yes"/>
      <point x="460" y="142"/>
      <point x="400" y="85"/>
      <point x="329" y="85" type="curve" smooth="yes"/>
      <point x="272" y="85"/>
      <point x="223" y="116"/>
      <point x="174" y="191" type="curve"/>
      <point x="90" y="138" type="line"/>
      <point x="154" y="31"/>
      <point x="222" y="-10"/>
    </contour>
  </outline>
</glyph>
<glyph name="five" format="2">
  <advance width="679"/>
  <unicode hex="0035"/>
  <outline>
    <contour>
      <point x="328" y="-7" type="curve" smooth="yes"/>
      <point x="471" y="-7"/>
      <point x="579" y="99"/>
      <point x="579" y="238" type="curve" smooth="yes"/>
      <point x="579" y="373"/>
      <point x="483" y="468"/>
      <point x="355" y="468" type="curve" smooth="yes"/>
      <point x="302" y="468"/>
      <point x="231" y="446"/>
      <point x="211" y="426" type="curve"/>
      <point x="236" y="397" type="line"/>
      <point x="269" y="619" type="line"/>
      <point x="248" y="600" type="line"/>
      <point x="558" y="600" type="line"/>
      <point x="558" y="700" type="line"/>
      <point x="180" y="700" type="line"/>
      <point x="139" y="403" type="line"/>
      <point x="196" y="326" type="line"/>
      <point x="273" y="365"/>
      <point x="299" y="368"/>
      <point x="336" y="368" type="curve" smooth="yes"/>
      <point x="413" y="368"/>
      <point x="474" y="308"/>
      <point x="474" y="228" type="curve" smooth="yes"/>
      <point x="474" y="152"/>
      <point x="411" y="92"/>
      <point x="328" y="92" type="curve" smooth="yes"/>
      <point x="273" y="92"/>
      <point x="233" y="113"/>
      <point x="170" y="182" type="curve"/>
      <point x="110" y="115" type="line"/>
      <point x="159" y="36"/>
      <point x="236" y="-7"/>
    </contour>
  </outline>
</glyph>
<glyph name="six" format="2">
  <advance width="702"/>
  <unicode hex="0036"/>
  <outline>
    <contour>
      <point x="353" y="0" type="curve" smooth="yes"/>
      <point x="493" y="0"/>
      <point x="592" y="111"/>
      <point x="592" y="260" type="curve" smooth="yes"/>
      <point x="592" y="384"/>
      <point x="494" y="489"/>
      <point x="378" y="489" type="curve" smooth="yes"/>
      <point x="297" y="489"/>
      <point x="229" y="446"/>
      <point x="178" y="363" type="curve"/>
      <point x="202" y="260" type="line"/>
      <point x="218" y="325"/>
      <point x="259" y="416"/>
      <point x="319" y="517" type="curve" smooth="yes"/>
      <point x="429" y="702" type="line"/>
      <point x="425" y="712" type="line"/>
      <point x="320" y="712" type="line"/>
      <point x="229" y="558" type="line" smooth="yes"/>
      <point x="152" y="429"/>
      <point x="110" y="319"/>
      <point x="110" y="247" type="curve" smooth="yes"/>
      <point x="110" y="104"/>
      <point x="214" y="0"/>
    </contour>
    <contour>
      <point x="353" y="100" type="curve" smooth="yes"/>
      <point x="272" y="100"/>
      <point x="214" y="164"/>
      <point x="214" y="248" type="curve" smooth="yes"/>
      <point x="214" y="327"/>
      <point x="272" y="389"/>
      <point x="355" y="389" type="curve" smooth="yes"/>
      <point x="428" y="389"/>
      <point x="488" y="322"/>
      <point x="488" y="247" type="curve" smooth="yes"/>
      <point x="488" y="160"/>
      <point x="430" y="100"/>
    </contour>
  </outline>
</glyph>
<glyph name="eight" format="2">
  <advance width="713"/>
  <unicode hex="0038"/>
  <outline>
    <contour>
      <point x="356" y="-3" type="curve" smooth="yes"/>
      <point x="488" y="-3"/>
      <point x="593" y="87"/>
      <point x="593" y="200" type="curve" smooth="yes"/>
      <point x="593" y="276"/>
      <point x="539" y="349"/>
      <point x="459" y="381" type="curve"/>
      <point x="462" y="364" type="line"/>
      <point x="535" y="393"/>
      <point x="575" y="444"/>
      <point x="575" y="509" type="curve" smooth="yes"/>
      <point x="575" y="614"/>
      <point x="477" y="700"/>
      <point x="356" y="700" type="curve" smooth="yes"/>
      <point x="235" y="700"/>
      <point x="137" y="614"/>
      <point x="137" y="509" type="curve" smooth="yes"/>
      <point x="137" y="444"/>
      <point x="180" y="391"/>
      <point x="249" y="364" type="curve"/>
      <point x="255" y="385" type="line"/>
      <point x="167" y="346"/>
      <point x="120" y="283"/>
      <point x="120" y="200" type="curve" smooth="yes"/>
      <point x="120" y="88"/>
      <point x="225" y="-3"/>
    </contour>
    <contour>
      <point x="356" y="97" type="curve" smooth="yes"/>
      <point x="283" y="97"/>
      <point x="227" y="144"/>
      <point x="227" y="204" type="curve" smooth="yes"/>
      <point x="227" y="269"/>
      <point x="283" y="318"/>
      <point x="356" y="318" type="curve" smooth="yes"/>
      <point x="431" y="318"/>
      <point x="486" y="269"/>
      <point x="486" y="204" type="curve" smooth="yes"/>
      <point x="486" y="143"/>
      <point x="431" y="97"/>
    </contour>
    <contour>
      <point x="356" y="414" type="curve" smooth="yes"/>
      <point x="292" y="414"/>
      <point x="244" y="453"/>
      <point x="244" y="506" type="curve" smooth="yes"/>
      <point x="244" y="559"/>
      <point x="292" y="600"/>
      <point x="356" y="600" type="curve" smooth="yes"/>
      <point x="420" y="600"/>
      <point x="468" y="559"/>
      <point x="468" y="506" type="curve" smooth="yes"/>
      <point x="468" y="453"/>
      <point x="420" y="414"/>
    </contour>
  </outline>
</glyph>
<glyph name="nine" format="2">
  <advance width="706"/>
  <unicode hex="0039"/>
  <outline>
    <contour>
      <point x="308" y="0" type="line"/>
      <point x="414" y="0" type="line"/>
      <point x="497" y="174" type="line" smooth="yes"/>
      <point x="572" y="333"/>
      <point x="596" y="411"/>
      <point x="596" y="478" type="curve" smooth="yes"/>
      <point x="596" y="607"/>
      <point x="487" y="712"/>
      <point x="354" y="712" type="curve" smooth="yes"/>
      <point x="215" y="712"/>
      <point x="110" y="605"/>
      <point x="110" y="462" type="curve" smooth="yes"/>
      <point x="110" y="343"/>
      <point x="206" y="243"/>
      <point x="321" y="243" type="curve" smooth="yes"/>
      <point x="396" y="243"/>
      <point x="468" y="290"/>
      <point x="515" y="369" type="curve"/>
      <point x="512" y="452" type="line"/>
      <point x="304" y="10" type="line"/>
    </contour>
    <contour>
      <point x="344" y="343" type="curve" smooth="yes"/>
      <point x="276" y="343"/>
      <point x="221" y="406"/>
      <point x="221" y="475" type="curve" smooth="yes"/>
      <point x="221" y="556"/>
      <point x="274" y="612"/>
      <point x="346" y="612" type="curve" smooth="yes"/>
      <point x="425" y="612"/>
      <point x="480" y="553"/>
      <point x="480" y="474" type="curve" smooth="yes"/>
      <point x="480" y="401"/>
      <point x="423" y="343"/>
    </contour>
  </outline>
</glyph>
<glyph name="less" format="2">
  <advance width="639"/>
  <unicode hex="003C"/>
  <outline>
    <contour>
      <point x="451" y="4" type="line"/>
      <point x="499" y="79" type="line"/>
      <point x="140" y="285" type="line"/>
      <point x="140" y="218" type="line"/>
      <point x="499" y="424" type="line"/>
      <point x="451" y="499" type="line"/>
      <point x="90" y="292" type="line"/>
      <point x="90" y="211" type="line"/>
    </contour>
  </outline>
</glyph>
<glyph name="equal" format="2">
  <advance width="706"/>
  <unicode hex="003D"/>
  <outline>
    <contour>
      <point x="120" y="331" type="line"/>
      <point x="586" y="331" type="line"/>
      <point x="586" y="421" type="line"/>
      <point x="120" y="421" type="line"/>
    </contour>
    <contour>
      <point x="120" y="142" type="line"/>
      <point x="586" y="142" type="line"/>
      <point x="586" y="231" type="line"/>
      <point x="120" y="231" type="line"/>
    </contour>
  </outline>
</glyph>
<glyph name="question" format="2">
  <advance width="689"/>
  <unicode hex="003F"/>
  <outline>
    <contour>
      <point x="291" y="211" type="line"/>
      <point x="368" y="211" type="line"/>
      <point x="385" y="301" type="line"/>
      <point x="491" y="339"/>
      <point x="569" y="422"/>
      <point x="569" y="511" type="curve" smooth="yes"/>
      <point x="569" y="623"/>
      <point x="472" y="709"/>
      <point x="347" y="709" type="curve" smooth="yes"/>
      <point x="260" y="709"/>
      <point x="177" y="658"/>
      <point x="120" y="570" type="curve"/>
      <point x="195" y="507" type="line"/>
      <point x="231" y="574"/>
      <point x="284" y="612"/>
      <point x="337" y="612" type="curve" smooth="yes"/>
      <point x="405" y="612"/>
      <point x="456" y="570"/>
      <point x="456" y="511" type="curve" smooth="yes"/>
      <point x="456" y="436"/>
      <point x="396" y="387"/>
      <point x="265" y="352" type="curve"/>
    </contour>
    <contour>
      <point x="256" y="64" type="curve" smooth="yes"/>
      <point x="256" y="16"/>
      <point x="281" y="-11"/>
      <point x="325" y="-11" type="curve" smooth="yes"/>
      <point x="366" y="-11"/>
      <point x="394" y="20"/>
      <point x="394" y="64" type="curve" smooth="yes"/>
      <point x="394" y="112"/>
      <point x="369" y="139"/>
      <point x="325" y="139" type="curve" smooth="yes"/>
      <point x="284" y="139"/>
      <point x="256" y="108"/>
    </contour>
  </outline>
</glyph>
<glyph name="at" format="2">
  <advance width="1065"/>
  <unicode hex="0040"/>
  <outline>
    <contour>
      <point x="464" y="-162" type="curve" smooth="yes"/>
      <point x="544" y="-162"/>
      <point x="602" y="-149"/>
      <point x="719" y="-89" type="curve"/>
      <point x="682" y="-22" type="line"/>
      <point x="606" y="-63"/>
      <point x="561" y="-82"/>
      <point x="467" y="-82" type="curve" smooth="yes"/>
      <point x="279" y="-82"/>
      <point x="174" y="26"/>
      <point x="174" y="209" type="curve" smooth="yes"/>
      <point x="174" y="472"/>
      <point x="349" y="630"/>
      <point x="622" y="630" type="curve" smooth="yes"/>
      <point x="791" y="630"/>
      <point x="892" y="540"/>
      <point x="892" y="391" type="curve" smooth="yes"/>
      <point x="892" y="254"/>
      <point x="830" y="137"/>
      <point x="750" y="137" type="curve" smooth="yes"/>
      <point x="725" y="137"/>
      <point x="701" y="155"/>
      <point x="707" y="193" type="curve" smooth="yes"/>
      <point x="758" y="501" type="line"/>
      <point x="657" y="501" type="line"/>
      <point x="631" y="331" type="line"/>
      <point x="655" y="390" type="line"/>
      <point x="648" y="462"/>
      <point x="602" y="510"/>
      <point x="541" y="510" type="curve" smooth="yes"/>
      <point x="399" y="510"/>
      <point x="302" y="361"/>
      <point x="302" y="237" type="curve" smooth="yes"/>
      <point x="302" y="129"/>
      <point x="365" y="55"/>
      <point x="450" y="55" type="curve" smooth="yes"/>
      <point x="530" y="55"/>
      <point x="593" y="107"/>
      <point x="624" y="202" type="curve"/>
      <point x="610" y="222" type="line"/>
      <point x="607" y="198"/>
      <point x="601" y="175"/>
      <point x="601" y="155" type="curve" smooth="yes"/>
      <point x="601" y="94"/>
      <point x="650" y="55"/>
      <point x="719" y="55" type="curve" smooth="yes"/>
      <point x="863" y="55"/>
      <point x="975" y="215"/>
      <point x="975" y="396" type="curve" smooth="yes"/>
      <point x="975" y="583"/>
      <point x="838" y="710"/>
      <point x="626" y="710" type="curve" smooth="yes"/>
      <point x="329" y="710"/>
      <point x="90" y="519"/>
      <point x="90" y="206" type="curve" smooth="yes"/>
      <point x="90" y="-14"/>
      <point x="231" y="-162"/>
    </contour>
    <contour>
      <point x="473" y="140" type="curve" smooth="yes"/>
      <point x="430" y="140"/>
      <point x="404" y="175"/>
      <point x="404" y="232" type="curve" smooth="yes"/>
      <point x="404" y="327"/>
      <point x="468" y="425"/>
      <point x="545" y="425" type="curve" smooth="yes"/>
      <point x="596" y="425"/>
      <point x="627" y="394"/>
      <point x="627" y="342" type="curve" smooth="yes"/>
      <point x="627" y="326"/>
      <point x="624" y="310"/>
      <point x="620" y="286" type="curve" smooth="yes"/>
      <point x="609" y="214"/>
      <point x="541" y="140"/>
    </contour>
  </outline>
</glyph>
<glyph name="A" format="2">
  <advance width="834"/>
  <unicode hex="0041"/>
  <anchor x="417" y="0" name="bottom"/>
  <anchor x="742" y="0" name="ogonek"/>
  <anchor x="417" y="700" name="top"/>
  <outline>
    <contour>
      <point x="92" y="0" type="line"/>
      <point x="202" y="0" type="line"/>
      <point x="361" y="418" type="line" smooth="yes"/>
      <point x="378" y="462"/>
      <point x="411" y="568"/>
      <point x="427" y="613" type="curve"/>
      <point x="404" y="612" type="line"/>
      <point x="412" y="590"/>
      <point x="460" y="441"/>
      <point x="467" y="422" type="curve" smooth="yes"/>
      <point x="627" y="0" type="line"/>
      <point x="742" y="0" type="line"/>
      <point x="473" y="700" type="line"/>
      <point x="363" y="700" type="line"/>
    </contour>
    <contour>
      <point x="212" y="174" type="line"/>
      <point x="616" y="174" type="line"/>
      <point x="570" y="278" type="line"/>
      <point x="252" y="278" type="line"/>
    </contour>
  </outline>
</glyph>
<glyph name="B" format="2">
  <advance width="845"/>
  <unicode hex="0042"/>
  <anchor x="425" y="0" name="bottom"/>
  <anchor x="425" y="700" name="top"/>
  <outline>
    <contour>
      <point x="182" y="0" type="line"/>
      <point x="484" y="0" type="line" smooth="yes"/>
      <point x="631" y="0"/>
      <point x="717" y="73"/>
      <point x="717" y="206" type="curve" smooth="yes"/>
      <point x="717" y="304"/>
      <point x="654" y="371"/>
      <point x="561" y="392" type="curve"/>
      <point x="561" y="372" type="line"/>
      <point x="636" y="392"/>
      <point x="680" y="448"/>
      <point x="680" y="524" type="curve" smooth="yes"/>
      <point x="680" y="639"/>
      <point x="609" y="700"/>
      <point x="474" y="700" type="curve" smooth="yes"/>
      <point x="182" y="700" type="line"/>
    </contour>
    <contour>
      <point x="290" y="104" type="line"/>
      <point x="290" y="306" type="line"/>
      <point x="473" y="306" type="line" smooth="yes"/>
      <point x="554" y="306"/>
      <point x="607" y="271"/>
      <point x="607" y="208" type="curve" smooth="yes"/>
      <point x="607" y="141"/>
      <point x="559" y="104"/>
      <point x="478" y="104" type="curve" smooth="yes"/>
    </contour>
    <contour>
      <point x="290" y="410" type="line"/>
      <point x="290" y="596" type="line"/>
      <point x="456" y="596" type="line" smooth="yes"/>
      <point x="531" y="596"/>
      <point x="572" y="563"/>
      <point x="572" y="503" type="curve" smooth="yes"/>
      <point x="572" y="448"/>
      <point x="528" y="410"/>
      <point x="468" y="410" type="curve" smooth="yes"/>
    </contour>
  </outline>
</glyph>
<glyph name="C" format="2">
  <advance width="849"/>
  <unicode hex="0043"/>
  <anchor x="460" y="0" name="bottom"/>
  <anchor x="471" y="706" name="top"/>
  <outline>
    <contour>
      <point x="462" y="-10" type="curve" smooth="yes"/>
      <point x="561" y="-10"/>
      <point x="663" y="31"/>
      <point x="710" y="86" type="curve"/>
      <point x="656" y="174" type="line"/>
      <point x="611" y="127"/>
      <point x="547" y="99"/>
      <point x="480" y="99" type="curve" smooth="yes"/>
      <point x="336" y="99"/>
      <point x="238" y="197"/>
      <point x="238" y="350" type="curve" smooth="yes"/>
      <point x="238" y="494"/>
      <point x="340" y="598"/>
      <point x="471" y="598" type="curve" smooth="yes"/>
      <point x="534" y="598"/>
      <point x="594" y="569"/>
      <point x="651" y="510" type="curve"/>
      <point x="723" y="585" type="line"/>
      <point x="674" y="656"/>
      <point x="572" y="706"/>
      <point x="471" y="706" type="curve" smooth="yes"/>
      <point x="280" y="706"/>
      <point x="128" y="550"/>
      <point x="128" y="350" type="curve" smooth="yes"/>
      <point x="128" y="138"/>
      <point x="267" y="-10"/>
    </contour>
  </outline>
</glyph>
<glyph name="D" format="2">
  <advance width="912"/>
  <unicode hex="0044"/>
  <anchor x="458" y="0" name="bottom"/>
  <anchor x="272" y="350" name="center"/>
  <anchor x="458" y="700" name="top"/>
  <outline>
    <contour>
      <point x="182" y="0" type="line"/>
      <point x="456" y="0" type="line" smooth="yes"/>
      <point x="657" y="0"/>
      <point x="784" y="141"/>
      <point x="784" y="350" type="curve" smooth="yes"/>
      <point x="784" y="558"/>
      <point x="656" y="700"/>
      <point x="456" y="700" type="curve" smooth="yes"/>
      <point x="182" y="700" type="line"/>
    </contour>
    <contour>
      <point x="290" y="93" type="line"/>
      <point x="290" y="605" type="line"/>
      <point x="284" y="596" type="line"/>
      <point x="451" y="596" type="line" smooth="yes"/>
      <point x="591" y="596"/>
      <point x="674" y="502"/>
      <point x="674" y="350" type="curve" smooth="yes"/>
      <point x="674" y="197"/>
      <point x="592" y="104"/>
      <point x="451" y="104" type="curve" smooth="yes"/>
      <point x="287" y="104" type="line"/>
    </contour>
  </outline>
</glyph>
<glyph name="E" format="2">
  <advance width="783"/>
  <unicode hex="0045"/>
  <anchor x="391" y="0" name="bottom"/>
  <anchor x="593" y="0" name="ogonek"/>
  <anchor x="391" y="700" name="top"/>
  <anchor x="104" y="700" name="topleft"/>
  <outline>
    <contour>
      <point x="182" y="0" type="line"/>
      <point x="623" y="0" type="line"/>
      <point x="623" y="104" type="line"/>
      <point x="290" y="104" type="line"/>
      <point x="290" y="596" type="line"/>
      <point x="623" y="596" type="line"/>
      <point x="623" y="700" type="line"/>
      <point x="182" y="700" type="line"/>
    </contour>
    <contour>
      <point x="231" y="307" type="line"/>
      <point x="568" y="307" type="line"/>
      <point x="568" y="411" type="line"/>
      <point x="231" y="411" type="line"/>
    </contour>
  </outline>
</glyph>
<glyph name="F" format="2">
  <advance width="776"/>
  <unicode hex="0046"/>
  <anchor x="385" y="0" name="bottom"/>
  <anchor x="385" y="700" name="top"/>
  <outline>
    <contour>
      <point x="182" y="0" type="line"/>
      <point x="290" y="0" type="line"/>
      <point x="290" y="700" type="line"/>
      <point x="182" y="700" type="line"/>
    </contour>
    <contour>
      <point x="230" y="298" type="line"/>
      <point x="591" y="298" type="line"/>
      <point x="591" y="402" type="line"/>
      <point x="230" y="402" type="line"/>
    </contour>
    <contour>
      <point x="230" y="596" type="line"/>
      <point x="636" y="596" type="line"/>
      <point x="636" y="700" type="line"/>
      <point x="230" y="700" type="line"/>
    </contour>
  </outline>
</glyph>
<glyph name="H" format="2">
  <advance width="929"/>
  <unicode hex="0048"/>
  <anchor x="465" y="0" name="bottom"/>
  <anchor x="465" y="350" name="center"/>
  <anchor x="465" y="700" name="top"/>
  <anchor x="104" y="700" name="topleft"/>
  <outline>
    <contour>
      <point x="639" y="0" type="line"/>
      <point x="747" y="0" type="line"/>
      <point x="747" y="700" type="line"/>
      <point x="639" y="700" type="line"/>
    </contour>
    <contour>
      <point x="182" y="0" type="line"/>
      <point x="290" y="0" type="line"/>
      <point x="290" y="700" type="line"/>
      <point x="182" y="700" type="line"/>
    </contour>
    <contour>
      <point x="229" y="297" type="line"/>
      <point x="687" y="297" type="line"/>
      <point x="687" y="401" type="line"/>
      <point x="229" y="401" type="line"/>
    </contour>
  </outline>
</glyph>
<glyph name="I" format="2">
  <advance width="714"/>
  <unicode hex="0049"/>
  <anchor x="357" y="0" name="bottom"/>
  <anchor x="461" y="0" name="ogonek"/>
  <anchor x="357" y="700" name="top"/>
  <anchor x="138" y="700" name="topleft"/>
  <outline>
    <contour>
      <point x="190" y="0" type="line"/>
      <point x="524" y="0" type="line"/>
      <point x="524" y="100" type="line"/>
      <point x="411" y="100" type="line"/>
      <point x="411" y="600" type="line"/>
      <point x="524" y="600" type="line"/>
      <point x="524" y="700" type="line"/>
      <point x="190" y="700" type="line"/>
      <point x="190" y="600" type="line"/>
      <point x="303" y="600" type="line"/>
      <point x="303" y="100" type="line"/>
      <point x="190" y="100" type="line"/>
    </contour>
  </outline>
</glyph>
<glyph name="J" format="2">
  <advance width="717"/>
  <unicode hex="004A"/>
  <anchor x="396" y="0" name="bottom"/>
  <anchor x="501" y="700" name="top"/>
  <outline>
    <contour>
      <point x="331" y="-10" type="curve" smooth="yes"/>
      <point x="466" y="-10"/>
      <point x="559" y="86"/>
      <point x="559" y="213" type="curve" smooth="yes"/>
      <point x="559" y="600" type="line"/>
      <point x="667" y="600" type="line"/>
      <point x="667" y="700" type="line"/>
      <point x="323" y="700" type="line"/>
      <point x="323" y="600" type="line"/>
      <point x="451" y="600" type="line"/>
      <point x="451" y="223" type="line" smooth="yes"/>
      <point x="451" y="148"/>
      <point x="403" y="95"/>
      <point x="331" y="95" type="curve" smooth="yes"/>
      <point x="282" y="95"/>
      <point x="250" y="109"/>
      <point x="193" y="188" type="curve"/>
      <point x="125" y="117" type="line"/>
      <point x="164" y="41"/>
      <point x="240" y="-10"/>
    </contour>
  </outline>
</glyph>
<glyph name="K" format="2">
  <advance width="917"/>
  <unicode hex="004B"/>
  <anchor x="450" y="0" name="bottom"/>
  <anchor x="450" y="700" name="top"/>
  <outline>
    <contour>
      <point x="272" y="212" type="line"/>
      <point x="775" y="700" type="line"/>
      <point x="633" y="700" type="line"/>
      <point x="266" y="333" type="line"/>
    </contour>
    <contour>
      <point x="182" y="0" type="line"/>
      <point x="290" y="0" type="line"/>
      <point x="290" y="700" type="line"/>
      <point x="182" y="700" type="line"/>
    </contour>
    <contour>
      <point x="646" y="0" type="line"/>
      <point x="781" y="0" type="line"/>
      <point x="458" y="427" type="line"/>
      <point x="378" y="358" type="line"/>
    </contour>
  </outline>
</glyph>
<glyph name="L" format="2">
  <advance width="758"/>
  <unicode hex="004C"/>
  <anchor x="384" y="0" name="bottom"/>
  <anchor x="237" y="350" name="center"/>
  <anchor x="237" y="700" name="top"/>
  <anchor x="377" y="700" name="topright"/>
  <outline>
    <contour>
      <point x="182" y="0" type="line"/>
      <point x="618" y="0" type="line"/>
      <point x="618" y="104" type="line"/>
      <point x="290" y="104" type="line"/>
      <point x="290" y="700" type="line"/>
      <point x="182" y="700" type="line"/>
    </contour>
  </outline>
</glyph>
<glyph name="M" format="2">
  <advance width="1032"/>
  <unicode hex="004D"/>
  <anchor x="516" y="0" name="bottom"/>
  <anchor x="516" y="700" name="top"/>
  <outline>
    <contour>
      <point x="182" y="0" type="line"/>
      <point x="290" y="0" type="line"/>
      <point x="290" y="287" type="line" smooth="yes"/>
      <point x="290" y="416"/>
      <point x="285" y="503"/>
      <point x="270" y="592" type="curve"/>
      <point x="259" y="551" type="line"/>
      <point x="481" y="201" type="line"/>
      <point x="547" y="201" type="line"/>
      <point x="776" y="555" type="line"/>
      <point x="762" y="592" type="line"/>
      <point x="747" y="497"/>
      <point x="742" y="407"/>
      <point x="742" y="287" type="curve" smooth="yes"/>
      <point x="742" y="0" type="line"/>
      <point x="850" y="0" type="line"/>
      <point x="850" y="700" type="line"/>
      <point x="750" y="700" type="line"/>
      <point x="492" y="286" type="line"/>
      <point x="543" y="285" type="line"/>
      <point x="288" y="700" type="line"/>
      <point x="182" y="700" type="line"/>
    </contour>
  </outline>
</glyph>
<glyph name="N" format="2">
  <advance width="961"/>
  <unicode hex="004E"/>
  <anchor x="481" y="0" name="bottom"/>
  <anchor x="481" y="700" name="top"/>
  <outline>
    <contour>
      <point x="182" y="0" type="line"/>
      <point x="290" y="0" type="line"/>
      <point x="290" y="291" type="line" smooth="yes"/>
      <point x="290" y="321"/>
      <point x="288" y="364"/>
      <point x="270" y="566" type="curve"/>
      <point x="259" y="552" type="line"/>
      <point x="680" y="0" type="line"/>
      <point x="779" y="0" type="line"/>
      <point x="779" y="700" type="line"/>
      <point x="671" y="700" type="line"/>
      <point x="671" y="470" type="line" smooth="yes"/>
      <point x="671" y="323"/>
      <point x="678" y="201"/>
      <point x="691" y="118" type="curve"/>
      <point x="707" y="127" type="line"/>
      <point x="279" y="700" type="line"/>
      <point x="182" y="700" type="line"/>
    </contour>
  </outline>
</glyph>
<glyph name="O" format="2">
  <advance width="942"/>
  <unicode hex="004F"/>
  <anchor x="471" y="0" name="bottom"/>
  <anchor x="471" y="350" name="center"/>
  <anchor x="643" y="0" name="ogonek"/>
  <anchor x="471" y="700" name="top"/>
  <anchor x="100" y="700" name="topleft"/>
  <anchor x="842" y="700" name="topright"/>
  <outline>
    <contour>
      <point x="471" y="-10" type="curve" smooth="yes"/>
      <point x="668" y="-10"/>
      <point x="814" y="145"/>
      <point x="814" y="350" type="curve" smooth="yes"/>
      <point x="814" y="555"/>
      <point x="668" y="710"/>
      <point x="471" y="710" type="curve" smooth="yes"/>
      <point x="274" y="710"/>
      <point x="128" y="557"/>
      <point x="128" y="350" type="curve" smooth="yes"/>
      <point x="128" y="143"/>
      <point x="274" y="-10"/>
    </contour>
    <contour>
      <point x="471" y="95" type="curve" smooth="yes"/>
      <point x="335" y="95"/>
      <point x="238" y="202"/>
      <point x="238" y="350" type="curve" smooth="yes"/>
      <point x="238" y="498"/>
      <point x="335" y="605"/>
      <point x="471" y="605" type="curve" smooth="yes"/>
      <point x="606" y="605"/>
      <point x="704" y="497"/>
      <point x="704" y="350" type="curve" smooth="yes"/>
      <point x="704" y="203"/>
      <point x="606" y="95"/>
    </contour>
  </outline>
</glyph>
<glyph name="P" format="2">
  <advance width="808"/>
  <unicode hex="0050"/>
  <anchor x="401" y="0" name="bottom"/>
  <anchor x="401" y="700" name="top"/>
  <outline>
    <contour>
      <point x="182" y="0" type="line"/>
      <point x="290" y="0" type="line"/>
      <point x="290" y="268" type="line"/>
      <point x="467" y="268" type="line" smooth="yes"/>
      <point x="580" y="268"/>
      <point x="673" y="365"/>
      <point x="673" y="485" type="curve" smooth="yes"/>
      <point x="673" y="605"/>
      <point x="580" y="700"/>
      <point x="467" y="700" type="curve" smooth="yes"/>
      <point x="182" y="700" type="line"/>
    </contour>
    <contour>
      <point x="290" y="372" type="line"/>
      <point x="290" y="596" type="line"/>
      <point x="465" y="596" type="line" smooth="yes"/>
      <point x="518" y="596"/>
      <point x="563" y="546"/>
      <point x="563" y="485" type="curve" smooth="yes"/>
      <point x="563" y="424"/>
      <point x="518" y="372"/>
      <point x="465" y="372" type="curve" smooth="yes"/>
    </contour>
  </outline>
</glyph>
<glyph name="Q" format="2">
  <advance width="942"/>
  <unicode hex="0051"/>
  <anchor x="471" y="0" name="bottom"/>
  <anchor x="471" y="700" name="top"/>
  <anchor x="471" y="350" name="center"/>
  <anchor x="643" y="0" name="ogonek"/>
  <anchor x="100" y="700" name="topleft"/>
  <anchor x="842" y="700" name="topright"/>
  <outline>
    <contour>
      <point x="693" y="-110" type="line"/>
      <point x="779" y="-48" type="line"/>
      <point x="517" y="296" type="line"/>
      <point x="428" y="237" type="line"/>
    </contour>
    <component base="O"/>
  </outline>
</glyph>
<glyph name="R" format="2">
  <advance width="881"/>
  <unicode hex="0052"/>
  <anchor x="432" y="0" name="bottom"/>
  <anchor x="432" y="700" name="top"/>
  <outline>
    <contour>
      <point x="182" y="0" type="line"/>
      <point x="290" y="0" type="line"/>
      <point x="290" y="263" type="line"/>
      <point x="480" y="263" type="line" smooth="yes"/>
      <point x="601" y="263"/>
      <point x="701" y="362"/>
      <point x="701" y="477" type="curve" smooth="yes"/>
      <point x="701" y="604"/>
      <point x="600" y="700"/>
      <point x="480" y="700" type="curve" smooth="yes"/>
      <point x="182" y="700" type="line"/>
    </contour>
    <contour>
      <point x="729" y="-1" type="line"/>
      <point x="531" y="341" type="line"/>
      <point x="420" y="316" type="line"/>
      <point x="598" y="0" type="line"/>
    </contour>
    <contour>
      <point x="290" y="367" type="line"/>
      <point x="290" y="596" type="line"/>
      <point x="462" y="596" type="line" smooth="yes"/>
      <point x="537" y="596"/>
      <point x="591" y="547"/>
      <point x="591" y="478" type="curve" smooth="yes"/>
      <point x="591" y="415"/>
      <point x="549" y="367"/>
      <point x="490" y="367" type="curve" smooth="yes"/>
    </contour>
  </outline>
</glyph>
<glyph name="T" format="2">
  <advance width="706"/>
  <unicode hex="0054"/>
  <anchor x="353" y="0" name="bottom"/>
  <anchor x="353" y="350" name="center"/>
  <anchor x="353" y="700" name="top"/>
  <outline>
    <contour>
      <point x="296" y="0" type="line"/>
      <point x="404" y="0" type="line"/>
      <point x="404" y="596" type="line"/>
      <point x="606" y="596" type="line"/>
      <point x="606" y="700" type="line"/>
      <point x="100" y="700" type="line"/>
      <point x="100" y="596" type="line"/>
      <point x="296" y="596" type="line"/>
    </contour>
  </outline>
</glyph>
<glyph name="U" format="2">
  <advance width="904"/>
  <unicode hex="0055"/>
  <anchor x="452" y="0" name="bottom"/>
  <anchor x="622" y="0" name="ogonek"/>
  <anchor x="452" y="700" name="top"/>
  <anchor x="802" y="700" name="topright"/>
  <outline>
    <contour>
      <point x="452" y="-6" type="curve" smooth="yes"/>
      <point x="615" y="-6"/>
      <point x="734" y="110"/>
      <point x="734" y="269" type="curve" smooth="yes"/>
      <point x="734" y="701" type="line"/>
      <point x="631" y="701" type="line"/>
      <point x="631" y="278" type="line" smooth="yes"/>
      <point x="631" y="177"/>
      <point x="552" y="98"/>
      <point x="452" y="98" type="curve" smooth="yes"/>
      <point x="357" y="98"/>
      <point x="278" y="177"/>
      <point x="278" y="278" type="curve" smooth="yes"/>
      <point x="278" y="701" type="line"/>
      <point x="170" y="701" type="line"/>
      <point x="170" y="269" type="line" smooth="yes"/>
      <point x="170" y="110"/>
      <point x="289" y="-6"/>
    </contour>
  </outline>
</glyph>
<glyph name="V" format="2">
  <advance width="851"/>
  <unicode hex="0056"/>
  <anchor x="426" y="0" name="bottom"/>
  <anchor x="426" y="700" name="top"/>
  <outline>
    <contour>
      <point x="372" y="0" type="line"/>
      <point x="477" y="0" type="line"/>
      <point x="759" y="700" type="line"/>
      <point x="633" y="700" type="line"/>
      <point x="478" y="275" type="line" smooth="yes"/>
      <point x="449" y="196"/>
      <point x="432" y="146"/>
      <point x="419" y="98" type="curve"/>
      <point x="445" y="99" type="line"/>
      <point x="430" y="146"/>
      <point x="414" y="192"/>
      <point x="382" y="275" type="curve" smooth="yes"/>
      <point x="215" y="700" type="line"/>
      <point x="92" y="700" type="line"/>
    </contour>
  </outline>
</glyph>
<glyph name="W" format="2">
  <advance width="1132"/>
  <unicode hex="0057"/>
  <anchor x="566" y="0" name="bottom"/>
  <anchor x="566" y="700" name="top"/>
  <outline>
    <contour>
      <point x="315" y="0" type="line"/>
      <point x="388" y="0" type="line"/>
      <point x="566" y="434" type="line"/>
      <point x="557" y="438" type="line"/>
      <point x="742" y="0" type="line"/>
      <point x="817" y="0" type="line"/>
      <point x="1040" y="700" type="line"/>
      <point x="924" y="700" type="line"/>
      <point x="791" y="265" type="line" smooth="yes"/>
      <point x="764" y="177"/>
      <point x="773" y="203"/>
      <point x="756" y="112" type="curve"/>
      <point x="782" y="119" type="line"/>
      <point x="768" y="171"/>
      <point x="758" y="214"/>
      <point x="738" y="263" type="curve" smooth="yes"/>
      <point x="616" y="579" type="line"/>
      <point x="519" y="579" type="line"/>
      <point x="393" y="263" type="line" smooth="yes"/>
      <point x="385" y="242"/>
      <point x="376" y="215"/>
      <point x="347" y="110" type="curve"/>
      <point x="376" y="109" type="line"/>
      <point x="369" y="140"/>
      <point x="357" y="218"/>
      <point x="342" y="262" type="curve" smooth="yes"/>
      <point x="207" y="700" type="line"/>
      <point x="92" y="700" type="line"/>
    </contour>
  </outline>
</glyph>
<glyph name="X" format="2">
  <advance width="821"/>
  <unicode hex="0058"/>
  <anchor x="411" y="0" name="bottom"/>
  <anchor x="411" y="700" name="top"/>
  <outline>
    <contour>
      <point x="592" y="0" type="line"/>
      <point x="729" y="0" type="line"/>
      <point x="446" y="390" type="line"/>
      <point x="234" y="700" type="line"/>
      <point x="97" y="700" type="line"/>
      <point x="375" y="314" type="line"/>
    </contour>
    <contour>
      <point x="92" y="0" type="line"/>
      <point x="219" y="0" type="line"/>
      <point x="426" y="302" type="line"/>
      <point x="359" y="381" type="line"/>
    </contour>
    <contour>
      <point x="462" y="325" type="line"/>
      <point x="719" y="700" type="line"/>
      <point x="592" y="700" type="line"/>
      <point x="396" y="401" type="line"/>
    </contour>
  </outline>
</glyph>
<glyph name="Y" format="2">
  <advance width="800"/>
  <unicode hex="0059"/>
  <anchor x="400" y="0" name="bottom"/>
  <anchor x="400" y="700" name="top"/>
  <anchor x="90" y="700" name="topleft"/>
  <outline>
    <contour>
      <point x="356" y="0" type="line"/>
      <point x="464" y="0" type="line"/>
      <point x="464" y="357" type="line"/>
      <point x="449" y="289" type="line"/>
      <point x="720" y="700" type="line"/>
      <point x="596" y="700" type="line"/>
      <point x="401" y="393" type="line"/>
      <point x="426" y="390" type="line"/>
      <point x="210" y="700" type="line"/>
      <point x="80" y="700" type="line"/>
      <point x="363" y="300" type="line"/>
      <point x="356" y="349" type="line"/>
    </contour>
  </outline>
</glyph>
<glyph name="Z" format="2">
  <advance width="744"/>
  <unicode hex="005A"/>
  <anchor x="370" y="0" name="bottom"/>
  <anchor x="370" y="350" name="center"/>
  <anchor x="370" y="700" name="top"/>
  <outline>
    <contour>
      <point x="100" y="0" type="line"/>
      <point x="644" y="0" type="line"/>
      <point x="644" y="104" type="line"/>
      <point x="220" y="104" type="line"/>
      <point x="236" y="87" type="line"/>
      <point x="633" y="622" type="line"/>
      <point x="633" y="700" type="line"/>
      <point x="126" y="700" type="line"/>
      <point x="126" y="596" type="line"/>
      <point x="514" y="596" type="line"/>
      <point x="499" y="613" type="line"/>
      <point x="100" y="79" type="line"/>
    </contour>
  </outline>
</glyph>
<glyph name="bracketright" format="2">
  <advance width="507"/>
  <unicode hex="005D"/>
  <outline>
    <contour>
      <point x="100" y="-190" type="line"/>
      <point x="357" y="-190" type="line"/>
      <point x="357" y="700" type="line"/>
      <point x="100" y="700" type="line"/>
      <point x="100" y="621" type="line"/>
      <point x="274" y="621" type="line"/>
      <point x="264" y="633" type="line"/>
      <point x="264" y="-119" type="line"/>
      <point x="270" y="-111" type="line"/>
      <point x="100" y="-111" type="line"/>
    </contour>
  </outline>
</glyph>
<glyph name="asciicircum" format="2">
  <advance width="702"/>
  <unicode hex="005E"/>
  <outline>
    <contour>
      <point x="90" y="368" type="line"/>
      <point x="203" y="368" type="line"/>
      <point x="362" y="636" type="line"/>
      <point x="342" y="633" type="line"/>
      <point x="497" y="368" type="line"/>
      <point x="612" y="368" type="line"/>
      <point x="401" y="727" type="line"/>
      <point x="301" y="727" type="line"/>
    </contour>
  </outline>
</glyph>
<glyph name="underscore" format="2">
  <advance width="834"/>
  <unicode hex="005F"/>
  <outline>
    <contour>
      <point x="125" y="-160" type="line"/>
      <point x="709" y="-160" type="line"/>
      <point x="709" y="-82" type="line"/>
      <point x="125" y="-82" type="line"/>
    </contour>
  </outline>
</glyph>
<glyph name="a" format="2">
  <advance width="843"/>
  <unicode hex="0061"/>
  <anchor x="399" y="0" name="bottom"/>
  <anchor x="643" y="0" name="ogonek"/>
  <anchor x="399" y="525" name="top"/>
  <outline>
    <contour>
      <point x="356" y="-10" type="curve" smooth="yes"/>
      <point x="457" y="-10"/>
      <point x="547" y="60"/>
      <point x="563" y="132" type="curve"/>
      <point x="539" y="125" type="line"/>
      <point x="539" y="0" type="line"/>
      <point x="643" y="0" type="line"/>
      <point x="643" y="525" type="line"/>
      <point x="539" y="525" type="line"/>
      <point x="539" y="389" type="line"/>
      <point x="562" y="381" type="line"/>
      <point x="550" y="466"/>
      <point x="473" y="536"/>
      <point x="365" y="536" type="curve" smooth="yes"/>
      <point x="228" y="536"/>
      <point x="120" y="423"/>
      <point x="120" y="264" type="curve" smooth="yes"/>
      <point x="120" y="108"/>
      <point x="225" y="-10"/>
    </contour>
    <contour>
      <point x="383" y="85" type="curve" smooth="yes"/>
      <point x="291" y="85"/>
      <point x="225" y="160"/>
      <point x="225" y="264" type="curve" smooth="yes"/>
      <point x="225" y="367"/>
      <point x="291" y="441"/>
      <point x="383" y="441" type="curve" smooth="yes"/>
      <point x="476" y="441"/>
      <point x="543" y="367"/>
      <point x="543" y="264" type="curve" smooth="yes"/>
      <point x="543" y="160"/>
      <point x="476" y="85"/>
    </contour>
  </outline>
</glyph>
<glyph name="b" format="2">
  <advance width="868"/>
  <unicode hex="0062"/>
  <anchor x="463" y="0" name="bottom"/>
  <anchor x="463" y="740" name="top"/>
  <outline>
    <contour>
      <point x="496" y="-10" type="curve" smooth="yes"/>
      <point x="635" y="-10"/>
      <point x="738" y="107"/>
      <point x="738" y="264" type="curve" smooth="yes"/>
      <point x="738" y="423"/>
      <point x="634" y="536"/>
      <point x="493" y="536" type="curve" smooth="yes"/>
      <point x="408" y="536"/>
      <point x="319" y="474"/>
      <point x="307" y="414" type="curve"/>
      <point x="323" y="405" type="line"/>
      <point x="323" y="740" type="line"/>
      <point x="220" y="740" type="line"/>
      <point x="220" y="3" type="line"/>
      <point x="323" y="3" type="line"/>
      <point x="323" y="131" type="line"/>
      <point x="297" y="117" type="line"/>
      <point x="312" y="56"/>
      <point x="404" y="-10"/>
    </contour>
    <contour>
      <point x="479" y="84" type="curve" smooth="yes"/>
      <point x="386" y="84"/>
      <point x="318" y="160"/>
      <point x="318" y="264" type="curve" smooth="yes"/>
      <point x="318" y="367"/>
      <point x="386" y="442"/>
      <point x="479" y="442" type="curve" smooth="yes"/>
      <point x="572" y="442"/>
      <point x="639" y="367"/>
      <point x="639" y="264" type="curve" smooth="yes"/>
      <point x="639" y="160"/>
      <point x="571" y="84"/>
    </contour>
  </outline>
</glyph>
<glyph name="c" format="2">
  <advance width="730"/>
  <unicode hex="0063"/>
  <anchor x="386" y="0" name="bottom"/>
  <anchor x="386" y="525" name="top"/>
  <outline>
    <contour>
      <point x="385" y="-10" type="curve" smooth="yes"/>
      <point x="470" y="-10"/>
      <point x="557" y="33"/>
      <point x="600" y="93" type="curve"/>
      <point x="543" y="163" type="line"/>
      <point x="500" y="111"/>
      <point x="449" y="83"/>
      <point x="396" y="83" type="curve" smooth="yes"/>
      <point x="304" y="83"/>
      <point x="228" y="162"/>
      <point x="228" y="263" type="curve" smooth="yes"/>
      <point x="228" y="366"/>
      <point x="299" y="443"/>
      <point x="395" y="443" type="curve" smooth="yes"/>
      <point x="447" y="443"/>
      <point x="511" y="407"/>
      <point x="543" y="360" type="curve"/>
      <point x="600" y="430" type="line"/>
      <point x="560" y="495"/>
      <point x="478" y="536"/>
      <point x="385" y="536" type="curve" smooth="yes"/>
      <point x="240" y="536"/>
      <point x="130" y="418"/>
      <point x="130" y="263" type="curve" smooth="yes"/>
      <point x="130" y="108"/>
      <point x="240" y="-10"/>
    </contour>
  </outline>
</glyph>
<glyph name="d" format="2">
  <advance width="824"/>
  <unicode hex="0064"/>
  <anchor x="397" y="0" name="bottom"/>
  <anchor x="580" y="634" name="center"/>
  <anchor x="397" y="740" name="top"/>
  <anchor x="674" y="740" name="topright"/>
  <outline>
    <contour>
      <point x="371" y="-10" type="curve" smooth="yes"/>
      <point x="468" y="-10"/>
      <point x="561" y="62"/>
      <point x="561" y="125" type="curve"/>
      <point x="541" y="125" type="line"/>
      <point x="541" y="0" type="line"/>
      <point x="644" y="0" type="line"/>
      <point x="644" y="740" type="line"/>
      <point x="541" y="740" type="line"/>
      <point x="541" y="389" type="line"/>
      <point x="571" y="391" type="line"/>
      <point x="571" y="460"/>
      <point x="473" y="536"/>
      <point x="368" y="536" type="curve" smooth="yes"/>
      <point x="227" y="536"/>
      <point x="120" y="420"/>
      <point x="120" y="263" type="curve" smooth="yes"/>
      <point x="120" y="106"/>
      <point x="227" y="-10"/>
    </contour>
    <contour>
      <point x="385" y="79" type="curve" smooth="yes"/>
      <point x="292" y="79"/>
      <point x="225" y="156"/>
      <point x="225" y="263" type="curve" smooth="yes"/>
      <point x="225" y="370"/>
      <point x="292" y="447"/>
      <point x="385" y="447" type="curve" smooth="yes"/>
      <point x="478" y="447"/>
      <point x="545" y="370"/>
      <point x="545" y="263" type="curve" smooth="yes"/>
      <point x="545" y="156"/>
      <point x="478" y="79"/>
    </contour>
  </outline>
</glyph>
<glyph name="e" format="2">
  <advance width="771"/>
  <unicode hex="0065"/>
  <anchor x="399" y="0" name="bottom"/>
  <anchor x="579" y="0" name="ogonek"/>
  <anchor x="388" y="525" name="top"/>
  <outline>
    <contour>
      <point x="397" y="-10" type="curve" smooth="yes"/>
      <point x="471" y="-10"/>
      <point x="555" y="24"/>
      <point x="604" y="71" type="curve"/>
      <point x="552" y="144" type="line"/>
      <point x="500" y="99"/>
      <point x="459" y="84"/>
      <point x="407" y="84" type="curve" smooth="yes"/>
      <point x="296" y="84"/>
      <point x="222" y="155"/>
      <point x="222" y="264" type="curve" smooth="yes"/>
      <point x="222" y="380"/>
      <point x="280" y="442"/>
      <point x="388" y="442" type="curve" smooth="yes"/>
      <point x="456" y="442"/>
      <point x="514" y="392"/>
      <point x="521" y="327" type="curve"/>
      <point x="521" y="303" type="line"/>
      <point x="536" y="320" type="line"/>
      <point x="173" y="320" type="line"/>
      <point x="196" y="238" type="line"/>
      <point x="625" y="238" type="line"/>
      <point x="626" y="282" type="line" smooth="yes"/>
      <point x="629" y="429"/>
      <point x="524" y="536"/>
      <point x="388" y="537" type="curve" smooth="yes"/>
      <point x="232" y="536"/>
      <point x="120" y="422"/>
      <point x="120" y="257" type="curve" smooth="yes"/>
      <point x="120" y="101"/>
      <point x="234" y="-10"/>
    </contour>
  </outline>
</glyph>
<glyph name="f" format="2">
  <advance width="590"/>
  <unicode hex="0066"/>
  <anchor x="297" y="0" name="bottom"/>
  <anchor x="297" y="740" name="top"/>
  <outline>
    <contour>
      <point x="229" y="0" type="line"/>
      <point x="246" y="0"/>
      <point x="264" y="0"/>
      <point x="281" y="0" type="curve" smooth="yes"/>
      <point x="333" y="0" type="line"/>
      <point x="333" y="584" type="line" smooth="yes"/>
      <point x="333" y="623"/>
      <point x="354" y="643"/>
      <point x="397" y="643" type="curve" smooth="yes"/>
      <point x="416" y="643"/>
      <point x="438" y="632"/>
      <point x="455" y="616" type="curve"/>
      <point x="490" y="695" type="line"/>
      <point x="467" y="722"/>
      <point x="428" y="739"/>
      <point x="385" y="739" type="curve" smooth="yes"/>
      <point x="293" y="739"/>
      <point x="229" y="675"/>
      <point x="229" y="584" type="curve" smooth="yes"/>
    </contour>
    <contour>
      <point x="145" y="421" type="line"/>
      <point x="457" y="421" type="line"/>
      <point x="457" y="516" type="line"/>
      <point x="145" y="516" type="line"/>
    </contour>
  </outline>
</glyph>
<glyph name="g" format="2">
  <advance width="867"/>
  <unicode hex="0067"/>
  <anchor x="415" y="-230" name="bottom"/>
  <anchor x="415" y="525" name="top"/>
  <outline>
    <contour>
      <point x="397" y="-230" type="curve" smooth="yes"/>
      <point x="565" y="-230"/>
      <point x="667" y="-135"/>
      <point x="667" y="32" type="curve" smooth="yes"/>
      <point x="667" y="525" type="line"/>
      <point x="564" y="525" type="line"/>
      <point x="564" y="402" type="line"/>
      <point x="586" y="410" type="line"/>
      <point x="577" y="465"/>
      <point x="486" y="536"/>
      <point x="387" y="536" type="curve" smooth="yes"/>
      <point x="240" y="536"/>
      <point x="130" y="420"/>
      <point x="130" y="263" type="curve" smooth="yes"/>
      <point x="130" y="106"/>
      <point x="241" y="-10"/>
      <point x="390" y="-10" type="curve" smooth="yes"/>
      <point x="477" y="-10"/>
      <point x="566" y="53"/>
      <point x="575" y="114" type="curve"/>
      <point x="564" y="121" type="line"/>
      <point x="564" y="20" type="line" smooth="yes"/>
      <point x="564" y="-84"/>
      <point x="506" y="-138"/>
      <point x="397" y="-138" type="curve" smooth="yes"/>
      <point x="338" y="-138"/>
      <point x="274" y="-118"/>
      <point x="234" y="-87" type="curve"/>
      <point x="196" y="-167" type="line"/>
      <point x="241" y="-204"/>
      <point x="322" y="-230"/>
    </contour>
    <contour>
      <point x="401" y="85" type="curve" smooth="yes"/>
      <point x="305" y="85"/>
      <point x="235" y="160"/>
      <point x="235" y="263" type="curve" smooth="yes"/>
      <point x="235" y="366"/>
      <point x="305" y="442"/>
      <point x="401" y="442" type="curve" smooth="yes"/>
      <point x="498" y="442"/>
      <point x="568" y="367"/>
      <point x="568" y="263" type="curve" smooth="yes"/>
      <point x="568" y="159"/>
      <point x="500" y="85"/>
    </contour>
  </outline>
</glyph>
<glyph name="i" format="2">
  <advance width="538"/>
  <unicode hex="0069"/>
  <anchor x="269" y="0" name="bottom"/>
  <anchor x="322" y="0" name="ogonek"/>
  <anchor x="269" y="710" name="top"/>
  <outline>
    <contour>
      <point x="219" y="0" type="line"/>
      <point x="322" y="0" type="line"/>
      <point x="322" y="525" type="line"/>
      <point x="219" y="525" type="line"/>
    </contour>
    <contour>
      <point x="269" y="651" type="curve" smooth="yes"/>
      <point x="312" y="651"/>
      <point x="338" y="677"/>
      <point x="338" y="716" type="curve" smooth="yes"/>
      <point x="338" y="757"/>
      <point x="313" y="781"/>
      <point x="269" y="781" type="curve" smooth="yes"/>
      <point x="226" y="781"/>
      <point x="200" y="755"/>
      <point x="200" y="716" type="curve" smooth="yes"/>
      <point x="200" y="675"/>
      <point x="225" y="651"/>
    </contour>
  </outline>
</glyph>
<glyph name="j" format="2">
  <advance width="519"/>
  <unicode hex="006A"/>
  <anchor x="253" y="-230" name="bottom"/>
  <anchor x="255" y="710" name="top"/>
  <outline>
    <contour>
      <point x="129" y="-197" type="line"/>
      <point x="236" y="-197"/>
      <point x="309" y="-127"/>
      <point x="309" y="-24" type="curve" smooth="yes"/>
      <point x="309" y="525" type="line"/>
      <point x="206" y="525" type="line"/>
      <point x="206" y="1" type="line" smooth="yes"/>
      <point x="206" y="-78"/>
      <point x="167" y="-118"/>
      <point x="90" y="-118" type="curve"/>
    </contour>
    <contour>
      <point x="255" y="651" type="curve" smooth="yes"/>
      <point x="298" y="651"/>
      <point x="324" y="677"/>
      <point x="324" y="716" type="curve" smooth="yes"/>
      <point x="324" y="757"/>
      <point x="299" y="781"/>
      <point x="255" y="781" type="curve" smooth="yes"/>
      <point x="212" y="781"/>
      <point x="186" y="755"/>
      <point x="186" y="716" type="curve" smooth="yes"/>
      <point x="186" y="675"/>
      <point x="211" y="651"/>
    </contour>
  </outline>
</glyph>
<glyph name="k" format="2">
  <advance width="831"/>
  <unicode hex="006B"/>
  <anchor x="431" y="0" name="bottom"/>
  <anchor x="431" y="740" name="top"/>
  <outline>
    <contour>
      <point x="314" y="164" type="line"/>
      <point x="699" y="525" type="line"/>
      <point x="560" y="525" type="line"/>
      <point x="309" y="276" type="line"/>
    </contour>
    <contour>
      <point x="220" y="0" type="line"/>
      <point x="323" y="0" type="line"/>
      <point x="323" y="740" type="line"/>
      <point x="220" y="740" type="line"/>
    </contour>
    <contour>
      <point x="574" y="0" type="line"/>
      <point x="706" y="0" type="line"/>
      <point x="449" y="298" type="line"/>
      <point x="376" y="231" type="line"/>
    </contour>
  </outline>
</glyph>
<glyph name="m" format="2">
  <advance width="1185"/>
  <unicode hex="006D"/>
  <anchor x="591" y="0" name="bottom"/>
  <anchor x="591" y="525" name="top"/>
  <outline>
    <contour>
      <point x="200" y="0" type="line"/>
      <point x="304" y="0" type="line"/>
      <point x="304" y="316" type="line" smooth="yes"/>
      <point x="304" y="385"/>
      <point x="361" y="439"/>
      <point x="436" y="439" type="curve" smooth="yes"/>
      <point x="503" y="439"/>
      <point x="539" y="394"/>
      <point x="539" y="311" type="curve" smooth="yes"/>
      <point x="539" y="0" type="line"/>
      <point x="643" y="0" type="line"/>
      <point x="643" y="314" type="line" smooth="yes"/>
      <point x="643" y="385"/>
      <point x="700" y="439"/>
      <point x="776" y="439" type="curve" smooth="yes"/>
      <point x="848" y="439"/>
      <point x="881" y="398"/>
      <point x="881" y="309" type="curve" smooth="yes"/>
      <point x="881" y="0" type="line"/>
      <point x="985" y="0" type="line"/>
      <point x="985" y="315" type="line" smooth="yes"/>
      <point x="985" y="462"/>
      <point x="927" y="534"/>
      <point x="810" y="534" type="curve" smooth="yes"/>
      <point x="737" y="534"/>
      <point x="656" y="481"/>
      <point x="627" y="420" type="curve" smooth="yes"/>
      <point x="620" y="403" type="line"/>
      <point x="636" y="399" type="line"/>
      <point x="616" y="488"/>
      <point x="560" y="534"/>
      <point x="469" y="534" type="curve" smooth="yes"/>
      <point x="386" y="534"/>
      <point x="305" y="470"/>
      <point x="285" y="401" type="curve"/>
      <point x="304" y="413" type="line"/>
      <point x="304" y="525" type="line"/>
      <point x="200" y="525" type="line"/>
    </contour>
  </outline>
</glyph>
<glyph name="n" format="2">
  <advance width="895"/>
  <unicode hex="006E"/>
  <anchor x="446" y="0" name="bottom"/>
  <anchor x="476" y="525" name="top"/>
  <outline>
    <contour>
      <point x="220" y="0" type="line"/>
      <point x="237" y="0"/>
      <point x="255" y="0"/>
      <point x="272" y="0" type="curve" smooth="yes"/>
      <point x="323" y="0" type="line"/>
      <point x="323" y="318" type="line" smooth="yes"/>
      <point x="323" y="387"/>
      <point x="382" y="442"/>
      <point x="461" y="442" type="curve" smooth="yes"/>
      <point x="536" y="446"/>
      <point x="572" y="404"/>
      <point x="572" y="313" type="curve" smooth="yes"/>
      <point x="572" y="0" type="line"/>
      <point x="675" y="0" type="line"/>
      <point x="675" y="320" type="line" smooth="yes"/>
      <point x="675" y="465"/>
      <point x="615" y="536"/>
      <point x="495" y="536" type="curve" smooth="yes"/>
      <point x="411" y="536"/>
      <point x="325" y="474"/>
      <point x="305" y="405" type="curve"/>
      <point x="323" y="417" type="line"/>
      <point x="323" y="525" type="line"/>
      <point x="220" y="525" type="line"/>
    </contour>
  </outline>
</glyph>
<glyph name="o" format="2">
  <advance width="795"/>
  <unicode hex="006F"/>
  <anchor x="398" y="0" name="bottom"/>
  <anchor x="398" y="263" name="center"/>
  <anchor x="551" y="0" name="ogonek"/>
  <anchor x="398" y="525" name="top"/>
  <anchor x="685" y="525" name="topright"/>
  <outline>
    <contour>
      <point x="398" y="-10" type="curve" smooth="yes"/>
      <point x="550" y="-10"/>
      <point x="665" y="106"/>
      <point x="665" y="263" type="curve" smooth="yes"/>
      <point x="665" y="420"/>
      <point x="550" y="536"/>
      <point x="398" y="536" type="curve" smooth="yes"/>
      <point x="245" y="536"/>
      <point x="130" y="420"/>
      <point x="130" y="263" type="curve" smooth="yes"/>
      <point x="130" y="106"/>
      <point x="245" y="-10"/>
    </contour>
    <contour>
      <point x="398" y="84" type="curve" smooth="yes"/>
      <point x="303" y="84"/>
      <point x="234" y="160"/>
      <point x="235" y="263" type="curve" smooth="yes"/>
      <point x="234" y="366"/>
      <point x="303" y="442"/>
      <point x="398" y="442" type="curve" smooth="yes"/>
      <point x="493" y="442"/>
      <point x="561" y="367"/>
      <point x="560" y="263" type="curve" smooth="yes"/>
      <point x="561" y="160"/>
      <point x="493" y="84"/>
    </contour>
  </outline>
</glyph>
<glyph name="q" format="2">
  <advance width="832"/>
  <unicode hex="0071"/>
  <anchor x="395" y="0" name="bottom"/>
  <anchor x="395" y="525" name="top"/>
  <outline>
    <contour>
      <point x="535" y="-220" type="line"/>
      <point x="638" y="-220" type="line"/>
      <point x="638" y="526" type="line"/>
      <point x="535" y="526" type="line"/>
      <point x="535" y="389" type="line"/>
      <point x="565" y="391" type="line"/>
      <point x="565" y="459"/>
      <point x="468" y="536"/>
      <point x="365" y="536" type="curve" smooth="yes"/>
      <point x="225" y="536"/>
      <point x="120" y="420"/>
      <point x="120" y="263" type="curve" smooth="yes"/>
      <point x="120" y="106"/>
      <point x="227" y="-10"/>
      <point x="368" y="-10" type="curve" smooth="yes"/>
      <point x="460" y="-10"/>
      <point x="555" y="62"/>
      <point x="555" y="125" type="curve"/>
      <point x="535" y="125" type="line"/>
    </contour>
    <contour>
      <point x="379" y="85" type="curve" smooth="yes"/>
      <point x="286" y="85"/>
      <point x="219" y="160"/>
      <point x="219" y="263" type="curve" smooth="yes"/>
      <point x="219" y="366"/>
      <point x="286" y="442"/>
      <point x="379" y="442" type="curve" smooth="yes"/>
      <point x="472" y="442"/>
      <point x="539" y="367"/>
      <point x="539" y="263" type="curve" smooth="yes"/>
      <point x="539" y="159"/>
      <point x="472" y="85"/>
    </contour>
  </outline>
</glyph>
<glyph name="r" format="2">
  <advance width="661"/>
  <unicode hex="0072"/>
  <anchor x="269" y="0" name="bottom"/>
  <anchor x="390" y="525" name="top"/>
  <outline>
    <contour>
      <point x="220" y="0" type="line"/>
      <point x="324" y="0" type="line"/>
      <point x="324" y="290" type="line" smooth="yes"/>
      <point x="324" y="366"/>
      <point x="387" y="426"/>
      <point x="459" y="426" type="curve" smooth="yes"/>
      <point x="478" y="426"/>
      <point x="498" y="421"/>
      <point x="514" y="414" type="curve"/>
      <point x="541" y="526" type="line"/>
      <point x="529" y="531"/>
      <point x="507" y="536"/>
      <point x="484" y="536" type="curve" smooth="yes"/>
      <point x="411" y="536"/>
      <point x="337" y="476"/>
      <point x="314" y="400" type="curve"/>
      <point x="324" y="360" type="line"/>
      <point x="324" y="525" type="line"/>
      <point x="220" y="525" type="line"/>
    </contour>
  </outline>
</glyph>
<glyph name="s" format="2">
  <advance width="637"/>
  <unicode hex="0073"/>
  <anchor x="320" y="0" name="bottom"/>
  <anchor x="320" y="525" name="top"/>
  <outline>
    <contour>
      <point x="327" y="-10" type="curve" smooth="yes"/>
      <point x="432" y="-10"/>
      <point x="517" y="55"/>
      <point x="517" y="146" type="curve" smooth="yes"/>
      <point x="517" y="187"/>
      <point x="507" y="220"/>
      <point x="481" y="246" type="curve" smooth="yes"/>
      <point x="455" y="272"/>
      <point x="413" y="293"/>
      <point x="347" y="310" type="curve" smooth="yes"/>
      <point x="302" y="321"/>
      <point x="272" y="333"/>
      <point x="258" y="344" type="curve" smooth="yes"/>
      <point x="244" y="355"/>
      <point x="237" y="370"/>
      <point x="236" y="388" type="curve" smooth="yes"/>
      <point x="236" y="429"/>
      <point x="269" y="451"/>
      <point x="326" y="451" type="curve" smooth="yes"/>
      <point x="365" y="451"/>
      <point x="416" y="426"/>
      <point x="455" y="387" type="curve"/>
      <point x="514" y="452" type="line"/>
      <point x="471" y="504"/>
      <point x="396" y="536"/>
      <point x="321" y="536" type="curve" smooth="yes"/>
      <point x="216" y="536"/>
      <point x="133" y="473"/>
      <point x="133" y="385" type="curve" smooth="yes"/>
      <point x="133" y="349"/>
      <point x="142" y="319"/>
      <point x="162" y="294" type="curve" smooth="yes"/>
      <point x="189" y="262"/>
      <point x="237" y="237"/>
      <point x="314" y="217" type="curve" smooth="yes"/>
      <point x="359" y="205"/>
      <point x="388" y="194"/>
      <point x="401" y="184" type="curve" smooth="yes"/>
      <point x="414" y="173"/>
      <point x="420" y="159"/>
      <point x="420" y="142" type="curve" smooth="yes"/>
      <point x="420" y="101"/>
      <point x="385" y="75"/>
      <point x="336" y="75" type="curve" smooth="yes"/>
      <point x="276" y="75"/>
      <point x="230" y="94"/>
      <point x="190" y="141" type="curve"/>
      <point x="120" y="81" type="line"/>
      <point x="167" y="21"/>
      <point x="239" y="-10"/>
    </contour>
  </outline>
</glyph>
<glyph name="t" format="2">
  <advance width="609"/>
  <unicode hex="0074"/>
  <anchor x="289" y="0" name="bottom"/>
  <anchor x="289" y="263" name="center"/>
  <anchor x="289" y="525" name="top"/>
  <anchor x="366" y="787" name="topright"/>
  <outline>
    <contour>
      <point x="234" y="0" type="line"/>
      <point x="337" y="0" type="line"/>
      <point x="337" y="659" type="line"/>
      <point x="234" y="659" type="line"/>
    </contour>
    <contour>
      <point x="125" y="425" type="line"/>
      <point x="459" y="425" type="line"/>
      <point x="459" y="525" type="line"/>
      <point x="125" y="525" type="line"/>
    </contour>
  </outline>
</glyph>
<glyph name="u" format="2">
  <advance width="861"/>
  <unicode hex="0075"/>
  <anchor x="431" y="0" name="bottom"/>
  <anchor x="661" y="0" name="ogonek"/>
  <anchor x="431" y="525" name="top"/>
  <anchor x="713" y="525" name="topright"/>
  <outline>
    <contour>
      <point x="384" y="-10" type="curve" smooth="yes"/>
      <point x="473" y="-10"/>
      <point x="552" y="47"/>
      <point x="576" y="122" type="curve"/>
      <point x="558" y="110" type="line"/>
      <point x="558" y="0" type="line"/>
      <point x="661" y="0" type="line"/>
      <point x="661" y="525" type="line"/>
      <point x="558" y="525" type="line"/>
      <point x="558" y="209" type="line" smooth="yes"/>
      <point x="558" y="133"/>
      <point x="502" y="80"/>
      <point x="426" y="80" type="curve" smooth="yes"/>
      <point x="349" y="80"/>
      <point x="303" y="137"/>
      <point x="303" y="229" type="curve" smooth="yes"/>
      <point x="303" y="525" type="line"/>
      <point x="200" y="525" type="line"/>
      <point x="200" y="201" type="line" smooth="yes"/>
      <point x="200" y="72"/>
      <point x="272" y="-10"/>
    </contour>
  </outline>
</glyph>
<glyph name="w" format="2">
  <advance width="926"/>
  <unicode hex="0077"/>
  <anchor x="463" y="0" name="bottom"/>
  <anchor x="463" y="525" name="top"/>
  <outline>
    <contour>
      <point x="264" y="0" type="line"/>
      <point x="334" y="0" type="line"/>
      <point x="470" y="331" type="line"/>
      <point x="447" y="334" type="line"/>
      <point x="593" y="0" type="line"/>
      <point x="664" y="0" type="line"/>
      <point x="841" y="525" type="line"/>
      <point x="737" y="525" type="line"/>
      <point x="608" y="132" type="line"/>
      <point x="635" y="134" type="line"/>
      <point x="495" y="442" type="line"/>
      <point x="433" y="442" type="line"/>
      <point x="294" y="135" type="line"/>
      <point x="317" y="133" type="line"/>
      <point x="189" y="526" type="line"/>
      <point x="85" y="525" type="line"/>
    </contour>
  </outline>
</glyph>
<glyph name="x" format="2">
  <advance width="833"/>
  <unicode hex="0078"/>
  <anchor x="417" y="0" name="bottom"/>
  <anchor x="417" y="525" name="top"/>
  <outline>
    <contour>
      <point x="557" y="0" type="line"/>
      <point x="683" y="0" type="line"/>
      <point x="465" y="285" type="line"/>
      <point x="448" y="307" type="line"/>
      <point x="281" y="525" type="line"/>
      <point x="151" y="525" type="line"/>
      <point x="372" y="240" type="line"/>
      <point x="387" y="221" type="line"/>
    </contour>
    <contour>
      <point x="152" y="0" type="line"/>
      <point x="274" y="0" type="line"/>
      <point x="420" y="197" type="line"/>
      <point x="359" y="270" type="line"/>
    </contour>
    <contour>
      <point x="471" y="254" type="line"/>
      <point x="665" y="525" type="line"/>
      <point x="543" y="525" type="line"/>
      <point x="414" y="326" type="line"/>
    </contour>
  </outline>
</glyph>
<glyph name="y" format="2">
  <advance width="791"/>
  <unicode hex="0079"/>
  <anchor x="396" y="0" name="bottom"/>
  <anchor x="396" y="525" name="top"/>
  <outline>
    <contour>
      <point x="265" y="-230" type="line"/>
      <point x="376" y="-230" type="line"/>
      <point x="465" y="0" type="line"/>
      <point x="681" y="525" type="line"/>
      <point x="559" y="525" type="line"/>
      <point x="422" y="146" type="line" smooth="yes"/>
      <point x="412" y="118"/>
      <point x="402" y="90"/>
      <point x="392" y="62" type="curve"/>
      <point x="418" y="68" type="line"/>
      <point x="411" y="94"/>
      <point x="400" y="126"/>
      <point x="394" y="139" type="curve" smooth="yes"/>
      <point x="230" y="525" type="line"/>
      <point x="110" y="525" type="line"/>
      <point x="372" y="-67" type="line"/>
      <point x="371" y="15" type="line"/>
    </contour>
  </outline>
</glyph>
<glyph name="z" format="2">
  <advance width="589"/>
  <unicode hex="007A"/>
  <anchor x="292" y="0" name="bottom"/>
  <anchor x="292" y="263" name="center"/>
  <anchor x="292" y="525" name="top"/>
  <outline>
    <contour>
      <point x="100" y="0" type="line"/>
      <point x="489" y="0" type="line"/>
      <point x="489" y="89" type="line"/>
      <point x="212" y="89" type="line"/>
      <point x="216" y="84" type="line"/>
      <point x="483" y="441" type="line"/>
      <point x="483" y="525" type="line"/>
      <point x="100" y="525" type="line"/>
      <point x="100" y="436" type="line"/>
      <point x="371" y="436" type="line"/>
      <point x="371" y="448" type="line"/>
      <point x="100" y="86" type="line"/>
    </contour>
  </outline>
</glyph>
<glyph name="braceleft" format="2">
  <advance width="618"/>
  <unicode hex="007B"/>
  <outline>
    <contour>
      <point x="475" y="-200" type="curve"/>
      <point x="493" y="-131" type="line"/>
      <point x="406" y="-102"/>
      <point x="381" y="-74"/>
      <point x="381" y="7" type="curve" smooth="yes"/>
      <point x="383" y="102" type="line" smooth="yes"/>
      <point x="383" y="178"/>
      <point x="347" y="229"/>
      <point x="279" y="252" type="curve"/>
      <point x="280" y="249" type="line"/>
      <point x="347" y="269"/>
      <point x="383" y="321"/>
      <point x="383" y="398" type="curve" smooth="yes"/>
      <point x="381" y="493" type="line" smooth="yes"/>
      <point x="381" y="576"/>
      <point x="408" y="603"/>
      <point x="493" y="631" type="curve"/>
      <point x="475" y="700" type="line"/>
      <point x="343" y="672"/>
      <point x="290" y="616"/>
      <point x="290" y="507" type="curve" smooth="yes"/>
      <point x="291" y="412" type="line" smooth="yes"/>
      <point x="291" y="333"/>
      <point x="258" y="289"/>
      <point x="195" y="288" type="curve" smooth="yes"/>
      <point x="150" y="288" type="line"/>
      <point x="150" y="212" type="line"/>
      <point x="193" y="212" type="line" smooth="yes"/>
      <point x="256" y="211"/>
      <point x="291" y="165"/>
      <point x="291" y="88" type="curve" smooth="yes"/>
      <point x="290" y="-7" type="line" smooth="yes"/>
      <point x="290" y="-120"/>
      <point x="344" y="-173"/>
    </contour>
  </outline>
</glyph>
<glyph name="bar" format="2">
  <advance width="477"/>
  <unicode hex="007C"/>
  <outline>
    <contour>
      <point x="190" y="-193" type="line"/>
      <point x="287" y="-193" type="line"/>
      <point x="287" y="740" type="line"/>
      <point x="190" y="740" type="line"/>
    </contour>
  </outline>
</glyph>
<glyph name="braceright" format="2">
  <advance width="618"/>
  <unicode hex="007D"/>
  <outline>
    <contour>
      <point x="143" y="-200" type="line"/>
      <point x="275" y="-172"/>
      <point x="328" y="-116"/>
      <point x="328" y="-7" type="curve" smooth="yes"/>
      <point x="327" y="88" type="line" smooth="yes"/>
      <point x="327" y="167"/>
      <point x="360" y="211"/>
      <point x="423" y="212" type="curve" smooth="yes"/>
      <point x="468" y="212" type="line"/>
      <point x="468" y="288" type="line"/>
      <point x="425" y="288" type="line" smooth="yes"/>
      <point x="362" y="289"/>
      <point x="327" y="335"/>
      <point x="327" y="412" type="curve" smooth="yes"/>
      <point x="328" y="507" type="line" smooth="yes"/>
      <point x="328" y="620"/>
      <point x="274" y="673"/>
      <point x="143" y="700" type="curve"/>
      <point x="125" y="631" type="line"/>
      <point x="212" y="602"/>
      <point x="237" y="574"/>
      <point x="237" y="493" type="curve" smooth="yes"/>
      <point x="235" y="398" type="line" smooth="yes"/>
      <point x="235" y="322"/>
      <point x="271" y="271"/>
      <point x="339" y="248" type="curve"/>
      <point x="338" y="251" type="line"/>
      <point x="271" y="231"/>
      <point x="235" y="179"/>
      <point x="235" y="102" type="curve" smooth="yes"/>
      <point x="237" y="7" type="line" smooth="yes"/>
      <point x="237" y="-76"/>
      <point x="210" y="-103"/>
      <point x="125" y="-131" type="curve"/>
    </contour>
  </outline>
</glyph>
<glyph name="asciitilde" format="2">
  <advance width="650"/>
  <unicode hex="007E"/>
  <outline>
    <contour>
      <point x="426" y="225" type="curve" smooth="yes"/>
      <point x="501" y="225"/>
      <point x="540" y="270"/>
      <point x="540" y="354" type="curve"/>
      <point x="466" y="357" type="line"/>
      <point x="469" y="329"/>
      <point x="454" y="309"/>
      <point x="431" y="309" type="curve" smooth="yes"/>
      <point x="414" y="309"/>
      <point x="375" y="324"/>
      <point x="347" y="335" type="curve" smooth="yes"/>
      <point x="317" y="347"/>
      <point x="265" y="369"/>
      <point x="232" y="369" type="curve" smooth="yes"/>
      <point x="153" y="369"/>
      <point x="110" y="318"/>
      <point x="110" y="227" type="curve"/>
      <point x="184" y="227" type="line"/>
      <point x="184" y="264"/>
      <point x="197" y="285"/>
      <point x="221" y="285" type="curve" smooth="yes"/>
      <point x="237" y="285"/>
      <point x="280" y="269"/>
      <point x="309" y="258" type="curve" smooth="yes"/>
      <point x="338" y="247"/>
      <point x="395" y="225"/>
    </contour>
  </outline>
</glyph>
<glyph name="cent" format="2">
  <advance width="730"/>
  <unicode hex="00A2"/>
  <outline>
    <contour>
      <point x="385" y="78" type="curve" smooth="yes"/>
      <point x="470" y="78"/>
      <point x="557" y="121"/>
      <point x="600" y="181" type="curve"/>
      <point x="543" y="251" type="line"/>
      <point x="500" y="199"/>
      <point x="449" y="171"/>
      <point x="396" y="171" type="curve" smooth="yes"/>
      <point x="304" y="171"/>
      <point x="228" y="250"/>
      <point x="228" y="351" type="curve" smooth="yes"/>
      <point x="228" y="454"/>
      <point x="299" y="531"/>
      <point x="395" y="531" type="curve" smooth="yes"/>
      <point x="447" y="531"/>
      <point x="511" y="495"/>
      <point x="543" y="448" type="curve"/>
      <point x="600" y="518" type="line"/>
      <point x="560" y="583"/>
      <point x="478" y="624"/>
      <point x="385" y="624" type="curve" smooth="yes"/>
      <point x="240" y="624"/>
      <point x="130" y="506"/>
      <point x="130" y="351" type="curve" smooth="yes"/>
      <point x="130" y="196"/>
      <point x="240" y="78"/>
    </contour>
    <contour>
      <point x="329" y="0" type="line"/>
      <point x="426" y="0" type="line"/>
      <point x="426" y="107" type="line"/>
      <point x="419" y="141" type="line"/>
      <point x="419" y="572" type="line"/>
      <point x="426" y="605" type="line"/>
      <point x="426" y="700" type="line"/>
      <point x="329" y="700" type="line"/>
      <point x="329" y="606" type="line"/>
      <point x="336" y="563" type="line"/>
      <point x="336" y="145" type="line"/>
      <point x="329" y="108" type="line"/>
    </contour>
  </outline>
</glyph>
<glyph name="currency" format="2">
  <advance width="830"/>
  <unicode hex="00A4"/>
  <outline>
    <contour>
      <point x="419" y="122" type="curve" smooth="yes"/>
      <point x="518" y="122"/>
      <point x="597" y="202"/>
      <point x="597" y="302" type="curve" smooth="yes"/>
      <point x="597" y="401"/>
      <point x="516" y="482"/>
      <point x="419" y="482" type="curve" smooth="yes"/>
      <point x="320" y="482"/>
      <point x="241" y="402"/>
      <point x="241" y="302" type="curve" smooth="yes"/>
      <point x="241" y="202"/>
      <point x="320" y="122"/>
    </contour>
    <contour>
      <point x="269" y="82" type="line"/>
      <point x="361" y="179" type="line"/>
      <point x="290" y="250" type="line"/>
      <point x="198" y="152" type="line"/>
    </contour>
    <contour>
      <point x="288" y="359" type="line"/>
      <point x="358" y="429" type="line"/>
      <point x="260" y="521" type="line"/>
      <point x="190" y="451" type="line"/>
    </contour>
    <contour>
      <point x="419" y="210" type="curve" smooth="yes"/>
      <point x="371" y="210"/>
      <point x="337" y="249"/>
      <point x="337" y="302" type="curve" smooth="yes"/>
      <point x="337" y="355"/>
      <point x="371" y="395"/>
      <point x="419" y="395" type="curve" smooth="yes"/>
      <point x="468" y="395"/>
      <point x="502" y="355"/>
      <point x="502" y="302" type="curve" smooth="yes"/>
      <point x="502" y="249"/>
      <point x="468" y="210"/>
    </contour>
    <contour>
      <point x="568" y="90" type="line"/>
      <point x="638" y="160" type="line"/>
      <point x="540" y="252" type="line"/>
      <point x="470" y="182" type="line"/>
    </contour>
    <contour>
      <point x="547" y="362" type="line"/>
      <point x="640" y="460" type="line"/>
      <point x="569" y="530" type="line"/>
      <point x="477" y="432" type="line"/>
    </contour>
  </outline>
</glyph>
<glyph name="yen" format="2">
  <advance width="800"/>
  <unicode hex="00A5"/>
  <outline>
    <contour>
      <point x="356" y="0" type="line"/>
      <point x="464" y="0" type="line"/>
      <point x="464" y="357" type="line"/>
      <point x="449" y="289" type="line"/>
      <point x="720" y="700" type="line"/>
      <point x="596" y="700" type="line"/>
      <point x="401" y="393" type="line"/>
      <point x="426" y="390" type="line"/>
      <point x="210" y="700" type="line"/>
      <point x="80" y="700" type="line"/>
      <point x="363" y="300" type="line"/>
      <point x="356" y="349" type="line"/>
    </contour>
    <contour>
      <point x="216" y="90" type="line"/>
      <point x="628" y="88" type="line"/>
      <point x="628" y="174" type="line"/>
      <point x="216" y="176" type="line"/>
    </contour>
    <contour>
      <point x="216" y="230" type="line"/>
      <point x="628" y="228" type="line"/>
      <point x="628" y="314" type="line"/>
      <point x="216" y="316" type="line"/>
    </contour>
  </outline>
</glyph>
<glyph name="brokenbar" format="2">
  <advance width="477"/>
  <unicode hex="00A6"/>
  <outline>
    <contour>
      <point x="190" y="-202" type="line"/>
      <point x="287" y="-202" type="line"/>
      <point x="287" y="198" type="line"/>
      <point x="190" y="198" type="line"/>
    </contour>
    <contour>
      <point x="190" y="341" type="line"/>
      <point x="287" y="341" type="line"/>
      <point x="287" y="740" type="line"/>
      <point x="190" y="740" type="line"/>
    </contour>
  </outline>
</glyph>
<glyph name="section" format="2">
  <advance width="721"/>
  <unicode hex="00A7"/>
  <outline>
    <contour>
      <point x="396" y="128" type="line"/>
      <point x="507" y="132"/>
      <point x="580" y="179"/>
      <point x="586" y="278" type="curve" smooth="yes"/>
      <point x="590" y="354"/>
      <point x="541" y="405"/>
      <point x="439" y="435" type="curve" smooth="yes"/>
      <point x="346" y="462" type="line" smooth="yes"/>
      <point x="290" y="478"/>
      <point x="265" y="507"/>
      <point x="265" y="541" type="curve" smooth="yes"/>
      <point x="265" y="586"/>
      <point x="307" y="617"/>
      <point x="363" y="617" type="curve" smooth="yes"/>
      <point x="414" y="617"/>
      <point x="457" y="598"/>
      <point x="492" y="562" type="curve"/>
      <point x="549" y="628" type="line"/>
      <point x="504" y="684"/>
      <point x="443" y="711"/>
      <point x="368" y="711" type="curve" smooth="yes"/>
      <point x="237" y="711"/>
      <point x="167" y="637"/>
      <point x="167" y="536" type="curve" smooth="yes"/>
      <point x="167" y="417"/>
      <point x="269" y="374"/>
      <point x="293" y="367" type="curve" smooth="yes"/>
      <point x="422" y="329" type="line" smooth="yes"/>
      <point x="469" y="315"/>
      <point x="488" y="297"/>
      <point x="488" y="266" type="curve" smooth="yes"/>
      <point x="488" y="229"/>
      <point x="456" y="198"/>
      <point x="384" y="190" type="curve"/>
    </contour>
    <contour>
      <point x="347" y="-134" type="curve" smooth="yes"/>
      <point x="482" y="-134"/>
      <point x="551" y="-61"/>
      <point x="551" y="41" type="curve" smooth="yes"/>
      <point x="551" y="132"/>
      <point x="477" y="179"/>
      <point x="403" y="200" type="curve" smooth="yes"/>
      <point x="308" y="227" type="line" smooth="yes"/>
      <point x="251" y="243"/>
      <point x="227" y="268"/>
      <point x="227" y="300" type="curve" smooth="yes"/>
      <point x="227" y="339"/>
      <point x="257" y="367"/>
      <point x="304" y="374" type="curve"/>
      <point x="294" y="444" type="line"/>
      <point x="184" y="444"/>
      <point x="120" y="375"/>
      <point x="120" y="290" type="curve" smooth="yes"/>
      <point x="120" y="214"/>
      <point x="165" y="163"/>
      <point x="258" y="135" type="curve" smooth="yes"/>
      <point x="376" y="99" type="line" smooth="yes"/>
      <point x="421" y="85"/>
      <point x="453" y="63"/>
      <point x="453" y="29" type="curve" smooth="yes"/>
      <point x="453" y="-18"/>
      <point x="413" y="-43"/>
      <point x="346" y="-43" type="curve" smooth="yes"/>
      <point x="291" y="-43"/>
      <point x="226" y="-12"/>
      <point x="178" y="35" type="curve"/>
      <point x="128" y="-44" type="line"/>
      <point x="181" y="-97"/>
      <point x="270" y="-134"/>
    </contour>
  </outline>
</glyph>
<glyph name="copyright" format="2">
  <advance width="954"/>
  <unicode hex="00A9"/>
  <outline>
    <contour>
      <point x="477" y="-7" type="curve" smooth="yes"/>
      <point x="674" y="-7"/>
      <point x="834" y="151"/>
      <point x="834" y="350" type="curve" smooth="yes"/>
      <point x="834" y="549"/>
      <point x="674" y="707"/>
      <point x="477" y="707" type="curve" smooth="yes"/>
      <point x="278" y="707"/>
      <point x="120" y="549"/>
      <point x="120" y="350" type="curve" smooth="yes"/>
      <point x="120" y="151"/>
      <point x="278" y="-7"/>
    </contour>
    <contour>
      <point x="495" y="142" type="curve" smooth="yes"/>
      <point x="542" y="142"/>
      <point x="588" y="157"/>
      <point x="628" y="185" type="curve"/>
      <point x="591" y="261" type="line"/>
      <point x="558" y="236"/>
      <point x="526" y="223"/>
      <point x="495" y="223" type="curve" smooth="yes"/>
      <point x="422" y="223"/>
      <point x="367" y="275"/>
      <point x="367" y="350" type="curve" smooth="yes"/>
      <point x="367" y="421"/>
      <point x="422" y="476"/>
      <point x="495" y="476" type="curve" smooth="yes"/>
      <point x="522" y="476"/>
      <point x="548" y="465"/>
      <point x="587" y="437" type="curve"/>
      <point x="624" y="512" type="line"/>
      <point x="585" y="541"/>
      <point x="540" y="557"/>
      <point x="495" y="557" type="curve" smooth="yes"/>
      <point x="375" y="557"/>
      <point x="281" y="465"/>
      <point x="281" y="350" type="curve" smooth="yes"/>
      <point x="281" y="230"/>
      <point x="375" y="142"/>
    </contour>
    <contour>
      <point x="477" y="67" type="curve" smooth="yes"/>
      <point x="320" y="67"/>
      <point x="194" y="193"/>
      <point x="194" y="350" type="curve" smooth="yes"/>
      <point x="194" y="509"/>
      <point x="320" y="633"/>
      <point x="477" y="633" type="curve" smooth="yes"/>
      <point x="634" y="633"/>
      <point x="760" y="509"/>
      <point x="760" y="350" type="curve" smooth="yes"/>
      <point x="760" y="193"/>
      <point x="634" y="67"/>
    </contour>
  </outline>
</glyph>
<glyph name="ordfeminine" format="2">
  <advance width="520"/>
  <unicode hex="00AA"/>
  <outline>
    <contour>
      <point x="228" y="391" type="curve" smooth="yes"/>
      <point x="289" y="391"/>
      <point x="342" y="452"/>
      <point x="342" y="512" type="curve"/>
      <point x="327" y="474" type="line"/>
      <point x="327" y="401" type="line"/>
      <point x="420" y="401" type="line"/>
      <point x="420" y="715" type="line"/>
      <point x="327" y="715" type="line"/>
      <point x="327" y="648" type="line"/>
      <point x="342" y="592" type="line"/>
      <point x="342" y="675"/>
      <point x="305" y="721"/>
      <point x="240" y="721" type="curve" smooth="yes"/>
      <point x="157" y="721"/>
      <point x="100" y="654"/>
      <point x="100" y="562" type="curve" smooth="yes"/>
      <point x="100" y="459"/>
      <point x="149" y="391"/>
    </contour>
    <contour>
      <point x="257" y="458" type="curve" smooth="yes"/>
      <point x="217" y="458"/>
      <point x="193" y="498"/>
      <point x="193" y="562" type="curve" smooth="yes"/>
      <point x="193" y="613"/>
      <point x="221" y="654"/>
      <point x="256" y="654" type="curve" smooth="yes"/>
      <point x="303" y="654"/>
      <point x="331" y="616"/>
      <point x="331" y="555" type="curve" smooth="yes"/>
      <point x="331" y="496"/>
      <point x="301" y="458"/>
    </contour>
  </outline>
</glyph>
<glyph name="logicalnot" format="2">
  <advance width="810"/>
  <unicode hex="00AC"/>
  <outline>
    <contour>
      <point x="585" y="117" type="line"/>
      <point x="690" y="117" type="line"/>
      <point x="690" y="404" type="line"/>
      <point x="120" y="404" type="line"/>
      <point x="120" y="307" type="line"/>
      <point x="604" y="307" type="line"/>
      <point x="585" y="319" type="line"/>
    </contour>
  </outline>
</glyph>
<glyph name="micro" format="2">
  <advance width="736"/>
  <unicode hex="00B5"/>
  <outline>
    <contour>
      <point x="150" y="-157" type="line"/>
      <point x="247" y="-157" type="line"/>
      <point x="247" y="62" type="line"/>
      <point x="240" y="49" type="line"/>
      <point x="252" y="14"/>
      <point x="298" y="-10"/>
      <point x="339" y="-10" type="curve" smooth="yes"/>
      <point x="407" y="-10"/>
      <point x="472" y="27"/>
      <point x="496" y="100" type="curve"/>
      <point x="489" y="114" type="line"/>
      <point x="489" y="0" type="line"/>
      <point x="586" y="0" type="line"/>
      <point x="586" y="525" type="line"/>
      <point x="489" y="525" type="line"/>
      <point x="489" y="222" type="line" smooth="yes"/>
      <point x="489" y="143"/>
      <point x="430" y="80"/>
      <point x="354" y="80" type="curve" smooth="yes"/>
      <point x="283" y="80"/>
      <point x="247" y="127"/>
      <point x="247" y="222" type="curve" smooth="yes"/>
      <point x="247" y="525" type="line"/>
      <point x="150" y="525" type="line"/>
    </contour>
  </outline>
</glyph>
<glyph name="paragraph" format="2">
  <advance width="876"/>
  <unicode hex="00B6"/>
  <outline>
    <contour>
      <point x="326" y="0" type="line"/>
      <point x="434" y="0" type="line"/>
      <point x="434" y="652" type="line"/>
      <point x="390" y="596" type="line"/>
      <point x="602" y="596" type="line"/>
      <point x="586" y="660" type="line"/>
      <point x="586" y="0" type="line"/>
      <point x="694" y="0" type="line"/>
      <point x="694" y="700" type="line"/>
      <point x="353" y="700" type="line" smooth="yes"/>
      <point x="217" y="700"/>
      <point x="128" y="615"/>
      <point x="128" y="486" type="curve" smooth="yes"/>
      <point x="128" y="366"/>
      <point x="208" y="279"/>
      <point x="316" y="279" type="curve" smooth="yes"/>
      <point x="350" y="279" type="line"/>
      <point x="326" y="314" type="line"/>
    </contour>
  </outline>
</glyph>
<glyph name="ordmasculine" format="2">
  <advance width="554"/>
  <unicode hex="00BA"/>
  <outline>
    <contour>
      <point x="276" y="392" type="curve" smooth="yes"/>
      <point x="367" y="392"/>
      <point x="434" y="460"/>
      <point x="434" y="549" type="curve" smooth="yes"/>
      <point x="434" y="640"/>
      <point x="365" y="710"/>
      <point x="276" y="710" type="curve" smooth="yes"/>
      <point x="187" y="710"/>
      <point x="120" y="641"/>
      <point x="120" y="549" type="curve" smooth="yes"/>
      <point x="120" y="458"/>
      <point x="187" y="392"/>
    </contour>
    <contour>
      <point x="276" y="463" type="curve" smooth="yes"/>
      <point x="236" y="463"/>
      <point x="208" y="498"/>
      <point x="208" y="549" type="curve" smooth="yes"/>
      <point x="208" y="602"/>
      <point x="235" y="639"/>
      <point x="276" y="639" type="curve" smooth="yes"/>
      <point x="317" y="639"/>
      <point x="345" y="602"/>
      <point x="345" y="549" type="curve" smooth="yes"/>
      <point x="345" y="498"/>
      <point x="317" y="463"/>
    </contour>
  </outline>
</glyph>
<glyph name="AE" format="2">
  <advance width="1141"/>
  <unicode hex="00C6"/>
  <anchor x="572" y="0" name="bottom"/>
  <anchor x="692" y="700" name="top"/>
  <outline>
    <contour>
      <point x="92" y="0" type="line"/>
      <point x="201" y="0" type="line"/>
      <point x="577" y="550" type="line"/>
      <point x="552" y="558" type="line"/>
      <point x="552" y="245" type="line"/>
      <point x="353" y="245" type="line"/>
      <point x="290" y="153" type="line"/>
      <point x="552" y="153" type="line"/>
      <point x="552" y="0" type="line"/>
      <point x="981" y="0" type="line"/>
      <point x="981" y="93" type="line"/>
      <point x="653" y="93" type="line"/>
      <point x="653" y="308" type="line"/>
      <point x="936" y="308" type="line"/>
      <point x="936" y="402" type="line"/>
      <point x="653" y="402" type="line"/>
      <point x="653" y="607" type="line"/>
      <point x="981" y="607" type="line"/>
      <point x="981" y="700" type="line"/>
      <point x="580" y="700" type="line"/>
    </contour>
  </outline>
</glyph>
<glyph name="multiply" format="2">
  <advance width="642"/>
  <unicode hex="00D7"/>
  <outline>
    <contour>
      <point x="184" y="71" type="line"/>
      <point x="533" y="422" type="line"/>
      <point x="473" y="486" type="line"/>
      <point x="125" y="136" type="line"/>
    </contour>
    <contour>
      <point x="471" y="78" type="line"/>
      <point x="535" y="137" type="line"/>
      <point x="185" y="486" type="line"/>
      <point x="121" y="426" type="line"/>
    </contour>
  </outline>
</glyph>
<glyph name="Oslash" format="2">
  <advance width="942"/>
  <unicode hex="00D8"/>
  <anchor x="471" y="0" name="bottom"/>
  <anchor x="471" y="700" name="top"/>
  <anchor x="471" y="350" name="center"/>
  <anchor x="643" y="0" name="ogonek"/>
  <anchor x="100" y="700" name="topleft"/>
  <anchor x="842" y="700" name="topright"/>
  <outline>
    <contour>
      <point x="206" y="-33" type="line"/>
      <point x="800" y="694" type="line"/>
      <point x="732" y="741" type="line"/>
      <point x="143" y="20" type="line"/>
    </contour>
    <component base="O"/>
  </outline>
</glyph>
<glyph name="Thorn" format="2">
  <advance width="808"/>
  <unicode hex="00DE"/>
  <anchor x="401" y="0" name="bottom"/>
  <anchor x="401" y="700" name="top"/>
  <outline>
    <contour>
      <point x="182" y="0" type="line"/>
      <point x="290" y="0" type="line"/>
      <point x="290" y="141" type="line"/>
      <point x="467" y="141" type="line" smooth="yes"/>
      <point x="580" y="141"/>
      <point x="673" y="238"/>
      <point x="673" y="358" type="curve" smooth="yes"/>
      <point x="673" y="478"/>
      <point x="580" y="573"/>
      <point x="467" y="573" type="curve" smooth="yes"/>
      <point x="290" y="573" type="line"/>
      <point x="290" y="700" type="line"/>
      <point x="182" y="700" type="line"/>
    </contour>
    <contour>
      <point x="290" y="245" type="line"/>
      <point x="290" y="469" type="line"/>
      <point x="465" y="469" type="line" smooth="yes"/>
      <point x="518" y="469"/>
      <point x="563" y="419"/>
      <point x="563" y="358" type="curve" smooth="yes"/>
      <point x="563" y="297"/>
      <point x="518" y="245"/>
      <point x="465" y="245" type="curve" smooth="yes"/>
    </contour>
  </outline>
</glyph>
<glyph name="germandbls" format="2">
  <advance width="842"/>
  <unicode hex="00DF"/>
  <anchor x="432" y="0" name="bottom"/>
  <anchor x="432" y="525" name="top"/>
  <outline>
    <contour>
      <point x="522" y="-10" type="curve" smooth="yes"/>
      <point x="638" y="-10"/>
      <point x="722" y="82"/>
      <point x="722" y="203" type="curve" smooth="yes"/>
      <point x="722" y="318"/>
      <point x="651" y="410"/>
      <point x="547" y="443" type="curve"/>
      <point x="549" y="439" type="line"/>
      <point x="612" y="467"/>
      <point x="653" y="519"/>
      <point x="653" y="574" type="curve" smooth="yes"/>
      <point x="653" y="669"/>
      <point x="575" y="734"/>
      <point x="454" y="734" type="curve" smooth="yes"/>
      <point x="317" y="734"/>
      <point x="229" y="639"/>
      <point x="229" y="499" type="curve" smooth="yes"/>
      <point x="229" y="0" type="line"/>
      <point x="326" y="0" type="line"/>
      <point x="326" y="502" type="line" smooth="yes"/>
      <point x="326" y="587"/>
      <point x="374" y="644"/>
      <point x="450" y="644" type="curve" smooth="yes"/>
      <point x="517" y="644"/>
      <point x="557" y="614"/>
      <point x="557" y="565" type="curve" smooth="yes"/>
      <point x="557" y="521"/>
      <point x="520" y="483"/>
      <point x="444" y="450" type="curve"/>
      <point x="444" y="385" type="line"/>
      <point x="569" y="354"/>
      <point x="625" y="293"/>
      <point x="625" y="189" type="curve" smooth="yes"/>
      <point x="625" y="118"/>
      <point x="585" y="68"/>
      <point x="524" y="68" type="curve" smooth="yes"/>
      <point x="492" y="68"/>
      <point x="463" y="80"/>
      <point x="427" y="112" type="curve"/>
      <point x="375" y="57" type="line"/>
      <point x="411" y="12"/>
      <point x="458" y="-10"/>
    </contour>
    <contour>
      <point x="145" y="404" type="line"/>
      <point x="280" y="404" type="line"/>
      <point x="280" y="497" type="line"/>
      <point x="145" y="497" type="line"/>
    </contour>
  </outline>
</glyph>
<glyph name="ae" format="2">
  <advance width="1086"/>
  <unicode hex="00E6"/>
  <anchor x="532" y="0" name="bottom"/>
  <anchor x="532" y="525" name="top"/>
  <outline>
    <contour>
      <point x="298" y="-10" type="curve" smooth="yes"/>
      <point x="383" y="-10"/>
      <point x="465" y="38"/>
      <point x="512" y="107" type="curve"/>
      <point x="468" y="174" type="line"/>
      <point x="440" y="119"/>
      <point x="374" y="78"/>
      <point x="302" y="78" type="curve" smooth="yes"/>
      <point x="253" y="78"/>
      <point x="217" y="107"/>
      <point x="217" y="151" type="curve" smooth="yes"/>
      <point x="217" y="206"/>
      <point x="262" y="237"/>
      <point x="343" y="237" type="curve" smooth="yes"/>
      <point x="940" y="237" type="line"/>
      <point x="941" y="281" type="line" smooth="yes"/>
      <point x="941" y="428"/>
      <point x="839" y="535"/>
      <point x="703" y="536" type="curve" smooth="yes"/>
      <point x="563" y="536"/>
      <point x="455" y="420"/>
      <point x="455" y="257" type="curve" smooth="yes"/>
      <point x="455" y="98"/>
      <point x="565" y="-10"/>
      <point x="726" y="-10" type="curve" smooth="yes"/>
      <point x="799" y="-10"/>
      <point x="883" y="22"/>
      <point x="931" y="69" type="curve"/>
      <point x="881" y="144" type="line"/>
      <point x="829" y="99"/>
      <point x="788" y="84"/>
      <point x="736" y="84" type="curve" smooth="yes"/>
      <point x="629" y="84"/>
      <point x="548" y="159"/>
      <point x="548" y="264" type="curve" smooth="yes"/>
      <point x="548" y="380"/>
      <point x="603" y="441"/>
      <point x="703" y="441" type="curve" smooth="yes"/>
      <point x="771" y="441"/>
      <point x="829" y="391"/>
      <point x="836" y="326" type="curve"/>
      <point x="836" y="302" type="line"/>
      <point x="851" y="319" type="line"/>
      <point x="356" y="319" type="line" smooth="yes"/>
      <point x="201" y="320"/>
      <point x="120" y="261"/>
      <point x="120" y="149" type="curve" smooth="yes"/>
      <point x="120" y="53"/>
      <point x="197" y="-10"/>
    </contour>
    <contour>
      <point x="455" y="257" type="line"/>
      <point x="548" y="263" type="line"/>
      <point x="548" y="388" type="line" smooth="yes"/>
      <point x="548" y="483"/>
      <point x="470" y="536"/>
      <point x="346" y="536" type="curve" smooth="yes"/>
      <point x="263" y="536"/>
      <point x="190" y="500"/>
      <point x="133" y="435" type="curve"/>
      <point x="200" y="368" type="line"/>
      <point x="239" y="417"/>
      <point x="285" y="441"/>
      <point x="344" y="441" type="curve" smooth="yes"/>
      <point x="403" y="441"/>
      <point x="455" y="405"/>
      <point x="455" y="356" type="curve" smooth="yes"/>
    </contour>
  </outline>
</glyph>
<glyph name="eth" format="2">
  <advance width="754"/>
  <unicode hex="00F0"/>
  <outline>
    <contour>
      <point x="377" y="-7" type="curve" smooth="yes"/>
      <point x="521" y="-7"/>
      <point x="624" y="110"/>
      <point x="624" y="281" type="curve" smooth="yes"/>
      <point x="624" y="525"/>
      <point x="498" y="692"/>
      <point x="301" y="740" type="curve"/>
      <point x="259" y="662" type="line"/>
      <point x="431" y="610"/>
      <point x="500" y="534"/>
      <point x="508" y="379" type="curve"/>
      <point x="558" y="348" type="line"/>
      <point x="537" y="459"/>
      <point x="465" y="528"/>
      <point x="365" y="528" type="curve" smooth="yes"/>
      <point x="241" y="528"/>
      <point x="130" y="406"/>
      <point x="130" y="262" type="curve" smooth="yes"/>
      <point x="130" y="111"/>
      <point x="240" y="-7"/>
    </contour>
    <contour>
      <point x="377" y="89" type="curve" smooth="yes"/>
      <point x="293" y="89"/>
      <point x="227" y="165"/>
      <point x="227" y="262" type="curve" smooth="yes"/>
      <point x="227" y="358"/>
      <point x="293" y="432"/>
      <point x="377" y="432" type="curve" smooth="yes"/>
      <point x="461" y="432"/>
      <point x="527" y="357"/>
      <point x="527" y="262" type="curve" smooth="yes"/>
      <point x="527" y="165"/>
      <point x="461" y="89"/>
    </contour>
    <contour>
      <point x="246" y="528" type="line"/>
      <point x="443" y="574" type="line"/>
      <point x="484" y="591" type="line"/>
      <point x="597" y="617" type="line"/>
      <point x="579" y="683" type="line"/>
      <point x="433" y="650" type="line"/>
      <point x="378" y="630" type="line"/>
      <point x="233" y="593" type="line"/>
    </contour>
  </outline>
</glyph>
<glyph name="divide" format="2">
  <advance width="737"/>
  <unicode hex="00F7"/>
  <outline>
    <contour>
      <point x="120" y="215" type="line"/>
      <point x="617" y="215" type="line"/>
      <point x="617" y="305" type="line"/>
      <point x="120" y="305" type="line"/>
    </contour>
    <contour>
      <point x="363" y="15" type="curve" smooth="yes"/>
      <point x="399" y="15"/>
      <point x="428" y="44"/>
      <point x="428" y="80" type="curve" smooth="yes"/>
      <point x="428" y="116"/>
      <point x="399" y="145"/>
      <point x="363" y="145" type="curve" smooth="yes"/>
      <point x="327" y="145"/>
      <point x="297" y="116"/>
      <point x="297" y="80" type="curve" smooth="yes"/>
      <point x="297" y="44"/>
      <point x="327" y="15"/>
    </contour>
    <contour>
      <point x="363" y="372" type="curve" smooth="yes"/>
      <point x="398" y="372"/>
      <point x="428" y="401"/>
      <point x="428" y="436" type="curve" smooth="yes"/>
      <point x="428" y="472"/>
      <point x="399" y="502"/>
      <point x="363" y="502" type="curve" smooth="yes"/>
      <point x="327" y="502"/>
      <point x="297" y="472"/>
      <point x="297" y="436" type="curve" smooth="yes"/>
      <point x="297" y="401"/>
      <point x="327" y="372"/>
    </contour>
  </outline>
</glyph>
<glyph name="oslash" format="2">
  <advance width="794"/>
  <unicode hex="00F8"/>
  <anchor x="397" y="525" name="top"/>
  <anchor x="397" y="0" name="bottom"/>
  <anchor x="397" y="263" name="center"/>
  <anchor x="550" y="0" name="ogonek"/>
  <anchor x="684" y="525" name="topright"/>
  <outline>
    <contour>
      <point x="203" y="-35" type="line"/>
      <point x="657" y="496" type="line"/>
      <point x="590" y="545" type="line"/>
      <point x="137" y="13" type="line"/>
    </contour>
    <component base="o" xOffset="-1"/>
  </outline>
</glyph>
<glyph name="thorn" format="2">
  <advance width="869"/>
  <unicode hex="00FE"/>
  <anchor x="464" y="0" name="bottom"/>
  <anchor x="464" y="525" name="top"/>
  <outline>
    <contour>
      <point x="220" y="-220" type="line"/>
      <point x="324" y="-220" type="line"/>
      <point x="324" y="131" type="line"/>
      <point x="298" y="117" type="line"/>
      <point x="313" y="56"/>
      <point x="405" y="-9"/>
      <point x="497" y="-9" type="curve" smooth="yes"/>
      <point x="636" y="-9"/>
      <point x="739" y="107"/>
      <point x="739" y="263" type="curve" smooth="yes"/>
      <point x="739" y="420"/>
      <point x="635" y="534"/>
      <point x="494" y="534" type="curve" smooth="yes"/>
      <point x="409" y="534"/>
      <point x="320" y="474"/>
      <point x="308" y="414" type="curve"/>
      <point x="324" y="405" type="line"/>
      <point x="324" y="740" type="line"/>
      <point x="220" y="740" type="line"/>
    </contour>
    <contour>
      <point x="480" y="86" type="curve" smooth="yes"/>
      <point x="387" y="86"/>
      <point x="319" y="162"/>
      <point x="319" y="263" type="curve" smooth="yes"/>
      <point x="319" y="366"/>
      <point x="387" y="439"/>
      <point x="480" y="439" type="curve" smooth="yes"/>
      <point x="573" y="439"/>
      <point x="640" y="364"/>
      <point x="640" y="263" type="curve" smooth="yes"/>
      <point x="640" y="162"/>
      <point x="572" y="86"/>
    </contour>
  </outline>
</glyph>
<glyph name="dcroat" format="2">
  <advance width="824"/>
  <unicode hex="0111"/>
  <anchor x="580" y="634" name="_center"/>
  <anchor x="397" y="0" name="bottom"/>
  <anchor x="580" y="634" name="center"/>
  <anchor x="397" y="740" name="top"/>
  <anchor x="674" y="740" name="topright"/>
  <outline>
    <contour>
      <point x="446" y="589" type="line"/>
      <point x="714" y="589" type="line"/>
      <point x="714" y="679" type="line"/>
      <point x="446" y="679" type="line"/>
    </contour>
    <component base="d"/>
  </outline>
</glyph>
<glyph name="eogonek" format="2">
  <advance width="771"/>
  <unicode hex="0119"/>
  <anchor x="386" y="525" name="top"/>
  <anchor x="373" y="0" name="bottom"/>
  <anchor x="579" y="0" name="ogonek"/>
  <outline>
    <contour>
      <point x="472" y="-200" type="curve" smooth="yes"/>
      <point x="524" y="-200"/>
      <point x="567" y="-171"/>
      <point x="585" y="-138" type="curve"/>
      <point x="529" y="-98" type="line"/>
      <point x="517" y="-114"/>
      <point x="507" y="-123"/>
      <point x="489" y="-123" type="curve" smooth="yes"/>
      <point x="466" y="-123"/>
      <point x="450" y="-106"/>
      <point x="450" y="-81" type="curve" smooth="yes"/>
      <point x="450" y="-38"/>
      <point x="490" y="-1"/>
      <point x="571" y="45" type="curve"/>
      <point x="549" y="80" type="line"/>
      <point x="445" y="35"/>
      <point x="359" y="-11"/>
      <point x="359" y="-101" type="curve" smooth="yes"/>
      <point x="359" y="-155"/>
      <point x="400" y="-200"/>
    </contour>
    <component base="e"/>
  </outline>
</glyph>
<glyph name="Hbar" format="2">
  <advance width="1033"/>
  <unicode hex="0126"/>
  <anchor x="517" y="0" name="bottom"/>
  <anchor x="517" y="350" name="center"/>
  <anchor x="517" y="700" name="top"/>
  <anchor x="156" y="700" name="topleft"/>
  <outline>
    <contour>
      <point x="145" y="468" type="line"/>
      <point x="251" y="468" type="line"/>
      <point x="297" y="478" type="line"/>
      <point x="713" y="478" type="line"/>
      <point x="744" y="468" type="line"/>
      <point x="888" y="468" type="line"/>
      <point x="888" y="572" type="line"/>
      <point x="737" y="572" type="line"/>
      <point x="701" y="562" type="line"/>
      <point x="307" y="562" type="line"/>
      <point x="261" y="572" type="line"/>
      <point x="145" y="572" type="line"/>
    </contour>
    <component base="H" xOffset="52"/>
  </outline>
</glyph>
<glyph name="hbar" format="2">
  <advance width="895"/>
  <unicode hex="0127"/>
  <anchor x="446" y="0" name="bottom"/>
  <anchor x="294" y="638" name="center"/>
  <anchor x="446" y="740" name="top"/>
  <outline>
    <contour>
      <point x="160" y="593" type="line"/>
      <point x="428" y="593" type="line"/>
      <point x="428" y="683" type="line"/>
      <point x="160" y="683" type="line"/>
    </contour>
    <component base="h"/>
  </outline>
</glyph>
<glyph name="kgreenlandic" format="2">
  <advance width="755"/>
  <unicode hex="0138"/>
  <anchor x="414" y="0" name="bottom"/>
  <anchor x="414" y="525" name="top"/>
  <outline>
    <contour>
      <point x="298" y="154" type="line"/>
      <point x="665" y="525" type="line"/>
      <point x="544" y="525" type="line"/>
      <point x="293" y="256" type="line"/>
    </contour>
    <contour>
      <point x="210" y="0" type="line"/>
      <point x="307" y="0" type="line"/>
      <point x="307" y="525" type="line"/>
      <point x="210" y="525" type="line"/>
    </contour>
    <contour>
      <point x="547" y="0" type="line"/>
      <point x="670" y="-1" type="line"/>
      <point x="423" y="319" type="line"/>
      <point x="354" y="272" type="line"/>
    </contour>
  </outline>
</glyph>
<glyph name="Lslash" format="2">
  <advance width="758"/>
  <unicode hex="0141"/>
  <anchor x="384" y="0" name="bottom"/>
  <anchor x="237" y="350" name="center"/>
  <anchor x="237" y="700" name="top"/>
  <anchor x="377" y="700" name="topright"/>
  <outline>
    <contour>
      <point x="119" y="256" type="line"/>
      <point x="413" y="382" type="line"/>
      <point x="381" y="459" type="line"/>
      <point x="90" y="328" type="line"/>
    </contour>
    <component base="L"/>
  </outline>
</glyph>
<glyph name="lslash" format="2">
  <advance width="523"/>
  <unicode hex="0142"/>
  <anchor x="261" y="0" name="bottom"/>
  <anchor x="261" y="370" name="center"/>
  <anchor x="261" y="740" name="top"/>
  <anchor x="337" y="740" name="topright"/>
  <outline>
    <contour>
      <point x="166" y="292" type="line"/>
      <point x="391" y="394" type="line"/>
      <point x="355" y="468" type="line"/>
      <point x="132" y="369" type="line"/>
    </contour>
    <component base="l" xOffset="-1"/>
  </outline>
</glyph>
<glyph name="Eng" format="2">
  <advance width="961"/>
  <unicode hex="014A"/>
  <outline>
    <contour>
      <point x="594" y="-197" type="line"/>
      <point x="705" y="-197"/>
      <point x="779" y="-128"/>
      <point x="779" y="-24" type="curve" smooth="yes"/>
      <point x="779" y="700" type="line"/>
      <point x="671" y="700" type="line"/>
      <point x="671" y="470" type="line" smooth="yes"/>
      <point x="671" y="323"/>
      <point x="678" y="201"/>
      <point x="691" y="118" type="curve"/>
      <point x="707" y="127" type="line"/>
      <point x="279" y="700" type="line"/>
      <point x="182" y="700" type="line"/>
      <point x="182" y="0" type="line"/>
      <point x="290" y="0" type="line"/>
      <point x="290" y="291" type="line" smooth="yes"/>
      <point x="290" y="341"/>
      <point x="281" y="455"/>
      <point x="270" y="566" type="curve"/>
      <point x="259" y="552" type="line"/>
      <point x="680" y="0" type="line"/>
      <point x="671" y="76" type="line"/>
      <point x="671" y="1" type="line" smooth="yes"/>
      <point x="671" y="-78"/>
      <point x="632" y="-118"/>
      <point x="555" y="-118" type="curve"/>
    </contour>
  </outline>
</glyph>
<glyph name="OE" format="2">
  <advance width="1192"/>
  <unicode hex="0152"/>
  <anchor x="594" y="0" name="bottom"/>
  <anchor x="594" y="700" name="top"/>
  <outline>
    <contour>
      <point x="455" y="0" type="curve" smooth="yes"/>
      <point x="1032" y="0" type="line"/>
      <point x="1032" y="104" type="line"/>
      <point x="699" y="104" type="line"/>
      <point x="699" y="307" type="line"/>
      <point x="977" y="307" type="line"/>
      <point x="977" y="411" type="line"/>
      <point x="699" y="411" type="line"/>
      <point x="699" y="596" type="line"/>
      <point x="1032" y="596" type="line"/>
      <point x="1032" y="700" type="line"/>
      <point x="475" y="700" type="line" smooth="yes"/>
      <point x="264" y="700"/>
      <point x="128" y="558"/>
      <point x="128" y="350" type="curve" smooth="yes"/>
      <point x="128" y="141"/>
      <point x="255" y="0"/>
    </contour>
    <contour>
      <point x="238" y="350" type="curve" smooth="yes"/>
      <point x="238" y="502"/>
      <point x="326" y="596"/>
      <point x="478" y="596" type="curve" smooth="yes"/>
      <point x="591" y="596" type="line"/>
      <point x="591" y="104" type="line"/>
      <point x="458" y="104" type="line" smooth="yes"/>
      <point x="318" y="104"/>
      <point x="238" y="197"/>
    </contour>
  </outline>
</glyph>
<glyph name="oe" format="2">
  <advance width="1212"/>
  <unicode hex="0153"/>
  <anchor x="599" y="0" name="bottom"/>
  <anchor x="599" y="525" name="top"/>
  <outline>
    <contour>
      <point x="398" y="-10" type="curve" smooth="yes"/>
      <point x="498" y="-10"/>
      <point x="582" y="40"/>
      <point x="628" y="120" type="curve"/>
      <point x="596" y="119" type="line"/>
      <point x="642" y="39"/>
      <point x="729" y="-10"/>
      <point x="838" y="-10" type="curve" smooth="yes"/>
      <point x="912" y="-10"/>
      <point x="996" y="24"/>
      <point x="1045" y="71" type="curve"/>
      <point x="993" y="144" type="line"/>
      <point x="941" y="99"/>
      <point x="900" y="84"/>
      <point x="848" y="84" type="curve" smooth="yes"/>
      <point x="725" y="84"/>
      <point x="664" y="163"/>
      <point x="664" y="266" type="curve" smooth="yes"/>
      <point x="664" y="376"/>
      <point x="723" y="442"/>
      <point x="819" y="442" type="curve" smooth="yes"/>
      <point x="897" y="442"/>
      <point x="962" y="392"/>
      <point x="962" y="318" type="curve" smooth="yes"/>
      <point x="962" y="275" type="line"/>
      <point x="1007" y="320" type="line"/>
      <point x="652" y="320" type="line"/>
      <point x="648" y="238" type="line"/>
      <point x="1066" y="238" type="line"/>
      <point x="1067" y="282" type="line" smooth="yes"/>
      <point x="1070" y="429"/>
      <point x="965" y="536"/>
      <point x="823" y="536" type="curve" smooth="yes"/>
      <point x="726" y="536"/>
      <point x="648" y="486"/>
      <point x="597" y="405" type="curve"/>
      <point x="629" y="405" type="line"/>
      <point x="583" y="485"/>
      <point x="499" y="536"/>
      <point x="398" y="536" type="curve" smooth="yes"/>
      <point x="245" y="536"/>
      <point x="130" y="420"/>
      <point x="130" y="263" type="curve" smooth="yes"/>
      <point x="130" y="106"/>
      <point x="245" y="-10"/>
    </contour>
    <contour>
      <point x="398" y="84" type="curve" smooth="yes"/>
      <point x="303" y="84"/>
      <point x="234" y="160"/>
      <point x="235" y="263" type="curve" smooth="yes"/>
      <point x="234" y="366"/>
      <point x="303" y="442"/>
      <point x="398" y="442" type="curve" smooth="yes"/>
      <point x="493" y="442"/>
      <point x="561" y="367"/>
      <point x="560" y="263" type="curve" smooth="yes"/>
      <point x="561" y="160"/>
      <point x="493" y="84"/>
    </contour>
  </outline>
</glyph>
<glyph name="Tbar" format="2">
  <advance width="706"/>
  <unicode hex="0166"/>
  <anchor x="353" y="0" name="bottom"/>
  <anchor x="353" y="350" name="center"/>
  <anchor x="353" y="700" name="top"/>
  <outline>
    <contour>
      <point x="219" y="307" type="line"/>
      <point x="487" y="307" type="line"/>
      <point x="487" y="397" type="line"/>
      <point x="219" y="397" type="line"/>
    </contour>
    <component base="T"/>
  </outline>
</glyph>
<glyph name="tbar" format="2">
  <advance width="609"/>
  <unicode hex="0167"/>
  <anchor x="289" y="0" name="bottom"/>
  <anchor x="289" y="263" name="center"/>
  <anchor x="289" y="525" name="top"/>
  <anchor x="366" y="787" name="topright"/>
  <outline>
    <contour>
      <point x="159" y="218" type="line"/>
      <point x="427" y="218" type="line"/>
      <point x="427" y="308" type="line"/>
      <point x="159" y="308" type="line"/>
    </contour>
    <component base="t"/>
  </outline>
</glyph>
<glyph name="Uogonek" format="2">
  <advance width="904"/>
  <unicode hex="0172"/>
  <anchor x="452" y="0" name="bottom"/>
  <anchor x="622" y="0" name="ogonek"/>
  <anchor x="452" y="700" name="top"/>
  <anchor x="802" y="700" name="topright"/>
  <outline>
    <contour>
      <point x="516" y="-200" type="curve" smooth="yes"/>
      <point x="564" y="-200"/>
      <point x="611" y="-171"/>
      <point x="625" y="-138" type="curve"/>
      <point x="569" y="-98" type="line"/>
      <point x="558" y="-114"/>
      <point x="546" y="-123"/>
      <point x="532" y="-123" type="curve" smooth="yes"/>
      <point x="510" y="-123"/>
      <point x="498" y="-108"/>
      <point x="498" y="-84" type="curve" smooth="yes"/>
      <point x="498" y="-44"/>
      <point x="537" y="-3"/>
      <point x="614" y="40" type="curve"/>
      <point x="576" y="85" type="line"/>
      <point x="486" y="38"/>
      <point x="407" y="-16"/>
      <point x="407" y="-97" type="curve" smooth="yes"/>
      <point x="407" y="-164"/>
      <point x="458" y="-200"/>
    </contour>
    <component base="U"/>
  </outline>
</glyph>
<glyph name="Schwa" format="2">
  <advance width="940"/>
  <unicode hex="018F"/>
  <anchor x="470" y="0" name="bottom"/>
  <anchor x="470" y="700" name="top"/>
  <outline>
    <contour>
      <point x="470" y="-10" type="curve" smooth="yes"/>
      <point x="658" y="-10"/>
      <point x="812" y="151"/>
      <point x="812" y="350" type="curve" smooth="yes"/>
      <point x="812" y="549"/>
      <point x="656" y="710"/>
      <point x="467" y="710" type="curve" smooth="yes"/>
      <point x="351" y="710"/>
      <point x="269" y="678"/>
      <point x="196" y="606" type="curve"/>
      <point x="264" y="536" type="line"/>
      <point x="320" y="588"/>
      <point x="383" y="613"/>
      <point x="467" y="613" type="curve" smooth="yes"/>
      <point x="612" y="613"/>
      <point x="709" y="512"/>
      <point x="709" y="351" type="curve" smooth="yes"/>
      <point x="709" y="194"/>
      <point x="609" y="87"/>
      <point x="470" y="87" type="curve" smooth="yes"/>
      <point x="354" y="87"/>
      <point x="252" y="176"/>
      <point x="232" y="296" type="curve"/>
      <point x="775" y="296" type="line"/>
      <point x="766" y="393" type="line"/>
      <point x="128" y="393" type="line"/>
      <point x="128" y="313" type="line"/>
      <point x="137" y="128"/>
      <point x="289" y="-10"/>
    </contour>
  </outline>
</glyph>
<glyph name="florin" format="2">
  <advance width="672"/>
  <unicode hex="0192"/>
  <outline>
    <contour>
      <point x="172" y="-31" type="curve" smooth="yes"/>
      <point x="259" y="-31"/>
      <point x="310" y="18"/>
      <point x="329" y="119" type="curve" smooth="yes"/>
      <point x="400" y="523" type="line" smooth="yes"/>
      <point x="411" y="582"/>
      <point x="440" y="608"/>
      <point x="493" y="608" type="curve" smooth="yes"/>
      <point x="512" y="608"/>
      <point x="533" y="604"/>
      <point x="562" y="593" type="curve"/>
      <point x="592" y="657" type="line"/>
      <point x="557" y="681"/>
      <point x="519" y="692"/>
      <point x="474" y="692" type="curve" smooth="yes"/>
      <point x="377" y="692"/>
      <point x="322" y="642"/>
      <point x="303" y="538" type="curve" smooth="yes"/>
      <point x="231" y="129" type="line" smooth="yes"/>
      <point x="222" y="81"/>
      <point x="199" y="54"/>
      <point x="166" y="54" type="curve" smooth="yes"/>
      <point x="143" y="54"/>
      <point x="128" y="58"/>
      <point x="108" y="69" type="curve"/>
      <point x="80" y="1" type="line"/>
      <point x="101" y="-18"/>
      <point x="137" y="-31"/>
    </contour>
    <contour>
      <point x="147" y="362" type="line"/>
      <point x="516" y="361" type="line"/>
      <point x="516" y="444" type="line"/>
      <point x="147" y="445" type="line"/>
    </contour>
  </outline>
</glyph>
<glyph name="Nhookleft" format="2">
  <advance width="896"/>
  <unicode hex="019D"/>
  <anchor x="424" y="0" name="bottom"/>
  <anchor x="424" y="700" name="top"/>
  <outline>
    <contour>
      <point x="40" y="-197" type="line"/>
      <point x="151" y="-197"/>
      <point x="225" y="-128"/>
      <point x="225" y="-24" type="curve" smooth="yes"/>
      <point x="225" y="291" type="line" smooth="yes"/>
      <point x="225" y="341"/>
      <point x="216" y="455"/>
      <point x="205" y="566" type="curve"/>
      <point x="194" y="552" type="line"/>
      <point x="615" y="0" type="line"/>
      <point x="714" y="0" type="line"/>
      <point x="714" y="700" type="line"/>
      <point x="606" y="700" type="line"/>
      <point x="606" y="470" type="line" smooth="yes"/>
      <point x="606" y="323"/>
      <point x="613" y="201"/>
      <point x="626" y="118" type="curve"/>
      <point x="642" y="127" type="line"/>
      <point x="214" y="700" type="line"/>
      <point x="117" y="700" type="line"/>
      <point x="117" y="1" type="line" smooth="yes"/>
      <point x="117" y="-78"/>
      <point x="78" y="-118"/>
      <point x="1" y="-118" type="curve"/>
    </contour>
  </outline>
</glyph>
<glyph name="Ohorn" format="2">
  <advance width="942"/>
  <unicode hex="01A0"/>
  <anchor x="471" y="0" name="bottom"/>
  <anchor x="471" y="700" name="top"/>
  <outline>
    <contour>
      <point x="471" y="-10" type="curve" smooth="yes"/>
      <point x="668" y="-10"/>
      <point x="814" y="145"/>
      <point x="814" y="350" type="curve" smooth="yes"/>
      <point x="814" y="481"/>
      <point x="755" y="591"/>
      <point x="661" y="654" type="curve"/>
      <point x="654" y="630" type="line"/>
      <point x="742" y="642"/>
      <point x="780" y="713"/>
      <point x="780" y="814" type="curve"/>
      <point x="688" y="814" type="line"/>
      <point x="688" y="735"/>
      <point x="659" y="695"/>
      <point x="599" y="695" type="curve" smooth="yes"/>
      <point x="583" y="695"/>
      <point x="568" y="697"/>
      <point x="551" y="701" type="curve" smooth="yes"/>
      <point x="529" y="706"/>
      <point x="504" y="710"/>
      <point x="471" y="710" type="curve" smooth="yes"/>
      <point x="274" y="710"/>
      <point x="128" y="557"/>
      <point x="128" y="350" type="curve" smooth="yes"/>
      <point x="128" y="143"/>
      <point x="274" y="-10"/>
    </contour>
    <contour>
      <point x="471" y="95" type="curve" smooth="yes"/>
      <point x="335" y="95"/>
      <point x="238" y="202"/>
      <point x="238" y="350" type="curve" smooth="yes"/>
      <point x="238" y="498"/>
      <point x="335" y="605"/>
      <point x="471" y="605" type="curve" smooth="yes"/>
      <point x="606" y="605"/>
      <point x="704" y="497"/>
      <point x="704" y="350" type="curve" smooth="yes"/>
      <point x="704" y="203"/>
      <point x="606" y="95"/>
    </contour>
  </outline>
</glyph>
<glyph name="ohorn" format="2">
  <advance width="795"/>
  <unicode hex="01A1"/>
  <anchor x="398" y="0" name="bottom"/>
  <anchor x="398" y="525" name="top"/>
  <outline>
    <contour>
      <point x="398" y="-10" type="curve" smooth="yes"/>
      <point x="550" y="-10"/>
      <point x="665" y="106"/>
      <point x="665" y="263" type="curve" smooth="yes"/>
      <point x="665" y="360"/>
      <point x="622" y="440"/>
      <point x="553" y="488" type="curve"/>
      <point x="546" y="462" type="line"/>
      <point x="628" y="479"/>
      <point x="661" y="548"/>
      <point x="661" y="639" type="curve"/>
      <point x="579" y="639" type="line"/>
      <point x="579" y="561"/>
      <point x="554" y="522"/>
      <point x="501" y="522" type="curve" smooth="yes"/>
      <point x="493" y="522"/>
      <point x="483" y="524"/>
      <point x="471" y="527" type="curve" smooth="yes"/>
      <point x="452" y="531"/>
      <point x="427" y="536"/>
      <point x="398" y="536" type="curve" smooth="yes"/>
      <point x="245" y="536"/>
      <point x="130" y="420"/>
      <point x="130" y="263" type="curve" smooth="yes"/>
      <point x="130" y="106"/>
      <point x="245" y="-10"/>
    </contour>
    <contour>
      <point x="398" y="84" type="curve" smooth="yes"/>
      <point x="303" y="84"/>
      <point x="234" y="160"/>
      <point x="235" y="263" type="curve" smooth="yes"/>
      <point x="234" y="366"/>
      <point x="303" y="442"/>
      <point x="398" y="442" type="curve" smooth="yes"/>
      <point x="493" y="442"/>
      <point x="561" y="367"/>
      <point x="560" y="263" type="curve" smooth="yes"/>
      <point x="561" y="160"/>
      <point x="493" y="84"/>
    </contour>
  </outline>
</glyph>
<glyph name="Uhorn" format="2">
  <advance width="907"/>
  <unicode hex="01AF"/>
  <anchor x="452" y="0" name="bottom"/>
  <anchor x="452" y="700" name="top"/>
  <outline>
    <contour>
      <point x="452" y="-6" type="curve" smooth="yes"/>
      <point x="615" y="-6"/>
      <point x="734" y="110"/>
      <point x="734" y="269" type="curve" smooth="yes"/>
      <point x="734" y="673" type="line"/>
      <point x="704" y="621" type="line"/>
      <point x="796" y="636"/>
      <point x="847" y="707"/>
      <point x="847" y="814" type="curve"/>
      <point x="755" y="814" type="line"/>
      <point x="755" y="745"/>
      <point x="732" y="701"/>
      <point x="669" y="701" type="curve" smooth="yes"/>
      <point x="631" y="701" type="line"/>
      <point x="631" y="278" type="line" smooth="yes"/>
      <point x="631" y="177"/>
      <point x="552" y="98"/>
      <point x="452" y="98" type="curve" smooth="yes"/>
      <point x="357" y="98"/>
      <point x="278" y="177"/>
      <point x="278" y="278" type="curve" smooth="yes"/>
      <point x="278" y="701" type="line"/>
      <point x="170" y="701" type="line"/>
      <point x="170" y="269" type="line" smooth="yes"/>
      <point x="170" y="110"/>
      <point x="289" y="-6"/>
    </contour>
  </outline>
</glyph>
<glyph name="uhorn" format="2">
  <advance width="846"/>
  <unicode hex="01B0"/>
  <anchor x="431" y="0" name="bottom"/>
  <anchor x="431" y="525" name="top"/>
  <outline>
    <contour>
      <point x="384" y="-10" type="curve" smooth="yes"/>
      <point x="468" y="-10"/>
      <point x="542" y="41"/>
      <point x="571" y="109" type="curve"/>
      <point x="558" y="129" type="line"/>
      <point x="558" y="0" type="line"/>
      <point x="661" y="0" type="line"/>
      <point x="661" y="527" type="line"/>
      <point x="631" y="470" type="line"/>
      <point x="708" y="493"/>
      <point x="738" y="559"/>
      <point x="738" y="639" type="curve"/>
      <point x="656" y="639" type="line"/>
      <point x="656" y="563"/>
      <point x="624" y="525"/>
      <point x="558" y="525" type="curve"/>
      <point x="558" y="209" type="line" smooth="yes"/>
      <point x="558" y="133"/>
      <point x="502" y="80"/>
      <point x="426" y="80" type="curve" smooth="yes"/>
      <point x="349" y="80"/>
      <point x="303" y="137"/>
      <point x="303" y="229" type="curve" smooth="yes"/>
      <point x="303" y="525" type="line"/>
      <point x="200" y="525" type="line"/>
      <point x="200" y="201" type="line" smooth="yes"/>
      <point x="200" y="72"/>
      <point x="272" y="-10"/>
    </contour>
  </outline>
</glyph>
<glyph name="Oogonek" format="2">
  <advance width="942"/>
  <unicode hex="01EA"/>
  <anchor x="471" y="700" name="top"/>
  <anchor x="471" y="0" name="bottom"/>
  <anchor x="471" y="350" name="center"/>
  <anchor x="643" y="0" name="ogonek"/>
  <anchor x="100" y="700" name="topleft"/>
  <anchor x="842" y="700" name="topright"/>
  <outline>
    <contour>
      <point x="553" y="-200" type="curve" smooth="yes"/>
      <point x="601" y="-200"/>
      <point x="648" y="-171"/>
      <point x="662" y="-138" type="curve"/>
      <point x="606" y="-98" type="line"/>
      <point x="595" y="-114"/>
      <point x="583" y="-123"/>
      <point x="569" y="-123" type="curve" smooth="yes"/>
      <point x="547" y="-123"/>
      <point x="535" y="-108"/>
      <point x="535" y="-84" type="curve" smooth="yes"/>
      <point x="535" y="-44"/>
      <point x="574" y="-3"/>
      <point x="651" y="40" type="curve"/>
      <point x="613" y="85" type="line"/>
      <point x="523" y="38"/>
      <point x="444" y="-16"/>
      <point x="444" y="-97" type="curve" smooth="yes"/>
      <point x="444" y="-164"/>
      <point x="495" y="-200"/>
    </contour>
    <component base="O"/>
  </outline>
</glyph>
<glyph name="oogonek" format="2">
  <advance width="795"/>
  <unicode hex="01EB"/>
  <anchor x="398" y="525" name="top"/>
  <anchor x="398" y="0" name="bottom"/>
  <anchor x="398" y="263" name="center"/>
  <anchor x="551" y="0" name="ogonek"/>
  <anchor x="685" y="525" name="topright"/>
  <outline>
    <contour>
      <point x="469" y="-200" type="curve" smooth="yes"/>
      <point x="521" y="-200"/>
      <point x="564" y="-171"/>
      <point x="582" y="-138" type="curve"/>
      <point x="526" y="-98" type="line"/>
      <point x="515" y="-114"/>
      <point x="503" y="-123"/>
      <point x="488" y="-123" type="curve" smooth="yes"/>
      <point x="465" y="-123"/>
      <point x="454" y="-104"/>
      <point x="454" y="-81" type="curve" smooth="yes"/>
      <point x="454" y="-33"/>
      <point x="493" y="-2"/>
      <point x="555" y="40" type="curve"/>
      <point x="546" y="80" type="line"/>
      <point x="446" y="36"/>
      <point x="363" y="-10"/>
      <point x="363" y="-99" type="curve" smooth="yes"/>
      <point x="363" y="-154"/>
      <point x="402" y="-200"/>
    </contour>
    <component base="o"/>
  </outline>
</glyph>
<glyph name="jdotless" format="2">
  <advance width="519"/>
  <unicode hex="0237"/>
  <anchor x="253" y="-230" name="bottom"/>
  <anchor x="259" y="525" name="top"/>
  <outline>
    <contour>
      <point x="129" y="-197" type="line"/>
      <point x="236" y="-197"/>
      <point x="309" y="-127"/>
      <point x="309" y="-24" type="curve" smooth="yes"/>
      <point x="309" y="525" type="line"/>
      <point x="206" y="525" type="line"/>
      <point x="206" y="1" type="line" smooth="yes"/>
      <point x="206" y="-78"/>
      <point x="167" y="-118"/>
      <point x="90" y="-118" type="curve"/>
    </contour>
  </outline>
</glyph>
<glyph name="schwa" format="2">
  <advance width="771"/>
  <unicode hex="0259"/>
  <outline>
    <contour>
      <point x="383" y="-12" type="curve" smooth="yes"/>
      <point x="539" y="-11"/>
      <point x="651" y="103"/>
      <point x="651" y="268" type="curve" smooth="yes"/>
      <point x="651" y="424"/>
      <point x="537" y="535"/>
      <point x="374" y="535" type="curve" smooth="yes"/>
      <point x="300" y="535"/>
      <point x="216" y="501"/>
      <point x="167" y="454" type="curve"/>
      <point x="219" y="381" type="line"/>
      <point x="271" y="426"/>
      <point x="312" y="441"/>
      <point x="364" y="441" type="curve" smooth="yes"/>
      <point x="475" y="441"/>
      <point x="549" y="370"/>
      <point x="549" y="261" type="curve" smooth="yes"/>
      <point x="549" y="145"/>
      <point x="491" y="83"/>
      <point x="383" y="83" type="curve" smooth="yes"/>
      <point x="315" y="83"/>
      <point x="257" y="133"/>
      <point x="250" y="198" type="curve"/>
      <point x="250" y="222" type="line"/>
      <point x="235" y="205" type="line"/>
      <point x="598" y="205" type="line"/>
      <point x="575" y="287" type="line"/>
      <point x="146" y="287" type="line"/>
      <point x="145" y="243" type="line" smooth="yes"/>
      <point x="145" y="96"/>
      <point x="247" y="-11"/>
    </contour>
  </outline>
</glyph>
<glyph name="nhookleft" format="2">
  <advance width="881"/>
  <unicode hex="0272"/>
  <outline>
    <contour>
      <point x="129" y="-197" type="line"/>
      <point x="236" y="-197"/>
      <point x="309" y="-127"/>
      <point x="309" y="-24" type="curve" smooth="yes"/>
      <point x="309" y="318" type="line" smooth="yes"/>
      <point x="309" y="387"/>
      <point x="368" y="442"/>
      <point x="447" y="442" type="curve" smooth="yes"/>
      <point x="522" y="446"/>
      <point x="558" y="404"/>
      <point x="558" y="313" type="curve" smooth="yes"/>
      <point x="558" y="0" type="line"/>
      <point x="661" y="0" type="line"/>
      <point x="661" y="320" type="line" smooth="yes"/>
      <point x="661" y="465"/>
      <point x="601" y="536"/>
      <point x="481" y="536" type="curve" smooth="yes"/>
      <point x="403" y="536"/>
      <point x="323" y="483"/>
      <point x="296" y="419" type="curve"/>
      <point x="309" y="398" type="line"/>
      <point x="309" y="525" type="line"/>
      <point x="206" y="525" type="line"/>
      <point x="206" y="1" type="line" smooth="yes"/>
      <point x="206" y="-78"/>
      <point x="167" y="-118"/>
      <point x="90" y="-118" type="curve"/>
    </contour>
  </outline>
</glyph>
<glyph name="brevecomb" format="2">
  <unicode hex="0306"/>
  <anchor x="250" y="525" name="_top"/>
  <anchor x="250" y="710" name="top"/>
  <outline>
    <contour>
      <point x="250" y="589" type="curve" smooth="yes"/>
      <point x="335" y="589"/>
      <point x="393" y="648"/>
      <point x="412" y="743" type="curve"/>
      <point x="338" y="755" type="line"/>
      <point x="321" y="703"/>
      <point x="290" y="670"/>
      <point x="250" y="670" type="curve" smooth="yes"/>
      <point x="210" y="670"/>
      <point x="179" y="703"/>
      <point x="162" y="755" type="curve"/>
      <point x="88" y="743" type="line"/>
      <point x="107" y="648"/>
      <point x="165" y="589"/>
    </contour>
  </outline>
</glyph>
<glyph name="dieresiscomb" format="2">
  <unicode hex="0308"/>
  <anchor x="250" y="525" name="_top"/>
  <anchor x="250" y="710" name="top"/>
  <outline>
    <contour>
      <point x="350" y="652" type="curve" smooth="yes"/>
      <point x="392" y="652"/>
      <point x="419" y="678"/>
      <point x="419" y="717" type="curve" smooth="yes"/>
      <point x="419" y="758"/>
      <point x="394" y="782"/>
      <point x="350" y="782" type="curve" smooth="yes"/>
      <point x="307" y="782"/>
      <point x="281" y="756"/>
      <point x="281" y="717" type="curve" smooth="yes"/>
      <point x="281" y="676"/>
      <point x="306" y="652"/>
    </contour>
    <contour>
      <point x="150" y="652" type="curve" smooth="yes"/>
      <point x="192" y="652"/>
      <point x="219" y="678"/>
      <point x="219" y="717" type="curve" smooth="yes"/>
      <point x="219" y="758"/>
      <point x="194" y="782"/>
      <point x="150" y="782" type="curve" smooth="yes"/>
      <point x="107" y="782"/>
      <point x="81" y="756"/>
      <point x="81" y="717" type="curve" smooth="yes"/>
      <point x="81" y="676"/>
      <point x="106" y="652"/>
    </contour>
  </outline>
</glyph>
<glyph name="breveinvertedcomb" format="2">
  <unicode hex="0311"/>
  <anchor x="250" y="740" name="_top"/>
  <anchor x="250" y="700" name="top"/>
  <outline>
    <contour>
      <point x="162" y="589" type="line"/>
      <point x="179" y="641"/>
      <point x="210" y="674"/>
      <point x="250" y="674" type="curve" smooth="yes"/>
      <point x="290" y="674"/>
      <point x="321" y="641"/>
      <point x="338" y="589" type="curve"/>
      <point x="412" y="601" type="line"/>
      <point x="393" y="696"/>
      <point x="335" y="755"/>
      <point x="250" y="755" type="curve" smooth="yes"/>
      <point x="165" y="755"/>
      <point x="107" y="696"/>
      <point x="88" y="601" type="curve"/>
    </contour>
  </outline>
</glyph>
<glyph name="dieresisbelowcomb" format="2">
  <unicode hex="0324"/>
  <anchor x="250" y="0" name="_bottom"/>
  <anchor x="250" y="-206" name="bottom"/>
  <outline>
    <contour>
      <point x="350" y="-206" type="curve" smooth="yes"/>
      <point x="392" y="-206"/>
      <point x="419" y="-180"/>
      <point x="419" y="-141" type="curve" smooth="yes"/>
      <point x="419" y="-100"/>
      <point x="394" y="-76"/>
      <point x="350" y="-76" type="curve" smooth="yes"/>
      <point x="307" y="-76"/>
      <point x="281" y="-102"/>
      <point x="281" y="-141" type="curve" smooth="yes"/>
      <point x="281" y="-182"/>
      <point x="306" y="-206"/>
    </contour>
    <contour>
      <point x="150" y="-206" type="curve" smooth="yes"/>
      <point x="192" y="-206"/>
      <point x="219" y="-180"/>
      <point x="219" y="-141" type="curve" smooth="yes"/>
      <point x="219" y="-100"/>
      <point x="194" y="-76"/>
      <point x="150" y="-76" type="curve" smooth="yes"/>
      <point x="107" y="-76"/>
      <point x="81" y="-102"/>
      <point x="81" y="-141" type="curve" smooth="yes"/>
      <point x="81" y="-182"/>
      <point x="106" y="-206"/>
    </contour>
  </outline>
</glyph>
<glyph name="commaaccentcomb" format="2">
  <unicode hex="0326"/>
  <anchor x="250" y="0" name="_bottom"/>
  <anchor x="250" y="-242" name="bottom"/>
  <outline>
    <contour>
      <point x="200" y="-242" type="line"/>
      <point x="275" y="-217"/>
      <point x="324" y="-172"/>
      <point x="324" y="-121" type="curve" smooth="yes"/>
      <point x="324" y="-74"/>
      <point x="290" y="-44"/>
      <point x="246" y="-44" type="curve" smooth="yes"/>
      <point x="207" y="-44"/>
      <point x="181" y="-64"/>
      <point x="181" y="-93" type="curve" smooth="yes"/>
      <point x="181" y="-113"/>
      <point x="187" y="-124"/>
      <point x="211" y="-131" type="curve" smooth="yes"/>
      <point x="227" y="-135"/>
      <point x="230" y="-140"/>
      <point x="230" y="-148" type="curve" smooth="yes"/>
      <point x="230" y="-168"/>
      <point x="204" y="-193"/>
      <point x="176" y="-200" type="curve"/>
    </contour>
  </outline>
</glyph>
<glyph name="Germandbls" format="2">
  <advance width="919"/>
  <unicode hex="1E9E"/>
  <anchor x="465" y="0" name="bottom"/>
  <anchor x="465" y="700" name="top"/>
  <outline>
    <contour>
      <point x="574" y="-10" type="curve" smooth="yes"/>
      <point x="691" y="-10"/>
      <point x="791" y="79"/>
      <point x="791" y="184" type="curve" smooth="yes"/>
      <point x="791" y="297"/>
      <point x="735" y="335"/>
      <point x="629" y="384" type="curve" smooth="yes"/>
      <point x="562" y="415"/>
      <point x="529" y="446"/>
      <point x="529" y="486" type="curve" smooth="yes"/>
      <point x="529" y="543"/>
      <point x="600" y="589"/>
      <point x="725" y="609" type="curve"/>
      <point x="720" y="682" type="line"/>
      <point x="652" y="711"/>
      <point x="574" y="726"/>
      <point x="491" y="726" type="curve" smooth="yes"/>
      <point x="306" y="726"/>
      <point x="184" y="575"/>
      <point x="183" y="350" type="curve" smooth="yes"/>
      <point x="182" y="1" type="line"/>
      <point x="290" y="1" type="line"/>
      <point x="292" y="343" type="line" smooth="yes"/>
      <point x="293" y="523"/>
      <point x="374" y="635"/>
      <point x="501" y="632" type="curve" smooth="yes"/>
      <point x="558" y="632"/>
      <point x="632" y="621"/>
      <point x="675" y="605" type="curve"/>
      <point x="625" y="643" type="line"/>
      <point x="504" y="632"/>
      <point x="422" y="564"/>
      <point x="422" y="460" type="curve" smooth="yes"/>
      <point x="422" y="385"/>
      <point x="457" y="343"/>
      <point x="553" y="291" type="curve" smooth="yes"/>
      <point x="653" y="237"/>
      <point x="686" y="219"/>
      <point x="686" y="171" type="curve" smooth="yes"/>
      <point x="686" y="119"/>
      <point x="642" y="87"/>
      <point x="573" y="87" type="curve" smooth="yes"/>
      <point x="530" y="87"/>
      <point x="479" y="115"/>
      <point x="446" y="155" type="curve"/>
      <point x="379" y="75" type="line"/>
      <point x="419" y="23"/>
      <point x="497" y="-10"/>
    </contour>
  </outline>
</glyph>
<glyph name="quoteleft" format="2">
  <advance width="291"/>
  <unicode hex="2018"/>
  <outline>
    <contour>
      <point x="189" y="476" type="curve" smooth="yes"/>
      <point x="225" y="476"/>
      <point x="250" y="497"/>
      <point x="250" y="529" type="curve" smooth="yes"/>
      <point x="250" y="546"/>
      <point x="242" y="560"/>
      <point x="213" y="584" type="curve" smooth="yes"/>
      <point x="201" y="594"/>
      <point x="182" y="608"/>
      <point x="182" y="625" type="curve" smooth="yes"/>
      <point x="182" y="648"/>
      <point x="219" y="682"/>
      <point x="271" y="706" type="curve"/>
      <point x="233" y="752" type="line"/>
      <point x="152" y="727"/>
      <point x="90" y="658"/>
      <point x="90" y="589" type="curve" smooth="yes"/>
      <point x="90" y="522"/>
      <point x="133" y="476"/>
    </contour>
  </outline>
</glyph>
<glyph name="quoteright" format="2">
  <advance width="291"/>
  <unicode hex="2019"/>
  <outline>
    <contour>
      <point x="58" y="476" type="line"/>
      <point x="139" y="501"/>
      <point x="201" y="570"/>
      <point x="201" y="639" type="curve" smooth="yes"/>
      <point x="201" y="706"/>
      <point x="158" y="752"/>
      <point x="102" y="752" type="curve" smooth="yes"/>
      <point x="66" y="752"/>
      <point x="41" y="731"/>
      <point x="41" y="699" type="curve" smooth="yes"/>
      <point x="41" y="682"/>
      <point x="49" y="668"/>
      <point x="78" y="644" type="curve" smooth="yes"/>
      <point x="90" y="634"/>
      <point x="109" y="620"/>
      <point x="109" y="603" type="curve" smooth="yes"/>
      <point x="109" y="580"/>
      <point x="72" y="546"/>
      <point x="20" y="522" type="curve"/>
    </contour>
  </outline>
</glyph>
<glyph name="daggerdbl" format="2">
  <advance width="562"/>
  <unicode hex="2021"/>
  <outline>
    <contour>
      <point x="235" y="194" type="line"/>
      <point x="332" y="194" type="line"/>
      <point x="332" y="724" type="line"/>
      <point x="235" y="724" type="line"/>
    </contour>
    <contour>
      <point x="125" y="369" type="line"/>
      <point x="437" y="369" type="line"/>
      <point x="437" y="452" type="line"/>
      <point x="125" y="452" type="line"/>
    </contour>
    <contour>
      <point x="125" y="512" type="line"/>
      <point x="437" y="512" type="line"/>
      <point x="437" y="595" type="line"/>
      <point x="125" y="595" type="line"/>
    </contour>
  </outline>
</glyph>
<glyph name="bullet" format="2">
  <advance width="623"/>
  <unicode hex="2022"/>
  <outline>
    <contour>
      <point x="311" y="216" type="curve" smooth="yes"/>
      <point x="387" y="216"/>
      <point x="448" y="276"/>
      <point x="448" y="351" type="curve" smooth="yes"/>
      <point x="448" y="427"/>
      <point x="387" y="488"/>
      <point x="311" y="488" type="curve" smooth="yes"/>
      <point x="235" y="488"/>
      <point x="175" y="427"/>
      <point x="175" y="351" type="curve" smooth="yes"/>
      <point x="175" y="276"/>
      <point x="236" y="216"/>
    </contour>
  </outline>
</glyph>
<glyph name="perthousand" format="2">
  <advance width="1290"/>
  <unicode hex="2030"/>
  <outline>
    <contour>
      <point x="188" y="0" type="line"/>
      <point x="286" y="0" type="line"/>
      <point x="754" y="700" type="line"/>
      <point x="651" y="700" type="line"/>
    </contour>
    <contour>
      <point x="243" y="329" type="curve" smooth="yes"/>
      <point x="331" y="329"/>
      <point x="397" y="411"/>
      <point x="397" y="518" type="curve" smooth="yes"/>
      <point x="397" y="629"/>
      <point x="335" y="709"/>
      <point x="244" y="709" type="curve" smooth="yes"/>
      <point x="153" y="709"/>
      <point x="90" y="629"/>
      <point x="90" y="518" type="curve" smooth="yes"/>
      <point x="90" y="409"/>
      <point x="152" y="329"/>
    </contour>
    <contour>
      <point x="244" y="404" type="curve" smooth="yes"/>
      <point x="200" y="404"/>
      <point x="173" y="449"/>
      <point x="173" y="518" type="curve" smooth="yes"/>
      <point x="173" y="587"/>
      <point x="200" y="633"/>
      <point x="243" y="633" type="curve" smooth="yes"/>
      <point x="287" y="633"/>
      <point x="313" y="589"/>
      <point x="313" y="518" type="curve" smooth="yes"/>
      <point x="313" y="447"/>
      <point x="287" y="404"/>
    </contour>
    <contour>
      <point x="686" y="-9" type="curve" smooth="yes"/>
      <point x="774" y="-9"/>
      <point x="839" y="73"/>
      <point x="839" y="180" type="curve" smooth="yes"/>
      <point x="839" y="291"/>
      <point x="777" y="371"/>
      <point x="686" y="371" type="curve" smooth="yes"/>
      <point x="595" y="371"/>
      <point x="532" y="291"/>
      <point x="532" y="180" type="curve" smooth="yes"/>
      <point x="532" y="72"/>
      <point x="597" y="-9"/>
    </contour>
    <contour>
      <point x="686" y="65" type="curve" smooth="yes"/>
      <point x="642" y="65"/>
      <point x="615" y="111"/>
      <point x="615" y="180" type="curve" smooth="yes"/>
      <point x="615" y="251"/>
      <point x="642" y="295"/>
      <point x="686" y="295" type="curve" smooth="yes"/>
      <point x="729" y="295"/>
      <point x="756" y="249"/>
      <point x="756" y="180" type="curve" smooth="yes"/>
      <point x="756" y="111"/>
      <point x="729" y="65"/>
    </contour>
    <contour>
      <point x="1037" y="-9" type="curve" smooth="yes"/>
      <point x="1125" y="-9"/>
      <point x="1190" y="73"/>
      <point x="1190" y="180" type="curve" smooth="yes"/>
      <point x="1190" y="292"/>
      <point x="1128" y="371"/>
      <point x="1037" y="371" type="curve" smooth="yes"/>
      <point x="946" y="371"/>
      <point x="883" y="291"/>
      <point x="883" y="180" type="curve" smooth="yes"/>
      <point x="883" y="72"/>
      <point x="948" y="-9"/>
    </contour>
    <contour>
      <point x="1037" y="65" type="curve" smooth="yes"/>
      <point x="993" y="65"/>
      <point x="966" y="111"/>
      <point x="966" y="180" type="curve" smooth="yes"/>
      <point x="966" y="251"/>
      <point x="993" y="295"/>
      <point x="1037" y="295" type="curve" smooth="yes"/>
      <point x="1081" y="295"/>
      <point x="1107" y="251"/>
      <point x="1107" y="180" type="curve" smooth="yes"/>
      <point x="1107" y="109"/>
      <point x="1081" y="65"/>
    </contour>
  </outline>
</glyph>
<glyph name="guilsinglleft" format="2">
  <advance width="483"/>
  <unicode hex="2039"/>
  <outline>
    <contour>
      <point x="269" y="50" type="line"/>
      <point x="332" y="95" type="line"/>
      <point x="213" y="266" type="line"/>
      <point x="212" y="255" type="line"/>
      <point x="331" y="426" type="line"/>
      <point x="268" y="471" type="line"/>
      <point x="110" y="259" type="line"/>
      <point x="110" y="257" type="line"/>
    </contour>
  </outline>
</glyph>
<glyph name="guilsinglright" format="2">
  <advance width="482"/>
  <unicode hex="203A"/>
  <outline>
    <contour>
      <point x="214" y="50" type="line"/>
      <point x="372" y="262" type="line"/>
      <point x="372" y="264" type="line"/>
      <point x="213" y="471" type="line"/>
      <point x="150" y="426" type="line"/>
      <point x="269" y="255" type="line"/>
      <point x="270" y="266" type="line"/>
      <point x="151" y="95" type="line"/>
    </contour>
  </outline>
</glyph>
<glyph name="colonsign" format="2">
  <advance width="849"/>
  <unicode hex="20A1"/>
  <anchor x="420" y="0" name="bottom"/>
  <anchor x="420" y="700" name="top"/>
  <outline>
    <contour>
      <point x="345" y="-139" type="line"/>
      <point x="773" y="740" type="line"/>
      <point x="700" y="770" type="line"/>
      <point x="268" y="-103" type="line"/>
    </contour>
    <contour>
      <point x="185" y="-106" type="line"/>
      <point x="613" y="773" type="line"/>
      <point x="540" y="803" type="line"/>
      <point x="108" y="-70" type="line"/>
    </contour>
    <component base="C"/>
  </outline>
</glyph>
<glyph name="franc" format="2">
  <advance width="776"/>
  <unicode hex="20A3"/>
  <anchor x="385" y="0" name="bottom"/>
  <anchor x="385" y="700" name="top"/>
  <outline>
    <contour>
      <point x="120" y="128" type="line"/>
      <point x="388" y="128" type="line"/>
      <point x="388" y="218" type="line"/>
      <point x="120" y="218" type="line"/>
    </contour>
    <component base="F"/>
  </outline>
</glyph>
<glyph name="lira" format="2">
  <advance width="800"/>
  <unicode hex="20A4"/>
  <outline>
    <contour>
      <point x="287" y="53" type="line"/>
      <point x="340" y="110"/>
      <point x="365" y="164"/>
      <point x="365" y="224" type="curve" smooth="yes"/>
      <point x="365" y="264"/>
      <point x="348" y="313"/>
      <point x="335" y="353" type="curve" smooth="yes"/>
      <point x="322" y="392"/>
      <point x="304" y="445"/>
      <point x="304" y="486" type="curve" smooth="yes"/>
      <point x="304" y="562"/>
      <point x="355" y="617"/>
      <point x="430" y="617" type="curve" smooth="yes"/>
      <point x="477" y="617"/>
      <point x="514" y="601"/>
      <point x="545" y="569" type="curve"/>
      <point x="619" y="625" type="line"/>
      <point x="588" y="678"/>
      <point x="519" y="710"/>
      <point x="430" y="710" type="curve" smooth="yes"/>
      <point x="293" y="710"/>
      <point x="204" y="622"/>
      <point x="204" y="487" type="curve" smooth="yes"/>
      <point x="204" y="455"/>
      <point x="209" y="427"/>
      <point x="233" y="352" type="curve" smooth="yes"/>
      <point x="260" y="272"/>
      <point x="265" y="238"/>
      <point x="265" y="201" type="curve" smooth="yes"/>
      <point x="265" y="144"/>
      <point x="241" y="90"/>
      <point x="212" y="74" type="curve"/>
    </contour>
    <contour>
      <point x="515" y="-21" type="curve" smooth="yes"/>
      <point x="578" y="-21"/>
      <point x="639" y="0"/>
      <point x="680" y="37" type="curve"/>
      <point x="628" y="102" type="line"/>
      <point x="589" y="78"/>
      <point x="552" y="67"/>
      <point x="515" y="67" type="curve" smooth="yes"/>
      <point x="486" y="67"/>
      <point x="452" y="79"/>
      <point x="424" y="89" type="curve" smooth="yes"/>
      <point x="367" y="109"/>
      <point x="342" y="114"/>
      <point x="317" y="114" type="curve" smooth="yes"/>
      <point x="238" y="114"/>
      <point x="172" y="97"/>
      <point x="120" y="65" type="curve"/>
      <point x="160" y="-6" type="line"/>
      <point x="209" y="14"/>
      <point x="261" y="26"/>
      <point x="304" y="26" type="curve" smooth="yes"/>
      <point x="331" y="26"/>
      <point x="377" y="12"/>
      <point x="403" y="4" type="curve" smooth="yes"/>
      <point x="432" y="-5"/>
      <point x="484" y="-21"/>
    </contour>
    <contour>
      <point x="134" y="203" type="line"/>
      <point x="542" y="203" type="line"/>
      <point x="542" y="288" type="line"/>
      <point x="134" y="288" type="line"/>
    </contour>
    <contour>
      <point x="134" y="323" type="line"/>
      <point x="542" y="323" type="line"/>
      <point x="542" y="408" type="line"/>
      <point x="134" y="408" type="line"/>
    </contour>
  </outline>
</glyph>
<glyph name="naira" format="2">
  <advance width="961"/>
  <unicode hex="20A6"/>
  <anchor x="481" y="0" name="bottom"/>
  <anchor x="481" y="700" name="top"/>
  <outline>
    <contour>
      <point x="93" y="314" type="line"/>
      <point x="185" y="314" type="line"/>
      <point x="215" y="321" type="line"/>
      <point x="729" y="321" type="line"/>
      <point x="770" y="314" type="line"/>
      <point x="868" y="314" type="line"/>
      <point x="868" y="407" type="line"/>
      <point x="775" y="407" type="line"/>
      <point x="733" y="400" type="line"/>
      <point x="221" y="400" type="line"/>
      <point x="187" y="407" type="line"/>
      <point x="93" y="407" type="line"/>
    </contour>
    <component base="N"/>
  </outline>
</glyph>
<glyph name="peseta" format="2">
  <advance width="841"/>
  <unicode hex="20A7"/>
  <anchor x="419" y="0" name="bottom"/>
  <anchor x="419" y="700" name="top"/>
  <outline>
    <contour>
      <point x="120" y="435" type="line"/>
      <point x="751" y="435" type="line"/>
      <point x="751" y="528" type="line"/>
      <point x="120" y="528" type="line"/>
    </contour>
    <component base="P" xOffset="18"/>
  </outline>
</glyph>
<glyph name="won" format="2">
  <advance width="1132"/>
  <unicode hex="20A9"/>
  <anchor x="566" y="0" name="bottom"/>
  <anchor x="566" y="700" name="top"/>
  <outline>
    <contour>
      <point x="114" y="322" type="line"/>
      <point x="247" y="322" type="line"/>
      <point x="295" y="336" type="line"/>
      <point x="833" y="336" type="line"/>
      <point x="882" y="322" type="line"/>
      <point x="1018" y="322" type="line"/>
      <point x="1018" y="415" type="line"/>
      <point x="905" y="415" type="line"/>
      <point x="869" y="401" type="line"/>
      <point x="266" y="401" type="line"/>
      <point x="233" y="415" type="line"/>
      <point x="114" y="415" type="line"/>
    </contour>
    <component base="W"/>
  </outline>
</glyph>
<glyph name="dong" format="2">
  <advance width="681"/>
  <unicode hex="20AB"/>
  <outline>
    <contour>
      <point x="281" y="146" type="curve" smooth="yes"/>
      <point x="345" y="146"/>
      <point x="405" y="210"/>
      <point x="405" y="262" type="curve"/>
      <point x="385" y="266" type="line"/>
      <point x="385" y="156" type="line"/>
      <point x="482" y="156" type="line"/>
      <point x="482" y="700" type="line"/>
      <point x="385" y="700" type="line"/>
      <point x="385" y="404" type="line"/>
      <point x="415" y="377" type="line"/>
      <point x="400" y="450"/>
      <point x="350" y="497"/>
      <point x="285" y="497" type="curve" smooth="yes"/>
      <point x="200" y="497"/>
      <point x="130" y="420"/>
      <point x="130" y="321" type="curve" smooth="yes"/>
      <point x="130" y="225"/>
      <point x="201" y="146"/>
    </contour>
    <contour>
      <point x="131" y="0" type="line"/>
      <point x="520" y="0" type="line"/>
      <point x="520" y="78" type="line"/>
      <point x="131" y="78" type="line"/>
    </contour>
    <contour>
      <point x="306" y="227" type="curve" smooth="yes"/>
      <point x="259" y="227"/>
      <point x="227" y="268"/>
      <point x="227" y="321" type="curve" smooth="yes"/>
      <point x="227" y="377"/>
      <point x="259" y="417"/>
      <point x="306" y="417" type="curve" smooth="yes"/>
      <point x="354" y="417"/>
      <point x="390" y="374"/>
      <point x="390" y="321" type="curve" smooth="yes"/>
      <point x="390" y="270"/>
      <point x="353" y="227"/>
    </contour>
    <contour>
      <point x="293" y="534" type="line"/>
      <point x="556" y="534" type="line"/>
      <point x="556" y="614" type="line"/>
      <point x="293" y="614" type="line"/>
    </contour>
  </outline>
</glyph>
<glyph name="euro" format="2">
  <advance width="741"/>
  <unicode hex="20AC"/>
  <outline>
    <contour>
      <point x="464" y="-10" type="curve" smooth="yes"/>
      <point x="519" y="-10"/>
      <point x="577" y="8"/>
      <point x="626" y="37" type="curve"/>
      <point x="576" y="121" type="line"/>
      <point x="543" y="98"/>
      <point x="505" y="86"/>
      <point x="464" y="86" type="curve" smooth="yes"/>
      <point x="321" y="86"/>
      <point x="224" y="190"/>
      <point x="224" y="350" type="curve" smooth="yes"/>
      <point x="224" y="502"/>
      <point x="324" y="610"/>
      <point x="464" y="610" type="curve" smooth="yes"/>
      <point x="503" y="610"/>
      <point x="543" y="599"/>
      <point x="576" y="576" type="curve"/>
      <point x="625" y="659" type="line"/>
      <point x="578" y="690"/>
      <point x="521" y="706"/>
      <point x="464" y="706" type="curve" smooth="yes"/>
      <point x="271" y="706"/>
      <point x="127" y="554"/>
      <point x="127" y="350" type="curve" smooth="yes"/>
      <point x="127" y="135"/>
      <point x="268" y="-10"/>
    </contour>
    <contour>
      <point x="452" y="221" type="line"/>
      <point x="452" y="314" type="line"/>
      <point x="50" y="316" type="line"/>
      <point x="50" y="222" type="line"/>
    </contour>
    <contour>
      <point x="452" y="367" type="line"/>
      <point x="452" y="460" type="line"/>
      <point x="50" y="461" type="line"/>
      <point x="50" y="368" type="line"/>
    </contour>
  </outline>
</glyph>
<glyph name="kip" format="2">
  <advance width="880"/>
  <unicode hex="20AD"/>
  <outline>
    <contour>
      <point x="235" y="212" type="line"/>
      <point x="738" y="700" type="line"/>
      <point x="596" y="700" type="line"/>
      <point x="229" y="333" type="line"/>
    </contour>
    <contour>
      <point x="50" y="320" type="line"/>
      <point x="219" y="320" type="line"/>
      <point x="223" y="415" type="line"/>
      <point x="50" y="415" type="line"/>
    </contour>
    <contour>
      <point x="145" y="0" type="line"/>
      <point x="253" y="0" type="line"/>
      <point x="253" y="700" type="line"/>
      <point x="145" y="700" type="line"/>
    </contour>
    <contour>
      <point x="609" y="0" type="line"/>
      <point x="744" y="0" type="line"/>
      <point x="421" y="427" type="line"/>
      <point x="341" y="358" type="line"/>
    </contour>
    <contour>
      <point x="397" y="320" type="line"/>
      <point x="652" y="320" type="line"/>
      <point x="652" y="415" type="line"/>
      <point x="397" y="415" type="line"/>
    </contour>
  </outline>
</glyph>
<glyph name="peso" format="2">
  <advance width="845"/>
  <unicode hex="20B1"/>
  <anchor x="411" y="0" name="bottom"/>
  <anchor x="411" y="700" name="top"/>
  <outline>
    <contour>
      <point x="120" y="508" type="line"/>
      <point x="234" y="508" type="line"/>
      <point x="260" y="516" type="line"/>
      <point x="583" y="516" type="line"/>
      <point x="619" y="508" type="line"/>
      <point x="755" y="508" type="line"/>
      <point x="755" y="580" type="line"/>
      <point x="614" y="580" type="line"/>
      <point x="577" y="566" type="line"/>
      <point x="261" y="566" type="line"/>
      <point x="239" y="580" type="line"/>
      <point x="120" y="580" type="line"/>
    </contour>
    <contour>
      <point x="120" y="393" type="line"/>
      <point x="233" y="393" type="line"/>
      <point x="257" y="407" type="line"/>
      <point x="581" y="407" type="line"/>
      <point x="613" y="393" type="line"/>
      <point x="755" y="393" type="line"/>
      <point x="755" y="467" type="line"/>
      <point x="618" y="467" type="line"/>
      <point x="583" y="457" type="line"/>
      <point x="259" y="457" type="line"/>
      <point x="236" y="467" type="line"/>
      <point x="120" y="467" type="line"/>
    </contour>
    <component base="P" xOffset="10"/>
  </outline>
</glyph>
<glyph name="guarani" format="2">
  <advance width="923"/>
  <unicode hex="20B2"/>
  <outline>
    <contour>
      <point x="491" y="-10" type="curve" smooth="yes"/>
      <point x="666" y="-10"/>
      <point x="803" y="115"/>
      <point x="803" y="299" type="curve" smooth="yes"/>
      <point x="803" y="318"/>
      <point x="802" y="336"/>
      <point x="798" y="359" type="curve"/>
      <point x="488" y="359" type="line"/>
      <point x="488" y="252" type="line"/>
      <point x="702" y="252" type="line"/>
      <point x="687" y="266" type="line"/>
      <point x="687" y="246" type="line" smooth="yes"/>
      <point x="687" y="162"/>
      <point x="599" y="95"/>
      <point x="494" y="95" type="curve" smooth="yes"/>
      <point x="354" y="95"/>
      <point x="238" y="210"/>
      <point x="238" y="350" type="curve" smooth="yes"/>
      <point x="238" y="493"/>
      <point x="347" y="601"/>
      <point x="490" y="601" type="curve" smooth="yes"/>
      <point x="557" y="601"/>
      <point x="622" y="571"/>
      <point x="682" y="514" type="curve"/>
      <point x="752" y="587" type="line"/>
      <point x="700" y="658"/>
      <point x="597" y="706"/>
      <point x="490" y="706" type="curve" smooth="yes"/>
      <point x="286" y="706"/>
      <point x="128" y="551"/>
      <point x="128" y="350" type="curve" smooth="yes"/>
      <point x="128" y="147"/>
      <point x="287" y="-10"/>
    </contour>
    <contour>
      <point x="399" y="-136" type="line"/>
      <point x="496" y="-136" type="line"/>
      <point x="496" y="797" type="line"/>
      <point x="399" y="797" type="line"/>
    </contour>
  </outline>
</glyph>
<glyph name="cedi" format="2">
  <advance width="849"/>
  <unicode hex="20B5"/>
  <anchor x="460" y="0" name="bottom"/>
  <anchor x="471" y="706" name="top"/>
  <outline>
    <contour>
      <point x="401" y="-81" type="line"/>
      <point x="508" y="-81" type="line"/>
      <point x="508" y="21" type="line"/>
      <point x="498" y="66" type="line"/>
      <point x="498" y="642" type="line"/>
      <point x="508" y="680" type="line"/>
      <point x="508" y="776" type="line"/>
      <point x="401" y="776" type="line"/>
      <point x="401" y="673" type="line"/>
      <point x="405" y="637" type="line"/>
      <point x="405" y="73" type="line"/>
      <point x="401" y="18" type="line"/>
    </contour>
    <component base="C"/>
  </outline>
</glyph>
<glyph name="rupeeIndian" format="2">
  <advance width="667"/>
  <unicode hex="20B9"/>
  <outline>
    <contour>
      <point x="192" y="263" type="line"/>
      <point x="249" y="263" type="line" smooth="yes"/>
      <point x="370" y="263"/>
      <point x="470" y="362"/>
      <point x="470" y="477" type="curve" smooth="yes"/>
      <point x="470" y="581"/>
      <point x="369" y="660"/>
      <point x="249" y="660" type="curve"/>
      <point x="348" y="596" type="line"/>
      <point x="538" y="596" type="line"/>
      <point x="538" y="700" type="line"/>
      <point x="100" y="700" type="line"/>
      <point x="100" y="596" type="line"/>
      <point x="231" y="596" type="line" smooth="yes"/>
      <point x="306" y="596"/>
      <point x="360" y="547"/>
      <point x="360" y="478" type="curve" smooth="yes"/>
      <point x="360" y="415"/>
      <point x="318" y="367"/>
      <point x="259" y="367" type="curve" smooth="yes"/>
      <point x="151" y="367" type="line"/>
      <point x="151" y="318" type="line"/>
    </contour>
    <contour>
      <point x="379" y="0" type="line"/>
      <point x="510" y="-1" type="line"/>
      <point x="265" y="341" type="line"/>
      <point x="154" y="316" type="line"/>
    </contour>
    <contour>
      <point x="274" y="433" type="line"/>
      <point x="542" y="433" type="line"/>
      <point x="542" y="523" type="line"/>
      <point x="274" y="523" type="line"/>
    </contour>
  </outline>
</glyph>
<glyph name="liraTurkish" format="2">
  <advance width="802"/>
  <unicode hex="20BA"/>
  <outline>
    <contour>
      <point x="329" y="-10" type="curve" smooth="yes"/>
      <point x="482" y="-10"/>
      <point x="640" y="89"/>
      <point x="652" y="193" type="curve"/>
      <point x="560" y="219" type="line"/>
      <point x="531" y="138"/>
      <point x="437" y="87"/>
      <point x="336" y="87" type="curve"/>
      <point x="346" y="52" type="line"/>
      <point x="346" y="700" type="line"/>
      <point x="248" y="700" type="line"/>
      <point x="248" y="0" type="line"/>
      <point x="263" y="-7"/>
      <point x="286" y="-10"/>
    </contour>
    <contour>
      <point x="179" y="176" type="line"/>
      <point x="524" y="368" type="line"/>
      <point x="480" y="435" type="line"/>
      <point x="140" y="244" type="line"/>
    </contour>
    <contour>
      <point x="159" y="336" type="line"/>
      <point x="504" y="528" type="line"/>
      <point x="460" y="595" type="line"/>
      <point x="120" y="404" type="line"/>
    </contour>
  </outline>
</glyph>
<glyph name="manat" format="2">
  <advance width="928"/>
  <unicode hex="20BC"/>
  <outline>
    <contour>
      <point x="182" y="0" type="line"/>
      <point x="285" y="0" type="line"/>
      <point x="285" y="423" type="line" smooth="yes"/>
      <point x="285" y="524"/>
      <point x="364" y="603"/>
      <point x="464" y="603" type="curve" smooth="yes"/>
      <point x="559" y="603"/>
      <point x="638" y="524"/>
      <point x="638" y="423" type="curve" smooth="yes"/>
      <point x="638" y="0" type="line"/>
      <point x="746" y="0" type="line"/>
      <point x="746" y="432" type="line" smooth="yes"/>
      <point x="746" y="591"/>
      <point x="627" y="707"/>
      <point x="464" y="707" type="curve" smooth="yes"/>
      <point x="301" y="707"/>
      <point x="182" y="591"/>
      <point x="182" y="432" type="curve" smooth="yes"/>
    </contour>
    <contour>
      <point x="415" y="254" type="line"/>
      <point x="512" y="254" type="line"/>
      <point x="512" y="801" type="line"/>
      <point x="415" y="801" type="line"/>
    </contour>
  </outline>
</glyph>
<glyph name="ruble" format="2">
  <advance width="839"/>
  <unicode hex="20BD"/>
  <outline>
    <contour>
      <point x="213" y="0" type="line"/>
      <point x="321" y="0" type="line"/>
      <point x="321" y="282" type="line"/>
      <point x="313" y="268" type="line"/>
      <point x="498" y="268" type="line" smooth="yes"/>
      <point x="611" y="268"/>
      <point x="704" y="365"/>
      <point x="704" y="485" type="curve" smooth="yes"/>
      <point x="704" y="605"/>
      <point x="611" y="700"/>
      <point x="498" y="700" type="curve" smooth="yes"/>
      <point x="213" y="700" type="line"/>
    </contour>
    <contour>
      <point x="120" y="117" type="line"/>
      <point x="388" y="117" type="line"/>
      <point x="388" y="207" type="line"/>
      <point x="120" y="207" type="line"/>
    </contour>
    <contour>
      <point x="121" y="271" type="line"/>
      <point x="224" y="271" type="line"/>
      <point x="224" y="364" type="line"/>
      <point x="121" y="364" type="line"/>
    </contour>
    <contour>
      <point x="321" y="358" type="line"/>
      <point x="321" y="611" type="line"/>
      <point x="312" y="596" type="line"/>
      <point x="496" y="596" type="line" smooth="yes"/>
      <point x="549" y="596"/>
      <point x="594" y="546"/>
      <point x="594" y="485" type="curve" smooth="yes"/>
      <point x="594" y="424"/>
      <point x="549" y="372"/>
      <point x="496" y="372" type="curve" smooth="yes"/>
      <point x="312" y="372" type="line"/>
    </contour>
  </outline>
</glyph>
<glyph name="literSign" format="2">
  <advance width="779"/>
  <unicode hex="2113"/>
  <outline>
    <contour>
      <point x="409" y="-10" type="curve" smooth="yes"/>
      <point x="462" y="-10"/>
      <point x="517" y="13"/>
      <point x="562" y="54" type="curve"/>
      <point x="530" y="114" type="line"/>
      <point x="508" y="100"/>
      <point x="462" y="69"/>
      <point x="434" y="69" type="curve" smooth="yes"/>
      <point x="366" y="69"/>
      <point x="320" y="144"/>
      <point x="320" y="249" type="curve" smooth="yes"/>
      <point x="320" y="309"/>
      <point x="338" y="409"/>
      <point x="365" y="492" type="curve" smooth="yes"/>
      <point x="404" y="609"/>
      <point x="454" y="681"/>
      <point x="507" y="681" type="curve" smooth="yes"/>
      <point x="536" y="681"/>
      <point x="556" y="655"/>
      <point x="556" y="619" type="curve" smooth="yes"/>
      <point x="556" y="535"/>
      <point x="503" y="425"/>
      <point x="412" y="326" type="curve" smooth="yes"/>
      <point x="341" y="249"/>
      <point x="250" y="182"/>
      <point x="145" y="131" type="curve"/>
      <point x="177" y="74" type="line"/>
      <point x="297" y="130"/>
      <point x="400" y="203"/>
      <point x="479" y="288" type="curve" smooth="yes"/>
      <point x="579" y="395"/>
      <point x="639" y="519"/>
      <point x="639" y="615" type="curve" smooth="yes"/>
      <point x="639" y="698"/>
      <point x="588" y="754"/>
      <point x="508" y="755" type="curve" smooth="yes"/>
      <point x="420" y="754"/>
      <point x="346" y="683"/>
      <point x="295" y="556" type="curve" smooth="yes"/>
      <point x="259" y="465"/>
      <point x="237" y="350"/>
      <point x="237" y="254" type="curve" smooth="yes"/>
      <point x="237" y="101"/>
      <point x="308" y="-10"/>
    </contour>
  </outline>
</glyph>
<glyph name="numero" format="2">
  <advance width="1356"/>
  <unicode hex="2116"/>
  <anchor x="481" y="0" name="bottom"/>
  <anchor x="481" y="700" name="top"/>
  <outline>
    <contour>
      <point x="880" y="193" type="line"/>
      <point x="1226" y="193" type="line"/>
      <point x="1226" y="282" type="line"/>
      <point x="880" y="282" type="line"/>
    </contour>
    <contour>
      <point x="1043" y="358" type="curve" smooth="yes"/>
      <point x="1143" y="358"/>
      <point x="1217" y="432"/>
      <point x="1217" y="531" type="curve" smooth="yes"/>
      <point x="1217" y="631"/>
      <point x="1142" y="708"/>
      <point x="1043" y="708" type="curve" smooth="yes"/>
      <point x="946" y="708"/>
      <point x="872" y="632"/>
      <point x="872" y="531" type="curve" smooth="yes"/>
      <point x="872" y="431"/>
      <point x="944" y="358"/>
    </contour>
    <contour>
      <point x="1043" y="441" type="curve" smooth="yes"/>
      <point x="995" y="441"/>
      <point x="962" y="478"/>
      <point x="962" y="531" type="curve" smooth="yes"/>
      <point x="962" y="587"/>
      <point x="995" y="625"/>
      <point x="1043" y="625" type="curve" smooth="yes"/>
      <point x="1092" y="625"/>
      <point x="1126" y="587"/>
      <point x="1126" y="531" type="curve" smooth="yes"/>
      <point x="1126" y="478"/>
      <point x="1092" y="441"/>
    </contour>
    <component base="N"/>
  </outline>
</glyph>
<glyph name="Ohm" format="2">
  <advance width="825"/>
  <unicode hex="2126"/>
  <outline>
    <contour>
      <point x="114" y="0" type="line"/>
      <point x="362" y="0" type="line"/>
      <point x="362" y="56" type="line"/>
      <point x="355" y="67"/>
      <point x="337" y="90"/>
      <point x="309" y="125" type="curve" smooth="yes"/>
      <point x="242" y="208"/>
      <point x="198" y="280"/>
      <point x="198" y="403" type="curve" smooth="yes"/>
      <point x="198" y="524"/>
      <point x="289" y="613"/>
      <point x="413" y="613" type="curve" smooth="yes"/>
      <point x="536" y="613"/>
      <point x="628" y="523"/>
      <point x="628" y="403" type="curve" smooth="yes"/>
      <point x="628" y="307"/>
      <point x="602" y="241"/>
      <point x="554" y="174" type="curve" smooth="yes"/>
      <point x="544" y="160"/>
      <point x="513" y="121"/>
      <point x="461" y="56" type="curve"/>
      <point x="461" y="0" type="line"/>
      <point x="711" y="0" type="line"/>
      <point x="711" y="97" type="line"/>
      <point x="547" y="97" type="line"/>
      <point x="566" y="66" type="line"/>
      <point x="663" y="165"/>
      <point x="725" y="291"/>
      <point x="725" y="403" type="curve" smooth="yes"/>
      <point x="725" y="579"/>
      <point x="592" y="710"/>
      <point x="413" y="710" type="curve" smooth="yes"/>
      <point x="234" y="710"/>
      <point x="100" y="580"/>
      <point x="100" y="404" type="curve" smooth="yes"/>
      <point x="100" y="291"/>
      <point x="161" y="165"/>
      <point x="260" y="65" type="curve"/>
      <point x="285" y="97" type="line"/>
      <point x="114" y="97" type="line"/>
    </contour>
  </outline>
</glyph>
<glyph name="partialdiff" format="2">
  <advance width="770"/>
  <unicode hex="2202"/>
  <outline>
    <contour>
      <point x="384" y="-7" type="curve" smooth="yes"/>
      <point x="535" y="-7"/>
      <point x="640" y="120"/>
      <point x="640" y="280" type="curve" smooth="yes"/>
      <point x="640" y="372"/>
      <point x="608" y="473"/>
      <point x="552" y="558" type="curve" smooth="yes"/>
      <point x="489" y="653"/>
      <point x="406" y="718"/>
      <point x="323" y="735" type="curve"/>
      <point x="292" y="656" type="line"/>
      <point x="427" y="608"/>
      <point x="541" y="476"/>
      <point x="549" y="345" type="curve"/>
      <point x="585" y="362" type="line"/>
      <point x="522" y="489"/>
      <point x="461" y="536"/>
      <point x="372" y="536" type="curve" smooth="yes"/>
      <point x="245" y="536"/>
      <point x="130" y="412"/>
      <point x="130" y="265" type="curve" smooth="yes"/>
      <point x="130" y="113"/>
      <point x="243" y="-7"/>
    </contour>
    <contour>
      <point x="387" y="82" type="curve" smooth="yes"/>
      <point x="296" y="82"/>
      <point x="226" y="162"/>
      <point x="226" y="265" type="curve" smooth="yes"/>
      <point x="226" y="368"/>
      <point x="296" y="446"/>
      <point x="387" y="446" type="curve" smooth="yes"/>
      <point x="478" y="446"/>
      <point x="549" y="366"/>
      <point x="549" y="265" type="curve" smooth="yes"/>
      <point x="549" y="162"/>
      <point x="478" y="82"/>
    </contour>
  </outline>
</glyph>
<glyph name="emptyset" format="2">
  <advance width="795"/>
  <unicode hex="2205"/>
  <anchor x="397" y="0" name="bottom"/>
  <anchor x="397" y="263" name="center"/>
  <anchor x="550" y="0" name="ogonek"/>
  <anchor x="397" y="525" name="top"/>
  <anchor x="684" y="525" name="topright"/>
  <outline>
    <contour>
      <point x="182" y="-13" type="line"/>
      <point x="676" y="469" type="line"/>
      <point x="615" y="535" type="line"/>
      <point x="118" y="53" type="line"/>
    </contour>
    <component base="o" xOffset="-1"/>
  </outline>
</glyph>
<glyph name="increment" format="2">
  <advance width="866"/>
  <unicode hex="2206"/>
  <outline>
    <contour>
      <point x="90" y="0" type="line"/>
      <point x="777" y="0" type="line"/>
      <point x="431" y="717" type="line"/>
    </contour>
    <contour>
      <point x="215" y="64" type="line"/>
      <point x="439" y="530" type="line"/>
      <point x="423" y="530" type="line"/>
      <point x="649" y="61" type="line"/>
      <point x="674" y="83" type="line"/>
      <point x="198" y="83" type="line"/>
    </contour>
  </outline>
</glyph>
<glyph name="product" format="2">
  <advance width="832"/>
  <unicode hex="220F"/>
  <outline>
    <contour>
      <point x="538" y="-200" type="line"/>
      <point x="643" y="-200" type="line"/>
      <point x="643" y="656" type="line"/>
      <point x="538" y="656" type="line"/>
    </contour>
    <contour>
      <point x="189" y="-200" type="line"/>
      <point x="293" y="-200" type="line"/>
      <point x="293" y="641" type="line"/>
      <point x="189" y="641" type="line"/>
    </contour>
    <contour>
      <point x="90" y="603" type="line"/>
      <point x="742" y="603" type="line"/>
      <point x="742" y="700" type="line"/>
      <point x="90" y="700" type="line"/>
    </contour>
  </outline>
</glyph>
<glyph name="minus" format="2">
  <advance width="740"/>
  <unicode hex="2212"/>
  <outline>
    <contour>
      <point x="130" y="247" type="line"/>
      <point x="610" y="247" type="line"/>
      <point x="610" y="336" type="line"/>
      <point x="130" y="336" type="line"/>
    </contour>
  </outline>
</glyph>
<glyph name="divisionslash" format="2">
  <advance width="781"/>
  <unicode hex="2215"/>
  <outline>
    <contour>
      <point x="125" y="-107" type="line"/>
      <point x="207" y="-107" type="line"/>
      <point x="631" y="756" type="line"/>
      <point x="549" y="756" type="line"/>
    </contour>
  </outline>
</glyph>
<glyph name="bulletoperator" format="2">
  <advance width="504"/>
  <unicode hex="2219"/>
  <outline>
    <contour>
      <point x="253" y="229" type="curve" smooth="yes"/>
      <point x="292" y="229"/>
      <point x="324" y="261"/>
      <point x="324" y="301" type="curve" smooth="yes"/>
      <point x="324" y="340"/>
      <point x="292" y="373"/>
      <point x="253" y="373" type="curve" smooth="yes"/>
      <point x="213" y="373"/>
      <point x="180" y="340"/>
      <point x="180" y="301" type="curve" smooth="yes"/>
      <point x="180" y="261"/>
      <point x="213" y="229"/>
    </contour>
  </outline>
</glyph>
<glyph name="radical" format="2">
  <advance width="794"/>
  <unicode hex="221A"/>
  <outline>
    <contour>
      <point x="251" y="-130" type="line"/>
      <point x="341" y="-130" type="line"/>
      <point x="614" y="620" type="line"/>
      <point x="552" y="603" type="line"/>
      <point x="724" y="603" type="line"/>
      <point x="724" y="700" type="line"/>
      <point x="533" y="700" type="line"/>
      <point x="264" y="-67" type="line"/>
      <point x="319" y="-88" type="line"/>
      <point x="184" y="309" type="line"/>
      <point x="75" y="309" type="line"/>
    </contour>
  </outline>
</glyph>
<glyph name="infinity" format="2">
  <advance width="977"/>
  <unicode hex="221E"/>
  <outline>
    <contour>
      <point x="709" y="47" type="curve" smooth="yes"/>
      <point x="809" y="47"/>
      <point x="877" y="122"/>
      <point x="877" y="242" type="curve" smooth="yes"/>
      <point x="877" y="361"/>
      <point x="807" y="437"/>
      <point x="707" y="437" type="curve" smooth="yes"/>
      <point x="646" y="437"/>
      <point x="604" y="418"/>
      <point x="543" y="353" type="curve" smooth="yes"/>
      <point x="375" y="177" type="line" smooth="yes"/>
      <point x="344" y="145"/>
      <point x="313" y="129"/>
      <point x="277" y="129" type="curve" smooth="yes"/>
      <point x="221" y="129"/>
      <point x="183" y="173"/>
      <point x="183" y="242" type="curve" smooth="yes"/>
      <point x="183" y="311"/>
      <point x="221" y="355"/>
      <point x="276" y="355" type="curve" smooth="yes"/>
      <point x="312" y="355"/>
      <point x="350" y="337"/>
      <point x="379" y="306" type="curve" smooth="yes"/>
      <point x="551" y="125" type="line" smooth="yes"/>
      <point x="608" y="66"/>
      <point x="649" y="47"/>
    </contour>
    <contour>
      <point x="268" y="47" type="curve" smooth="yes"/>
      <point x="328" y="47"/>
      <point x="369" y="65"/>
      <point x="426" y="125" type="curve" smooth="yes"/>
      <point x="597" y="306" type="line" smooth="yes"/>
      <point x="628" y="337"/>
      <point x="665" y="355"/>
      <point x="700" y="355" type="curve" smooth="yes"/>
      <point x="755" y="355"/>
      <point x="794" y="311"/>
      <point x="794" y="242" type="curve" smooth="yes"/>
      <point x="794" y="173"/>
      <point x="756" y="129"/>
      <point x="700" y="129" type="curve" smooth="yes"/>
      <point x="665" y="129"/>
      <point x="634" y="144"/>
      <point x="602" y="177" type="curve" smooth="yes"/>
      <point x="434" y="353" type="line" smooth="yes"/>
      <point x="370" y="420"/>
      <point x="331" y="437"/>
      <point x="270" y="437" type="curve" smooth="yes"/>
      <point x="170" y="437"/>
      <point x="100" y="361"/>
      <point x="100" y="242" type="curve" smooth="yes"/>
      <point x="100" y="122"/>
      <point x="168" y="47"/>
    </contour>
  </outline>
</glyph>
<glyph name="integral" format="2">
  <advance width="636"/>
  <unicode hex="222B"/>
  <outline>
    <contour>
      <point x="136" y="-127" type="curve" smooth="yes"/>
      <point x="233" y="-127"/>
      <point x="292" y="-61"/>
      <point x="315" y="71" type="curve" smooth="yes"/>
      <point x="395" y="550" type="line" smooth="yes"/>
      <point x="406" y="613"/>
      <point x="431" y="644"/>
      <point x="470" y="644" type="curve" smooth="yes"/>
      <point x="495" y="644"/>
      <point x="529" y="634"/>
      <point x="557" y="615" type="curve"/>
      <point x="586" y="710" type="line"/>
      <point x="558" y="734"/>
      <point x="520" y="745"/>
      <point x="469" y="745" type="curve" smooth="yes"/>
      <point x="374" y="745"/>
      <point x="316" y="679"/>
      <point x="293" y="547" type="curve" smooth="yes"/>
      <point x="212" y="68" type="line" smooth="yes"/>
      <point x="203" y="12"/>
      <point x="175" y="-21"/>
      <point x="138" y="-21" type="curve" smooth="yes"/>
      <point x="115" y="-21"/>
      <point x="88" y="-13"/>
      <point x="72" y="0" type="curve"/>
      <point x="25" y="-81" type="line"/>
      <point x="65" y="-110"/>
      <point x="105" y="-127"/>
    </contour>
  </outline>
</glyph>
<glyph name="approxequal" format="2">
  <advance width="679"/>
  <unicode hex="2248"/>
  <outline>
    <contour>
      <point x="455" y="284" type="curve" smooth="yes"/>
      <point x="528" y="284"/>
      <point x="569" y="332"/>
      <point x="569" y="415" type="curve"/>
      <point x="495" y="413" type="line"/>
      <point x="495" y="370"/>
      <point x="484" y="359"/>
      <point x="460" y="359" type="curve" smooth="yes"/>
      <point x="434" y="359"/>
      <point x="385" y="382"/>
      <point x="361" y="392" type="curve" smooth="yes"/>
      <point x="329" y="406"/>
      <point x="268" y="433"/>
      <point x="232" y="433" type="curve" smooth="yes"/>
      <point x="155" y="433"/>
      <point x="110" y="386"/>
      <point x="110" y="309" type="curve"/>
      <point x="184" y="314" type="line"/>
      <point x="183" y="341"/>
      <point x="198" y="358"/>
      <point x="221" y="358" type="curve" smooth="yes"/>
      <point x="248" y="358"/>
      <point x="298" y="335"/>
      <point x="322" y="325" type="curve" smooth="yes"/>
      <point x="356" y="311"/>
      <point x="418" y="284"/>
    </contour>
    <contour>
      <point x="455" y="101" type="curve" smooth="yes"/>
      <point x="528" y="101"/>
      <point x="569" y="149"/>
      <point x="569" y="232" type="curve"/>
      <point x="495" y="230" type="line"/>
      <point x="495" y="187"/>
      <point x="484" y="176"/>
      <point x="460" y="176" type="curve" smooth="yes"/>
      <point x="434" y="176"/>
      <point x="385" y="199"/>
      <point x="361" y="209" type="curve" smooth="yes"/>
      <point x="329" y="223"/>
      <point x="268" y="250"/>
      <point x="232" y="250" type="curve" smooth="yes"/>
      <point x="155" y="250"/>
      <point x="110" y="203"/>
      <point x="110" y="126" type="curve"/>
      <point x="184" y="131" type="line"/>
      <point x="183" y="158"/>
      <point x="198" y="175"/>
      <point x="221" y="175" type="curve" smooth="yes"/>
      <point x="248" y="175"/>
      <point x="298" y="152"/>
      <point x="322" y="142" type="curve" smooth="yes"/>
      <point x="356" y="128"/>
      <point x="418" y="101"/>
    </contour>
  </outline>
</glyph>
<glyph name="notequal" format="2">
  <advance width="706"/>
  <unicode hex="2260"/>
  <outline>
    <contour>
      <point x="169" y="28" type="line"/>
      <point x="251" y="28" type="line"/>
      <point x="524" y="537" type="line"/>
      <point x="438" y="536" type="line"/>
    </contour>
    <contour>
      <point x="120" y="142" type="line"/>
      <point x="586" y="142" type="line"/>
      <point x="586" y="231" type="line"/>
      <point x="120" y="231" type="line"/>
    </contour>
    <contour>
      <point x="120" y="331" type="line"/>
      <point x="586" y="331" type="line"/>
      <point x="586" y="421" type="line"/>
      <point x="120" y="421" type="line"/>
    </contour>
  </outline>
</glyph>
<glyph name="greaterequal" format="2">
  <advance width="727"/>
  <unicode hex="2265"/>
  <outline>
    <contour>
      <point x="204" y="138" type="line"/>
      <point x="636" y="296" type="line"/>
      <point x="636" y="361" type="line"/>
      <point x="204" y="518" type="line"/>
      <point x="175" y="444" type="line"/>
      <point x="565" y="299" type="line"/>
      <point x="570" y="362" type="line"/>
      <point x="182" y="219" type="line"/>
    </contour>
    <contour>
      <point x="140" y="0" type="line"/>
      <point x="637" y="0" type="line"/>
      <point x="637" y="90" type="line"/>
      <point x="140" y="90" type="line"/>
    </contour>
  </outline>
</glyph>
<glyph name="lozenge" format="2">
  <advance width="777"/>
  <unicode hex="25CA"/>
  <outline>
    <contour>
      <point x="399" y="-43" type="line"/>
      <point x="662" y="330" type="line"/>
      <point x="399" y="690" type="line"/>
      <point x="136" y="327" type="line"/>
    </contour>
    <contour>
      <point x="399" y="95" type="line"/>
      <point x="238" y="327" type="line"/>
      <point x="399" y="551" type="line"/>
      <point x="560" y="327" type="line"/>
    </contour>
  </outline>
</glyph>
<glyph name="J.ss01" format="2">
  <advance width="741"/>
  <anchor x="366" y="0" name="bottom"/>
  <anchor x="506" y="700" name="top"/>
  <outline>
    <contour>
      <point x="331" y="-10" type="curve" smooth="yes"/>
      <point x="466" y="-10"/>
      <point x="559" y="86"/>
      <point x="559" y="213" type="curve" smooth="yes"/>
      <point x="559" y="700" type="line"/>
      <point x="451" y="700" type="line"/>
      <point x="451" y="223" type="line" smooth="yes"/>
      <point x="451" y="148"/>
      <point x="403" y="95"/>
      <point x="331" y="95" type="curve" smooth="yes"/>
      <point x="282" y="95"/>
      <point x="250" y="109"/>
      <point x="193" y="188" type="curve"/>
      <point x="125" y="117" type="line"/>
      <point x="164" y="41"/>
      <point x="240" y="-10"/>
    </contour>
  </outline>
</glyph>
<glyph name="a.ss01" format="2">
  <advance width="768"/>
  <anchor x="349" y="0" name="bottom"/>
  <anchor x="558" y="0" name="ogonek"/>
  <anchor x="349" y="525" name="top"/>
  <outline>
    <contour>
      <point x="465" y="0" type="line"/>
      <point x="558" y="0" type="line"/>
      <point x="558" y="364" type="line" smooth="yes"/>
      <point x="558" y="473"/>
      <point x="482" y="536"/>
      <point x="362" y="536" type="curve" smooth="yes"/>
      <point x="278" y="536"/>
      <point x="206" y="503"/>
      <point x="143" y="435" type="curve"/>
      <point x="210" y="368" type="line"/>
      <point x="249" y="417"/>
      <point x="295" y="441"/>
      <point x="354" y="441" type="curve" smooth="yes"/>
      <point x="418" y="441"/>
      <point x="465" y="401"/>
      <point x="465" y="342" type="curve" smooth="yes"/>
    </contour>
    <contour>
      <point x="308" y="-10" type="curve" smooth="yes"/>
      <point x="385" y="-10"/>
      <point x="459" y="38"/>
      <point x="502" y="107" type="curve"/>
      <point x="478" y="174" type="line"/>
      <point x="450" y="119"/>
      <point x="384" y="78"/>
      <point x="312" y="78" type="curve" smooth="yes"/>
      <point x="263" y="78"/>
      <point x="227" y="107"/>
      <point x="227" y="151" type="curve" smooth="yes"/>
      <point x="227" y="206"/>
      <point x="272" y="237"/>
      <point x="353" y="237" type="curve" smooth="yes"/>
      <point x="503" y="237" type="line"/>
      <point x="512" y="319" type="line"/>
      <point x="366" y="319" type="line" smooth="yes"/>
      <point x="210" y="319"/>
      <point x="130" y="261"/>
      <point x="130" y="149" type="curve" smooth="yes"/>
      <point x="130" y="53"/>
      <point x="207" y="-10"/>
    </contour>
  </outline>
</glyph>
<glyph name="brevecomb_gravecomb" format="2">
  <anchor x="250" y="525" name="_top"/>
  <anchor x="250" y="790" name="top"/>
  <outline>
    <contour>
      <point x="250" y="589" type="curve" smooth="yes"/>
      <point x="335" y="589"/>
      <point x="393" y="644"/>
      <point x="412" y="733" type="curve"/>
      <point x="338" y="745" type="line"/>
      <point x="321" y="699"/>
      <point x="290" y="670"/>
      <point x="250" y="670" type="curve" smooth="yes"/>
      <point x="210" y="670"/>
      <point x="179" y="699"/>
      <point x="162" y="745" type="curve"/>
      <point x="88" y="733" type="line"/>
      <point x="107" y="644"/>
      <point x="165" y="589"/>
    </contour>
    <contour>
      <point x="253" y="753" type="line"/>
      <point x="301" y="791" type="line"/>
      <point x="218" y="937" type="line"/>
      <point x="132" y="874" type="line"/>
    </contour>
  </outline>
</glyph>
<glyph name="brevecomb_hookabovecomb" format="2">
  <anchor x="250" y="525" name="_top"/>
  <anchor x="250" y="790" name="top"/>
  <outline>
    <contour>
      <point x="250" y="589" type="curve" smooth="yes"/>
      <point x="335" y="589"/>
      <point x="393" y="644"/>
      <point x="412" y="733" type="curve"/>
      <point x="338" y="745" type="line"/>
      <point x="321" y="699"/>
      <point x="290" y="670"/>
      <point x="250" y="670" type="curve" smooth="yes"/>
      <point x="210" y="670"/>
      <point x="179" y="699"/>
      <point x="162" y="745" type="curve"/>
      <point x="88" y="733" type="line"/>
      <point x="107" y="644"/>
      <point x="165" y="589"/>
    </contour>
    <contour>
      <point x="227" y="756" type="curve"/>
      <point x="278" y="769" type="line"/>
      <point x="276" y="773"/>
      <point x="275" y="777"/>
      <point x="275" y="782" type="curve" smooth="yes"/>
      <point x="275" y="795"/>
      <point x="286" y="802"/>
      <point x="310" y="814" type="curve" smooth="yes"/>
      <point x="328" y="823"/>
      <point x="347" y="841"/>
      <point x="347" y="875" type="curve" smooth="yes"/>
      <point x="347" y="917"/>
      <point x="311" y="952"/>
      <point x="241" y="952" type="curve" smooth="yes"/>
      <point x="214" y="952"/>
      <point x="179" y="945"/>
      <point x="152" y="928" type="curve"/>
      <point x="168" y="865" type="line"/>
      <point x="190" y="876"/>
      <point x="217" y="883"/>
      <point x="239" y="883" type="curve" smooth="yes"/>
      <point x="256" y="883"/>
      <point x="269" y="878"/>
      <point x="269" y="866" type="curve" smooth="yes"/>
      <point x="269" y="857"/>
      <point x="261" y="851"/>
      <point x="239" y="836" type="curve" smooth="yes"/>
      <point x="217" y="821"/>
      <point x="212" y="806"/>
      <point x="212" y="794" type="curve" smooth="yes"/>
      <point x="212" y="782"/>
      <point x="217" y="769"/>
    </contour>
  </outline>
</glyph>
